Monoto-ExtendedBold.ufo
<glyph name="quotedbl" format="2">
  <advance width="800"/>
  <unicode hex="0022"/>
  <outline>
    <contour>
      <point x="477" y="456" type="line"/>
      <point x="621" y="456" type="line"/>
      <point x="650" y="714" type="line"/>
      <point x="448" y="714" type="line"/>
    </contour>
    <contour>
      <point x="178" y="456" type="line"/>
      <point x="322" y="456" type="line"/>
      <point x="351" y="714" type="line"/>
      <point x="149" y="714" type="line"/>
    </contour>
  </outline>
</glyph>
<glyph name="percent" format="2">
  <advance width="800"/>
  <unicode hex="0025"/>
  <outline>
    <contour>
      <point x="59" y="-12" type="line"/>
      <point x="215" y="-12" type="line"/>
      <point x="738" y="726" type="line"/>
      <point x="582" y="726" type="line"/>
    </contour>
    <contour>
      <point x="623" y="-10" type="curve" smooth="yes"/>
      <point x="755" y="-10"/>
      <point x="830" y="52"/>
      <point x="830" y="159" type="curve" smooth="yes"/>
      <point x="830" y="267"/>
      <point x="752" y="329"/>
      <point x="624" y="329" type="curve" smooth="yes"/>
      <point x="496" y="329"/>
      <point x="419" y="269"/>
      <point x="419" y="159" type="curve" smooth="yes"/>
      <point x="419" y="49"/>
      <point x="499" y="-10"/>
    </contour>
    <contour>
      <point x="626" y="104" type="curve" smooth="yes"/>
      <point x="585" y="104"/>
      <point x="565" y="117"/>
      <point x="565" y="159" type="curve" smooth="yes"/>
      <point x="565" y="201"/>
      <point x="585" y="215"/>
      <point x="626" y="215" type="curve" smooth="yes"/>
      <point x="664" y="215"/>
      <point x="683" y="201"/>
      <point x="683" y="159" type="curve" smooth="yes"/>
      <point x="683" y="117"/>
      <point x="664" y="104"/>
    </contour>
    <contour>
      <point x="173" y="385" type="curve" smooth="yes"/>
      <point x="305" y="385"/>
      <point x="381" y="447"/>
      <point x="381" y="554" type="curve" smooth="yes"/>
      <point x="381" y="662"/>
      <point x="302" y="724"/>
      <point x="175" y="724" type="curve" smooth="yes"/>
      <point x="47" y="724"/>
      <point x="-30" y="665"/>
      <point x="-30" y="554" type="curve" smooth="yes"/>
      <point x="-30" y="445"/>
      <point x="50" y="385"/>
    </contour>
    <contour>
      <point x="176" y="500" type="curve" smooth="yes"/>
      <point x="136" y="500"/>
      <point x="116" y="513"/>
      <point x="116" y="554" type="curve" smooth="yes"/>
      <point x="116" y="597"/>
      <point x="136" y="611"/>
      <point x="176" y="611" type="curve" smooth="yes"/>
      <point x="214" y="611"/>
      <point x="234" y="597"/>
      <point x="234" y="554" type="curve" smooth="yes"/>
      <point x="234" y="513"/>
      <point x="214" y="500"/>
    </contour>
  </outline>
</glyph>
<glyph name="comma" format="2">
  <advance width="800"/>
  <unicode hex="002C"/>
  <outline>
    <contour>
      <point x="250" y="-164" type="curve" smooth="yes"/>
      <point x="409" y="-164" type="line" smooth="yes"/>
      <point x="458" y="-164"/>
      <point x="512" y="76"/>
      <point x="539" y="147" type="curve"/>
      <point x="528" y="151" type="line" smooth="yes"/>
      <point x="348" y="223" type="line"/>
      <point x="309" y="75"/>
      <point x="279" y="-164"/>
    </contour>
  </outline>
</glyph>
<glyph name="slash" format="2">
  <advance width="800"/>
  <unicode hex="002F"/>
  <outline>
    <contour>
      <point x="109" y="-12" type="line"/>
      <point x="290" y="-12" type="line"/>
      <point x="691" y="726" type="line"/>
      <point x="511" y="726" type="line"/>
    </contour>
  </outline>
</glyph>
<glyph name="one" format="2">
  <advance width="800"/>
  <unicode hex="0031"/>
  <outline>
    <contour>
      <point x="331" y="0" type="line"/>
      <point x="529" y="0" type="line"/>
      <point x="529" y="714" type="line"/>
      <point x="355" y="714" type="line"/>
      <point x="62" y="591" type="line"/>
      <point x="143" y="444" type="line"/>
      <point x="244" y="474" type="line" smooth="yes"/>
      <point x="279" y="484"/>
      <point x="302" y="497"/>
      <point x="335" y="513" type="curve"/>
      <point x="332" y="469"/>
      <point x="331" y="374"/>
      <point x="331" y="347" type="curve" smooth="yes"/>
    </contour>
    <contour>
      <point x="129" y="0" type="line"/>
      <point x="732" y="0" type="line"/>
      <point x="732" y="145" type="line"/>
      <point x="529" y="158" type="line"/>
      <point x="332" y="158" type="line"/>
      <point x="129" y="145" type="line"/>
    </contour>
  </outline>
</glyph>
<glyph name="two" format="2">
  <advance width="800"/>
  <unicode hex="0032"/>
  <outline>
    <contour>
      <point x="52" y="0" type="line"/>
      <point x="768" y="0" type="line"/>
      <point x="768" y="165" type="line"/>
      <point x="327" y="165" type="line"/>
      <point x="327" y="170" type="line"/>
      <point x="497" y="256" type="line" smooth="yes"/>
      <point x="682" y="350"/>
      <point x="744" y="425"/>
      <point x="744" y="505" type="curve" smooth="yes"/>
      <point x="744" y="653"/>
      <point x="598" y="724"/>
      <point x="400" y="724" type="curve" smooth="yes"/>
      <point x="259" y="724"/>
      <point x="150" y="689"/>
      <point x="50" y="602" type="curve"/>
      <point x="157" y="473" type="line"/>
      <point x="233" y="533"/>
      <point x="301" y="561"/>
      <point x="388" y="561" type="curve" smooth="yes"/>
      <point x="475" y="561"/>
      <point x="536" y="541"/>
      <point x="536" y="493" type="curve" smooth="yes"/>
      <point x="536" y="432"/>
      <point x="464" y="386"/>
      <point x="284" y="276" type="curve" smooth="yes"/>
      <point x="51" y="133" type="line"/>
    </contour>
  </outline>
</glyph>
<glyph name="three" format="2">
  <advance width="800"/>
  <unicode hex="0033"/>
  <outline>
    <contour>
      <point x="340" y="-9" type="curve" smooth="yes"/>
      <point x="590" y="-9"/>
      <point x="735" y="79"/>
      <point x="735" y="210" type="curve" smooth="yes"/>
      <point x="735" y="309"/>
      <point x="644" y="351"/>
      <point x="511" y="366" type="curve"/>
      <point x="511" y="369" type="line"/>
      <point x="616" y="398"/>
      <point x="703" y="451"/>
      <point x="703" y="549" type="curve" smooth="yes"/>
      <point x="703" y="666"/>
      <point x="591" y="724"/>
      <point x="391" y="724" type="curve" smooth="yes"/>
      <point x="259" y="724"/>
      <point x="149" y="700"/>
      <point x="66" y="656" type="curve"/>
      <point x="152" y="522" type="line"/>
      <point x="212" y="546"/>
      <point x="293" y="564"/>
      <point x="374" y="564" type="curve" smooth="yes"/>
      <point x="461" y="564"/>
      <point x="514" y="552"/>
      <point x="514" y="505" type="curve" smooth="yes"/>
      <point x="514" y="455"/>
      <point x="448" y="436"/>
      <point x="283" y="436" type="curve" smooth="yes"/>
      <point x="205" y="436" type="line"/>
      <point x="205" y="280" type="line"/>
      <point x="283" y="280" type="line" smooth="yes"/>
      <point x="463" y="280"/>
      <point x="534" y="259"/>
      <point x="534" y="216" type="curve" smooth="yes"/>
      <point x="534" y="171"/>
      <point x="471" y="143"/>
      <point x="340" y="143" type="curve" smooth="yes"/>
      <point x="258" y="143"/>
      <point x="152" y="161"/>
      <point x="66" y="191" type="curve"/>
      <point x="66" y="28" type="line"/>
      <point x="157" y="3"/>
      <point x="255" y="-9"/>
    </contour>
  </outline>
</glyph>
<glyph name="four" format="2">
  <advance width="800"/>
  <unicode hex="0034"/>
  <outline>
    <contour>
      <point x="448" y="0" type="line"/>
      <point x="638" y="0" type="line"/>
      <point x="638" y="138" type="line"/>
      <point x="775" y="138" type="line"/>
      <point x="775" y="288" type="line"/>
      <point x="638" y="288" type="line"/>
      <point x="638" y="713" type="line"/>
      <point x="440" y="713" type="line"/>
      <point x="25" y="285" type="line"/>
      <point x="25" y="138" type="line"/>
      <point x="448" y="138" type="line"/>
    </contour>
    <contour>
      <point x="203" y="288" type="line"/>
      <point x="377" y="386" type="line" smooth="yes"/>
      <point x="400" y="399"/>
      <point x="428" y="428"/>
      <point x="446" y="458" type="curve"/>
      <point x="453" y="458" type="line"/>
      <point x="451" y="411"/>
      <point x="448" y="377"/>
      <point x="448" y="367" type="curve" smooth="yes"/>
      <point x="448" y="288" type="line"/>
    </contour>
  </outline>
</glyph>
<glyph name="six" format="2">
  <advance width="800"/>
  <unicode hex="0036"/>
  <outline>
    <contour>
      <point x="413" y="-10" type="curve" smooth="yes"/>
      <point x="619" y="-10"/>
      <point x="756" y="88"/>
      <point x="756" y="247" type="curve" smooth="yes"/>
      <point x="756" y="395"/>
      <point x="642" y="481"/>
      <point x="465" y="481" type="curve" smooth="yes"/>
      <point x="357" y="481"/>
      <point x="280" y="451"/>
      <point x="245" y="399" type="curve"/>
      <point x="237" y="399" type="line"/>
      <point x="247" y="517"/>
      <point x="332" y="564"/>
      <point x="549" y="564" type="curve" smooth="yes"/>
      <point x="592" y="564"/>
      <point x="641" y="561"/>
      <point x="683" y="555" type="curve"/>
      <point x="683" y="716" type="line"/>
      <point x="639" y="721"/>
      <point x="575" y="724"/>
      <point x="531" y="724" type="curve" smooth="yes"/>
      <point x="131" y="724"/>
      <point x="44" y="512"/>
      <point x="44" y="301" type="curve" smooth="yes"/>
      <point x="44" y="98"/>
      <point x="192" y="-10"/>
    </contour>
    <contour>
      <point x="409" y="155" type="curve" smooth="yes"/>
      <point x="306" y="155"/>
      <point x="249" y="177"/>
      <point x="249" y="230" type="curve" smooth="yes"/>
      <point x="249" y="280"/>
      <point x="309" y="321"/>
      <point x="412" y="321" type="curve" smooth="yes"/>
      <point x="510" y="321"/>
      <point x="555" y="290"/>
      <point x="555" y="236" type="curve" smooth="yes"/>
      <point x="555" y="180"/>
      <point x="494" y="155"/>
    </contour>
  </outline>
</glyph>
<glyph name="nine" format="2">
  <advance width="800"/>
  <unicode hex="0039"/>
  <outline>
    <contour>
      <point x="274" y="-10" type="curve" smooth="yes"/>
      <point x="670" y="-10"/>
      <point x="757" y="200"/>
      <point x="757" y="417" type="curve" smooth="yes"/>
      <point x="757" y="615"/>
      <point x="607" y="724"/>
      <point x="389" y="724" type="curve" smooth="yes"/>
      <point x="178" y="724"/>
      <point x="44" y="626"/>
      <point x="44" y="466" type="curve" smooth="yes"/>
      <point x="44" y="319"/>
      <point x="159" y="233"/>
      <point x="336" y="233" type="curve" smooth="yes"/>
      <point x="440" y="233"/>
      <point x="520" y="263"/>
      <point x="556" y="315" type="curve"/>
      <point x="564" y="315" type="line"/>
      <point x="554" y="197"/>
      <point x="466" y="150"/>
      <point x="255" y="150" type="curve" smooth="yes"/>
      <point x="211" y="150"/>
      <point x="164" y="153"/>
      <point x="122" y="159" type="curve"/>
      <point x="122" y="-2" type="line"/>
      <point x="166" y="-7"/>
      <point x="226" y="-10"/>
    </contour>
    <contour>
      <point x="387" y="393" type="curve" smooth="yes"/>
      <point x="295" y="393"/>
      <point x="244" y="425"/>
      <point x="244" y="477" type="curve" smooth="yes"/>
      <point x="244" y="535"/>
      <point x="304" y="559"/>
      <point x="392" y="559" type="curve" smooth="yes"/>
      <point x="498" y="559"/>
      <point x="551" y="534"/>
      <point x="551" y="482" type="curve" smooth="yes"/>
      <point x="551" y="436"/>
      <point x="487" y="393"/>
    </contour>
  </outline>
</glyph>
<glyph name="colon" format="2">
  <advance width="800"/>
  <unicode hex="003A"/>
  <outline>
    <contour>
      <point x="402" y="369" type="curve" smooth="yes"/>
      <point x="466" y="369"/>
      <point x="520" y="396"/>
      <point x="520" y="465" type="curve" smooth="yes"/>
      <point x="520" y="535"/>
      <point x="466" y="562"/>
      <point x="402" y="562" type="curve" smooth="yes"/>
      <point x="335" y="562"/>
      <point x="281" y="535"/>
      <point x="281" y="465" type="curve" smooth="yes"/>
      <point x="281" y="396"/>
      <point x="335" y="369"/>
    </contour>
    <contour>
      <point x="401" y="-6" type="curve" smooth="yes"/>
      <point x="466" y="-6"/>
      <point x="519" y="21"/>
      <point x="519" y="90" type="curve" smooth="yes"/>
      <point x="519" y="160"/>
      <point x="466" y="187"/>
      <point x="401" y="187" type="curve" smooth="yes"/>
      <point x="334" y="187"/>
      <point x="280" y="160"/>
      <point x="280" y="90" type="curve" smooth="yes"/>
      <point x="280" y="21"/>
      <point x="334" y="-6"/>
    </contour>
  </outline>
</glyph>
<glyph name="equal" format="2">
  <advance width="800"/>
  <unicode hex="003D"/>
  <outline>
    <contour>
      <point x="70" y="385" type="line"/>
      <point x="729" y="385" type="line"/>
      <point x="729" y="538" type="line"/>
      <point x="70" y="538" type="line"/>
    </contour>
    <contour>
      <point x="70" y="143" type="line"/>
      <point x="729" y="143" type="line"/>
      <point x="729" y="296" type="line"/>
      <point x="70" y="296" type="line"/>
    </contour>
  </outline>
</glyph>
<glyph name="A" format="2">
  <advance width="800"/>
  <unicode hex="0041"/>
  <anchor x="400" y="0" name="bottom"/>
  <anchor x="744" y="10" name="ogonek"/>
  <anchor x="400" y="714" name="top"/>
  <anchor x="801" y="714" name="topright"/>
  <outline>
    <contour>
      <point x="-14" y="0" type="line"/>
      <point x="183" y="0" type="line"/>
      <point x="350" y="406" type="line" smooth="yes"/>
      <point x="372" y="460"/>
      <point x="390" y="546"/>
      <point x="401" y="592" type="curve"/>
      <point x="412" y="546"/>
      <point x="430" y="459"/>
      <point x="452" y="406" type="curve" smooth="yes"/>
      <point x="613" y="0" type="line"/>
      <point x="813" y="0" type="line"/>
      <point x="523" y="717" type="line"/>
      <point x="275" y="717" type="line"/>
    </contour>
    <contour>
      <point x="213" y="131" type="line"/>
      <point x="574" y="131" type="line"/>
      <point x="545" y="286" type="line"/>
      <point x="248" y="286" type="line"/>
    </contour>
  </outline>
</glyph>
<glyph name="C" format="2">
  <advance width="800"/>
  <unicode hex="0043"/>
  <anchor x="464" y="0" name="bottom"/>
  <anchor x="483" y="714" name="top"/>
  <anchor x="801" y="714" name="topright"/>
  <outline>
    <contour>
      <point x="466" y="-10" type="curve" smooth="yes"/>
      <point x="556" y="-10"/>
      <point x="645" y="4"/>
      <point x="730" y="34" type="curve"/>
      <point x="730" y="211" type="line"/>
      <point x="655" y="177"/>
      <point x="564" y="160"/>
      <point x="493" y="160" type="curve" smooth="yes"/>
      <point x="320" y="160"/>
      <point x="245" y="206"/>
      <point x="245" y="345" type="curve" smooth="yes"/>
      <point x="245" y="471"/>
      <point x="324" y="553"/>
      <point x="509" y="553" type="curve" smooth="yes"/>
      <point x="571" y="553"/>
      <point x="647" y="544"/>
      <point x="711" y="521" type="curve"/>
      <point x="771" y="686" type="line"/>
      <point x="686" y="713"/>
      <point x="599" y="724"/>
      <point x="506" y="724" type="curve" smooth="yes"/>
      <point x="215" y="724"/>
      <point x="43" y="587"/>
      <point x="43" y="346" type="curve" smooth="yes"/>
      <point x="43" y="128"/>
      <point x="179" y="-10"/>
    </contour>
  </outline>
</glyph>
<glyph name="E" format="2">
  <advance width="800"/>
  <unicode hex="0045"/>
  <anchor x="406" y="0" name="bottom"/>
  <anchor x="634" y="10" name="ogonek"/>
  <anchor x="405" y="714" name="top"/>
  <anchor x="-1" y="714" name="topleft"/>
  <anchor x="801" y="714" name="topright"/>
  <outline>
    <contour>
      <point x="77" y="0" type="line"/>
      <point x="729" y="0" type="line"/>
      <point x="729" y="165" type="line"/>
      <point x="273" y="165" type="line"/>
      <point x="273" y="283" type="line"/>
      <point x="706" y="283" type="line"/>
      <point x="706" y="448" type="line"/>
      <point x="273" y="448" type="line"/>
      <point x="273" y="549" type="line"/>
      <point x="729" y="549" type="line"/>
      <point x="729" y="714" type="line"/>
      <point x="77" y="714" type="line"/>
    </contour>
  </outline>
</glyph>
<glyph name="G" format="2">
  <advance width="800"/>
  <unicode hex="0047"/>
  <anchor x="457" y="0" name="bottom"/>
  <anchor x="438" y="714" name="top"/>
  <anchor x="801" y="714" name="topright"/>
  <outline>
    <contour>
      <point x="468" y="-10" type="curve" smooth="yes"/>
      <point x="570" y="-10"/>
      <point x="662" y="1"/>
      <point x="755" y="34" type="curve"/>
      <point x="755" y="427" type="line"/>
      <point x="425" y="427" type="line"/>
      <point x="425" y="275" type="line"/>
      <point x="572" y="275" type="line"/>
      <point x="572" y="166" type="line"/>
      <point x="537" y="160"/>
      <point x="503" y="159"/>
      <point x="464" y="159" type="curve" smooth="yes"/>
      <point x="284" y="159"/>
      <point x="213" y="236"/>
      <point x="213" y="356" type="curve" smooth="yes"/>
      <point x="213" y="491"/>
      <point x="308" y="558"/>
      <point x="489" y="558" type="curve" smooth="yes"/>
      <point x="563" y="558"/>
      <point x="629" y="545"/>
      <point x="686" y="522" type="curve"/>
      <point x="748" y="678" type="line"/>
      <point x="673" y="703"/>
      <point x="583" y="724"/>
      <point x="474" y="724" type="curve" smooth="yes"/>
      <point x="173" y="724"/>
      <point x="14" y="584"/>
      <point x="14" y="351" type="curve" smooth="yes"/>
      <point x="14" y="130"/>
      <point x="161" y="-10"/>
    </contour>
  </outline>
</glyph>
<glyph name="I" format="2">
  <advance width="800"/>
  <unicode hex="0049"/>
  <anchor x="399" y="0" name="bottom"/>
  <anchor x="524" y="10" name="ogonek"/>
  <anchor x="399" y="714" name="top"/>
  <anchor x="-2" y="714" name="topleft"/>
  <anchor x="801" y="714" name="topright"/>
  <outline>
    <contour>
      <point x="94" y="0" type="line"/>
      <point x="705" y="0" type="line"/>
      <point x="705" y="139" type="line"/>
      <point x="496" y="156" type="line"/>
      <point x="496" y="558" type="line"/>
      <point x="705" y="575" type="line"/>
      <point x="705" y="714" type="line"/>
      <point x="94" y="714" type="line"/>
      <point x="94" y="575" type="line"/>
      <point x="301" y="558" type="line"/>
      <point x="301" y="156" type="line"/>
      <point x="94" y="139" type="line"/>
    </contour>
  </outline>
</glyph>
<glyph name="L" format="2">
  <advance width="800"/>
  <unicode hex="004C"/>
  <anchor x="435" y="0" name="bottom"/>
  <anchor x="400" y="357" name="center"/>
  <anchor x="199" y="714" name="top"/>
  <anchor x="627" y="714" name="topright"/>
  <outline>
    <contour>
      <point x="102" y="0" type="line"/>
      <point x="729" y="0" type="line"/>
      <point x="729" y="171" type="line"/>
      <point x="302" y="171" type="line"/>
      <point x="302" y="714" type="line"/>
      <point x="102" y="714" type="line"/>
    </contour>
  </outline>
</glyph>
<glyph name="M" format="2">
  <advance width="800"/>
  <unicode hex="004D"/>
  <anchor x="400" y="0" name="bottom"/>
  <anchor x="403" y="714" name="top"/>
  <anchor x="830" y="714" name="topright"/>
  <outline>
    <contour>
      <point x="25" y="0" type="line"/>
      <point x="198" y="0" type="line"/>
      <point x="198" y="109" type="line" smooth="yes"/>
      <point x="198" y="146"/>
      <point x="170" y="512"/>
      <point x="164" y="536" type="curve"/>
      <point x="170" y="536" type="line"/>
      <point x="305" y="154" type="line"/>
      <point x="493" y="154" type="line"/>
      <point x="625" y="535" type="line"/>
      <point x="631" y="535" type="line"/>
      <point x="626" y="516"/>
      <point x="600" y="145"/>
      <point x="600" y="110" type="curve" smooth="yes"/>
      <point x="600" y="0" type="line"/>
      <point x="775" y="0" type="line"/>
      <point x="775" y="714" type="line"/>
      <point x="508" y="714" type="line"/>
      <point x="400" y="311" type="line"/>
      <point x="395" y="311" type="line"/>
      <point x="290" y="714" type="line"/>
      <point x="25" y="714" type="line"/>
    </contour>
  </outline>
</glyph>
<glyph name="N" format="2">
  <advance width="800"/>
  <unicode hex="004E"/>
  <anchor x="399" y="0" name="bottom"/>
  <anchor x="407" y="714" name="top"/>
  <anchor x="829" y="714" name="topright"/>
  <outline>
    <contour>
      <point x="45" y="0" type="line"/>
      <point x="228" y="0" type="line"/>
      <point x="228" y="313" type="line" smooth="yes"/>
      <point x="228" y="364"/>
      <point x="223" y="387"/>
      <point x="211" y="537" type="curve"/>
      <point x="217" y="537" type="line"/>
      <point x="497" y="0" type="line"/>
      <point x="754" y="0" type="line"/>
      <point x="754" y="714" type="line"/>
      <point x="571" y="714" type="line"/>
      <point x="571" y="385" type="line" smooth="yes"/>
      <point x="571" y="326"/>
      <point x="577" y="259"/>
      <point x="587" y="165" type="curve"/>
      <point x="582" y="165" type="line"/>
      <point x="314" y="714" type="line"/>
      <point x="45" y="714" type="line"/>
    </contour>
  </outline>
</glyph>
<glyph name="P" format="2">
  <advance width="800"/>
  <unicode hex="0050"/>
  <anchor x="400" y="0" name="bottom"/>
  <anchor x="400" y="714" name="top"/>
  <anchor x="830" y="714" name="topright"/>
  <outline>
    <contour>
      <point x="77" y="0" type="line"/>
      <point x="268" y="0" type="line"/>
      <point x="268" y="229" type="line"/>
      <point x="407" y="229" type="line" smooth="yes"/>
      <point x="674" y="229"/>
      <point x="772" y="343"/>
      <point x="772" y="482" type="curve" smooth="yes"/>
      <point x="772" y="631"/>
      <point x="658" y="714"/>
      <point x="419" y="714" type="curve" smooth="yes"/>
      <point x="77" y="714" type="line"/>
    </contour>
    <contour>
      <point x="268" y="388" type="line"/>
      <point x="268" y="554" type="line"/>
      <point x="396" y="554" type="line" smooth="yes"/>
      <point x="517" y="554"/>
      <point x="571" y="521"/>
      <point x="571" y="480" type="curve" smooth="yes"/>
      <point x="571" y="422"/>
      <point x="505" y="388"/>
      <point x="385" y="388" type="curve" smooth="yes"/>
    </contour>
  </outline>
</glyph>
<glyph name="T" format="2">
  <advance width="800"/>
  <unicode hex="0054"/>
  <anchor x="401" y="0" name="bottom"/>
  <anchor x="400" y="357" name="center"/>
  <anchor x="400" y="714" name="top"/>
  <anchor x="801" y="714" name="topright"/>
  <outline>
    <contour>
      <point x="300" y="0" type="line"/>
      <point x="500" y="0" type="line"/>
      <point x="500" y="549" type="line"/>
      <point x="786" y="549" type="line"/>
      <point x="786" y="714" type="line"/>
      <point x="14" y="714" type="line"/>
      <point x="14" y="549" type="line"/>
      <point x="300" y="549" type="line"/>
    </contour>
  </outline>
</glyph>
<glyph name="U" format="2">
  <advance width="800"/>
  <unicode hex="0055"/>
  <anchor x="399" y="0" name="bottom"/>
  <anchor x="743" y="10" name="ogonek"/>
  <anchor x="399" y="714" name="top"/>
  <anchor x="801" y="714" name="topright"/>
  <outline>
    <contour>
      <point x="398" y="-10" type="curve" smooth="yes"/>
      <point x="641" y="-10"/>
      <point x="754" y="91"/>
      <point x="754" y="265" type="curve" smooth="yes"/>
      <point x="754" y="714" type="line"/>
      <point x="554" y="714" type="line"/>
      <point x="554" y="277" type="line" smooth="yes"/>
      <point x="554" y="181"/>
      <point x="511" y="162"/>
      <point x="397" y="162" type="curve" smooth="yes"/>
      <point x="285" y="162"/>
      <point x="245" y="184"/>
      <point x="245" y="276" type="curve" smooth="yes"/>
      <point x="245" y="714" type="line"/>
      <point x="45" y="714" type="line"/>
      <point x="45" y="260" type="line" smooth="yes"/>
      <point x="45" y="82"/>
      <point x="166" y="-10"/>
    </contour>
  </outline>
</glyph>
<glyph name="V" format="2">
  <advance width="800"/>
  <unicode hex="0056"/>
  <anchor x="400" y="0" name="bottom"/>
  <anchor x="400" y="714" name="top"/>
  <anchor x="801" y="714" name="topright"/>
  <outline>
    <contour>
      <point x="278" y="0" type="line"/>
      <point x="525" y="0" type="line"/>
      <point x="810" y="714" type="line"/>
      <point x="609" y="714" type="line"/>
      <point x="453" y="308" type="line" smooth="yes"/>
      <point x="440" y="273"/>
      <point x="419" y="196"/>
      <point x="407" y="152" type="curve"/>
      <point x="401" y="152" type="line"/>
      <point x="389" y="196"/>
      <point x="367" y="271"/>
      <point x="352" y="309" type="curve" smooth="yes"/>
      <point x="191" y="714" type="line"/>
      <point x="-11" y="714" type="line"/>
    </contour>
  </outline>
</glyph>
<glyph name="a" format="2">
  <advance width="800"/>
  <unicode hex="0061"/>
  <anchor x="404" y="0" name="bottom"/>
  <anchor x="743" y="10" name="ogonek"/>
  <anchor x="410" y="557" name="top"/>
  <anchor x="801" y="557" name="topright"/>
  <outline>
    <contour>
      <point x="306" y="-10" type="curve" smooth="yes"/>
      <point x="384" y="-10"/>
      <point x="477" y="-9"/>
      <point x="551" y="64" type="curve"/>
      <point x="556" y="64" type="line"/>
      <point x="578" y="0" type="line"/>
      <point x="729" y="0" type="line"/>
      <point x="729" y="381" type="line" smooth="yes"/>
      <point x="729" y="504"/>
      <point x="622" y="567"/>
      <point x="405" y="567" type="curve" smooth="yes"/>
      <point x="290" y="567"/>
      <point x="191" y="553"/>
      <point x="102" y="516" type="curve"/>
      <point x="165" y="385" type="line"/>
      <point x="237" y="409"/>
      <point x="317" y="417"/>
      <point x="387" y="417" type="curve" smooth="yes"/>
      <point x="489" y="417"/>
      <point x="542" y="399"/>
      <point x="542" y="374" type="curve" smooth="yes"/>
      <point x="543" y="355" type="line"/>
      <point x="378" y="351" type="line" smooth="yes"/>
      <point x="173" y="346"/>
      <point x="45" y="298"/>
      <point x="45" y="169" type="curve" smooth="yes"/>
      <point x="45" y="66"/>
      <point x="138" y="-10"/>
    </contour>
    <contour>
      <point x="352" y="139" type="curve" smooth="yes"/>
      <point x="276" y="139"/>
      <point x="231" y="155"/>
      <point x="231" y="185" type="curve" smooth="yes"/>
      <point x="231" y="228"/>
      <point x="293" y="240"/>
      <point x="437" y="240" type="curve" smooth="yes"/>
      <point x="543" y="240" type="line"/>
      <point x="543" y="218" type="line" smooth="yes"/>
      <point x="543" y="164"/>
      <point x="452" y="139"/>
    </contour>
  </outline>
</glyph>
<glyph name="b" format="2">
  <advance width="800"/>
  <unicode hex="0062"/>
  <anchor x="400" y="0" name="bottom"/>
  <anchor x="400" y="760" name="top"/>
  <anchor x="802" y="760" name="topright"/>
  <outline>
    <contour>
      <point x="472" y="-10" type="curve" smooth="yes"/>
      <point x="674" y="-10"/>
      <point x="772" y="142"/>
      <point x="772" y="281" type="curve" smooth="yes"/>
      <point x="772" y="413"/>
      <point x="678" y="567"/>
      <point x="478" y="567" type="curve" smooth="yes"/>
      <point x="378" y="567"/>
      <point x="300" y="546"/>
      <point x="251" y="483" type="curve"/>
      <point x="243" y="483" type="line"/>
      <point x="249" y="543"/>
      <point x="251" y="580"/>
      <point x="251" y="589" type="curve" smooth="yes"/>
      <point x="251" y="760" type="line"/>
      <point x="56" y="760" type="line"/>
      <point x="56" y="0" type="line"/>
      <point x="207" y="0" type="line"/>
      <point x="237" y="53" type="line"/>
      <point x="251" y="53" type="line"/>
      <point x="304" y="3"/>
      <point x="381" y="-10"/>
    </contour>
    <contour>
      <point x="410" y="145" type="curve" smooth="yes"/>
      <point x="308" y="145"/>
      <point x="251" y="173"/>
      <point x="251" y="280" type="curve" smooth="yes"/>
      <point x="251" y="382"/>
      <point x="309" y="411"/>
      <point x="410" y="411" type="curve" smooth="yes"/>
      <point x="520" y="411"/>
      <point x="571" y="372"/>
      <point x="571" y="281" type="curve" smooth="yes"/>
      <point x="571" y="185"/>
      <point x="517" y="145"/>
    </contour>
  </outline>
</glyph>
<glyph name="c" format="2">
  <advance width="800"/>
  <unicode hex="0063"/>
  <anchor x="444" y="0" name="bottom"/>
  <anchor x="428" y="557" name="top"/>
  <anchor x="801" y="557" name="topright"/>
  <outline>
    <contour>
      <point x="445" y="-10" type="curve" smooth="yes"/>
      <point x="532" y="-10"/>
      <point x="622" y="2"/>
      <point x="693" y="35" type="curve"/>
      <point x="693" y="199" type="line"/>
      <point x="622" y="153"/>
      <point x="541" y="144"/>
      <point x="473" y="144" type="curve" smooth="yes"/>
      <point x="346" y="144"/>
      <point x="268" y="182"/>
      <point x="268" y="283" type="curve" smooth="yes"/>
      <point x="268" y="368"/>
      <point x="332" y="412"/>
      <point x="470" y="412" type="curve" smooth="yes"/>
      <point x="528" y="412"/>
      <point x="578" y="407"/>
      <point x="655" y="382" type="curve"/>
      <point x="714" y="522" type="line"/>
      <point x="637" y="553"/>
      <point x="551" y="567"/>
      <point x="457" y="567" type="curve" smooth="yes"/>
      <point x="206" y="567"/>
      <point x="71" y="444"/>
      <point x="71" y="271" type="curve" smooth="yes"/>
      <point x="71" y="91"/>
      <point x="202" y="-10"/>
    </contour>
  </outline>
</glyph>
<glyph name="d" format="2">
  <advance width="800"/>
  <unicode hex="0064"/>
  <anchor x="400" y="0" name="bottom"/>
  <anchor x="400" y="279" name="center"/>
  <anchor x="400" y="760" name="top"/>
  <anchor x="801" y="760" name="topright"/>
  <outline>
    <contour>
      <point x="323" y="-10" type="curve" smooth="yes"/>
      <point x="421" y="-10"/>
      <point x="497" y="11"/>
      <point x="548" y="70" type="curve"/>
      <point x="557" y="70" type="line"/>
      <point x="592" y="0" type="line"/>
      <point x="744" y="0" type="line"/>
      <point x="744" y="760" type="line"/>
      <point x="548" y="760" type="line"/>
      <point x="548" y="619" type="line" smooth="yes"/>
      <point x="548" y="578"/>
      <point x="551" y="557"/>
      <point x="562" y="483" type="curve"/>
      <point x="555" y="483" type="line"/>
      <point x="507" y="546"/>
      <point x="431" y="567"/>
      <point x="336" y="567" type="curve" smooth="yes"/>
      <point x="123" y="567"/>
      <point x="28" y="426"/>
      <point x="28" y="277" type="curve" smooth="yes"/>
      <point x="28" y="141"/>
      <point x="121" y="-10"/>
    </contour>
    <contour>
      <point x="395" y="145" type="curve" smooth="yes"/>
      <point x="288" y="145"/>
      <point x="230" y="181"/>
      <point x="230" y="274" type="curve" smooth="yes"/>
      <point x="230" y="360"/>
      <point x="291" y="411"/>
      <point x="400" y="411" type="curve" smooth="yes"/>
      <point x="524" y="411"/>
      <point x="560" y="358"/>
      <point x="560" y="274" type="curve" smooth="yes"/>
      <point x="560" y="262" type="line" smooth="yes"/>
      <point x="560" y="194"/>
      <point x="512" y="145"/>
    </contour>
  </outline>
</glyph>
<glyph name="e" format="2">
  <advance width="800"/>
  <unicode hex="0065"/>
  <anchor x="414" y="0" name="bottom"/>
  <anchor x="407" y="10" name="ogonek"/>
  <anchor x="406" y="557" name="top"/>
  <anchor x="801" y="557" name="topright"/>
  <outline>
    <contour>
      <point x="452" y="-10" type="curve" smooth="yes"/>
      <point x="533" y="-10"/>
      <point x="635" y="-1"/>
      <point x="727" y="30" type="curve"/>
      <point x="727" y="184" type="line"/>
      <point x="649" y="151"/>
      <point x="562" y="137"/>
      <point x="477" y="137" type="curve" smooth="yes"/>
      <point x="336" y="137"/>
      <point x="237" y="166"/>
      <point x="230" y="216" type="curve"/>
      <point x="759" y="216" type="line"/>
      <point x="759" y="299" type="line" smooth="yes"/>
      <point x="759" y="464"/>
      <point x="632" y="567"/>
      <point x="413" y="567" type="curve" smooth="yes"/>
      <point x="176" y="567"/>
      <point x="39" y="453"/>
      <point x="39" y="279" type="curve" smooth="yes"/>
      <point x="39" y="97"/>
      <point x="185" y="-10"/>
    </contour>
    <contour>
      <point x="234" y="343" type="line"/>
      <point x="246" y="391"/>
      <point x="307" y="429"/>
      <point x="412" y="429" type="curve" smooth="yes"/>
      <point x="511" y="429"/>
      <point x="570" y="395"/>
      <point x="573" y="343" type="curve"/>
    </contour>
  </outline>
</glyph>
<glyph name="g" format="2">
  <advance width="800"/>
  <unicode hex="0067"/>
  <anchor x="400" y="-245" name="bottom"/>
  <anchor x="400" y="557" name="top"/>
  <anchor x="801" y="557" name="topright"/>
  <outline>
    <contour>
      <point x="344" y="-245" type="curve" smooth="yes"/>
      <point x="625" y="-245"/>
      <point x="744" y="-150"/>
      <point x="744" y="34" type="curve" smooth="yes"/>
      <point x="744" y="556" type="line"/>
      <point x="597" y="556" type="line"/>
      <point x="557" y="485" type="line"/>
      <point x="551" y="485" type="line"/>
      <point x="495" y="540"/>
      <point x="426" y="567"/>
      <point x="331" y="567" type="curve" smooth="yes"/>
      <point x="149" y="567"/>
      <point x="28" y="472"/>
      <point x="28" y="277" type="curve" smooth="yes"/>
      <point x="28" y="94"/>
      <point x="141" y="-10"/>
      <point x="336" y="-10" type="curve" smooth="yes"/>
      <point x="427" y="-10"/>
      <point x="496" y="6"/>
      <point x="551" y="68" type="curve"/>
      <point x="557" y="68" type="line"/>
      <point x="555" y="47"/>
      <point x="555" y="30"/>
      <point x="555" y="3" type="curve" smooth="yes"/>
      <point x="555" y="1" type="line" smooth="yes"/>
      <point x="555" y="-69"/>
      <point x="489" y="-92"/>
      <point x="342" y="-92" type="curve" smooth="yes"/>
      <point x="261" y="-92"/>
      <point x="167" y="-82"/>
      <point x="72" y="-55" type="curve"/>
      <point x="72" y="-216" type="line"/>
      <point x="162" y="-241"/>
      <point x="254" y="-245"/>
    </contour>
    <contour>
      <point x="399" y="145" type="curve" smooth="yes"/>
      <point x="280" y="145"/>
      <point x="227" y="196"/>
      <point x="227" y="273" type="curve" smooth="yes"/>
      <point x="227" y="369"/>
      <point x="282" y="411"/>
      <point x="396" y="411" type="curve" smooth="yes"/>
      <point x="508" y="411"/>
      <point x="563" y="361"/>
      <point x="563" y="274" type="curve" smooth="yes"/>
      <point x="563" y="259" type="line" smooth="yes"/>
      <point x="563" y="189"/>
      <point x="507" y="145"/>
    </contour>
  </outline>
</glyph>
<glyph name="h" format="2">
  <advance width="800"/>
  <unicode hex="0068"/>
  <anchor x="400" y="0" name="bottom"/>
  <anchor x="400" y="279" name="center"/>
  <anchor x="155" y="760" name="top"/>
  <anchor x="802" y="760" name="topright"/>
  <outline>
    <contour>
      <point x="56" y="0" type="line"/>
      <point x="256" y="0" type="line"/>
      <point x="256" y="233" type="line" smooth="yes"/>
      <point x="256" y="377"/>
      <point x="314" y="411"/>
      <point x="417" y="411" type="curve" smooth="yes"/>
      <point x="512" y="411"/>
      <point x="552" y="368"/>
      <point x="552" y="294" type="curve" smooth="yes"/>
      <point x="552" y="0" type="line"/>
      <point x="752" y="0" type="line"/>
      <point x="752" y="361" type="line" smooth="yes"/>
      <point x="752" y="483"/>
      <point x="657" y="567"/>
      <point x="484" y="567" type="curve" smooth="yes"/>
      <point x="381" y="567"/>
      <point x="307" y="542"/>
      <point x="257" y="490" type="curve"/>
      <point x="246" y="490" type="line"/>
      <point x="249" y="551"/>
      <point x="256" y="606"/>
      <point x="256" y="667" type="curve" smooth="yes"/>
      <point x="256" y="760" type="line"/>
      <point x="56" y="760" type="line"/>
    </contour>
  </outline>
</glyph>
<glyph name="j" format="2">
  <advance width="800"/>
  <unicode hex="006A"/>
  <anchor x="290" y="-245" name="bottom"/>
  <anchor x="457" y="781" name="top"/>
  <anchor x="801" y="781" name="topright"/>
  <outline>
    <contour>
      <point x="258" y="-245" type="curve" smooth="yes"/>
      <point x="481" y="-245"/>
      <point x="580" y="-166"/>
      <point x="580" y="-3" type="curve" smooth="yes"/>
      <point x="580" y="557" type="line"/>
      <point x="133" y="557" type="line"/>
      <point x="133" y="415" type="line"/>
      <point x="380" y="402" type="line"/>
      <point x="380" y="42" type="line" smooth="yes"/>
      <point x="380" y="-61"/>
      <point x="342" y="-87"/>
      <point x="222" y="-87" type="curve" smooth="yes"/>
      <point x="171" y="-87"/>
      <point x="97" y="-83"/>
      <point x="31" y="-68" type="curve"/>
      <point x="31" y="-218" type="line"/>
      <point x="102" y="-238"/>
      <point x="188" y="-245"/>
    </contour>
    <contour>
      <point x="467" y="594" type="curve" smooth="yes"/>
      <point x="546" y="594"/>
      <point x="590" y="631"/>
      <point x="590" y="688" type="curve" smooth="yes"/>
      <point x="590" y="747"/>
      <point x="546" y="781"/>
      <point x="467" y="781" type="curve" smooth="yes"/>
      <point x="386" y="781"/>
      <point x="342" y="748"/>
      <point x="342" y="688" type="curve" smooth="yes"/>
      <point x="342" y="626"/>
      <point x="389" y="594"/>
    </contour>
  </outline>
</glyph>
<glyph name="l" format="2">
  <advance width="800"/>
  <unicode hex="006C"/>
  <anchor x="428" y="0" name="bottom"/>
  <anchor x="428" y="391" name="center"/>
  <anchor x="399" y="760" name="top"/>
  <anchor x="688" y="760" name="topright"/>
  <outline>
    <contour>
      <point x="51" y="0" type="line"/>
      <point x="760" y="0" type="line"/>
      <point x="760" y="136" type="line"/>
      <point x="523" y="154" type="line"/>
      <point x="523" y="760" type="line"/>
      <point x="87" y="760" type="line"/>
      <point x="87" y="619" type="line"/>
      <point x="324" y="606" type="line"/>
      <point x="324" y="154" type="line"/>
      <point x="51" y="136" type="line"/>
    </contour>
  </outline>
</glyph>
<glyph name="m" format="2">
  <advance width="800"/>
  <unicode hex="006D"/>
  <anchor x="410" y="0" name="bottom"/>
  <anchor x="447" y="557" name="top"/>
  <anchor x="801" y="557" name="topright"/>
  <outline>
    <contour>
      <point x="17" y="0" type="line"/>
      <point x="187" y="0" type="line"/>
      <point x="187" y="374" type="line" smooth="yes"/>
      <point x="187" y="392"/>
      <point x="203" y="412"/>
      <point x="258" y="412" type="curve" smooth="yes"/>
      <point x="305" y="412"/>
      <point x="318" y="402"/>
      <point x="318" y="359" type="curve" smooth="yes"/>
      <point x="318" y="0" type="line"/>
      <point x="484" y="0" type="line"/>
      <point x="484" y="373" type="line" smooth="yes"/>
      <point x="484" y="390"/>
      <point x="504" y="412"/>
      <point x="557" y="412" type="curve" smooth="yes"/>
      <point x="604" y="412"/>
      <point x="614" y="402"/>
      <point x="614" y="359" type="curve" smooth="yes"/>
      <point x="614" y="0" type="line"/>
      <point x="784" y="0" type="line"/>
      <point x="784" y="360" type="line" smooth="yes"/>
      <point x="784" y="484"/>
      <point x="759" y="567"/>
      <point x="636" y="567" type="curve" smooth="yes"/>
      <point x="553" y="567"/>
      <point x="512" y="528"/>
      <point x="476" y="469" type="curve"/>
      <point x="470" y="469" type="line"/>
      <point x="454" y="527"/>
      <point x="417" y="567"/>
      <point x="332" y="567" type="curve" smooth="yes"/>
      <point x="261" y="567"/>
      <point x="217" y="536"/>
      <point x="186" y="482" type="curve"/>
      <point x="175" y="482" type="line"/>
      <point x="153" y="557" type="line"/>
      <point x="17" y="557" type="line"/>
    </contour>
  </outline>
</glyph>
<glyph name="n" format="2">
  <advance width="800"/>
  <unicode hex="006E"/>
  <anchor x="410" y="0" name="bottom"/>
  <anchor x="419" y="557" name="top"/>
  <anchor x="802" y="557" name="topright"/>
  <outline>
    <contour>
      <point x="56" y="0" type="line"/>
      <point x="256" y="0" type="line"/>
      <point x="256" y="234" type="line" smooth="yes"/>
      <point x="256" y="346"/>
      <point x="297" y="411"/>
      <point x="421" y="411" type="curve" smooth="yes"/>
      <point x="512" y="411"/>
      <point x="552" y="378"/>
      <point x="552" y="292" type="curve" smooth="yes"/>
      <point x="552" y="0" type="line"/>
      <point x="752" y="0" type="line"/>
      <point x="752" y="359" type="line" smooth="yes"/>
      <point x="752" y="488"/>
      <point x="660" y="567"/>
      <point x="489" y="567" type="curve" smooth="yes"/>
      <point x="374" y="567"/>
      <point x="292" y="538"/>
      <point x="246" y="489" type="curve"/>
      <point x="234" y="489" type="line"/>
      <point x="207" y="557" type="line"/>
      <point x="56" y="557" type="line"/>
    </contour>
  </outline>
</glyph>
<glyph name="o" format="2">
  <advance width="800"/>
  <unicode hex="006F"/>
  <anchor x="400" y="0" name="bottom"/>
  <anchor x="400" y="279" name="center"/>
  <anchor x="401" y="10" name="ogonek"/>
  <anchor x="400" y="557" name="top"/>
  <anchor x="801" y="557" name="topright"/>
  <outline>
    <contour>
      <point x="405" y="-10" type="curve" smooth="yes"/>
      <point x="637" y="-10"/>
      <point x="772" y="108"/>
      <point x="772" y="269" type="curve" smooth="yes"/>
      <point x="772" y="446"/>
      <point x="623" y="567"/>
      <point x="394" y="567" type="curve" smooth="yes"/>
      <point x="161" y="567"/>
      <point x="28" y="443"/>
      <point x="28" y="283" type="curve" smooth="yes"/>
      <point x="28" y="114"/>
      <point x="170" y="-10"/>
    </contour>
    <contour>
      <point x="400" y="145" type="curve" smooth="yes"/>
      <point x="280" y="145"/>
      <point x="223" y="197"/>
      <point x="223" y="276" type="curve" smooth="yes"/>
      <point x="223" y="350"/>
      <point x="277" y="411"/>
      <point x="399" y="411" type="curve" smooth="yes"/>
      <point x="520" y="411"/>
      <point x="577" y="356"/>
      <point x="577" y="276" type="curve" smooth="yes"/>
      <point x="577" y="199"/>
      <point x="521" y="145"/>
    </contour>
  </outline>
</glyph>
<glyph name="r" format="2">
  <advance width="800"/>
  <unicode hex="0072"/>
  <anchor x="357" y="0" name="bottom"/>
  <anchor x="435" y="557" name="top"/>
  <anchor x="801" y="557" name="topright"/>
  <outline>
    <contour>
      <point x="32" y="0" type="line"/>
      <point x="661" y="0" type="line"/>
      <point x="661" y="138" type="line"/>
      <point x="439" y="154" type="line"/>
      <point x="439" y="241" type="line" smooth="yes"/>
      <point x="439" y="345"/>
      <point x="518" y="382"/>
      <point x="632" y="382" type="curve" smooth="yes"/>
      <point x="669" y="382"/>
      <point x="720" y="379"/>
      <point x="753" y="369" type="curve"/>
      <point x="801" y="553" type="line"/>
      <point x="740" y="569"/>
      <point x="689" y="567"/>
      <point x="647" y="567" type="curve" smooth="yes"/>
      <point x="541" y="567"/>
      <point x="474" y="523"/>
      <point x="433" y="469" type="curve"/>
      <point x="424" y="469" type="line"/>
      <point x="394" y="557" type="line"/>
      <point x="61" y="557" type="line"/>
      <point x="61" y="417" type="line"/>
      <point x="251" y="402" type="line"/>
      <point x="251" y="154" type="line"/>
      <point x="32" y="138" type="line"/>
    </contour>
  </outline>
</glyph>
<glyph name="u" format="2">
  <advance width="800"/>
  <unicode hex="0075"/>
  <anchor x="399" y="0" name="bottom"/>
  <anchor x="743" y="10" name="ogonek"/>
  <anchor x="399" y="557" name="top"/>
  <anchor x="801" y="557" name="topright"/>
  <outline>
    <contour>
      <point x="315" y="-11" type="curve" smooth="yes"/>
      <point x="426" y="-11"/>
      <point x="503" y="18"/>
      <point x="554" y="68" type="curve"/>
      <point x="566" y="68" type="line"/>
      <point x="592" y="0" type="line"/>
      <point x="744" y="0" type="line"/>
      <point x="744" y="557" type="line"/>
      <point x="544" y="557" type="line"/>
      <point x="544" y="280" type="line" smooth="yes"/>
      <point x="544" y="208"/>
      <point x="513" y="145"/>
      <point x="384" y="145" type="curve" smooth="yes"/>
      <point x="284" y="145"/>
      <point x="248" y="184"/>
      <point x="248" y="259" type="curve" smooth="yes"/>
      <point x="248" y="557" type="line"/>
      <point x="48" y="557" type="line"/>
      <point x="48" y="196" type="line" smooth="yes"/>
      <point x="48" y="66"/>
      <point x="130" y="-11"/>
    </contour>
  </outline>
</glyph>
<glyph name="v" format="2">
  <advance width="800"/>
  <unicode hex="0076"/>
  <anchor x="399" y="0" name="bottom"/>
  <anchor x="399" y="557" name="top"/>
  <anchor x="801" y="557" name="topright"/>
  <outline>
    <contour>
      <point x="284" y="0" type="line"/>
      <point x="508" y="0" type="line"/>
      <point x="793" y="557" type="line"/>
      <point x="584" y="557" type="line"/>
      <point x="448" y="241" type="line" smooth="yes"/>
      <point x="431" y="203"/>
      <point x="417" y="200"/>
      <point x="401" y="169" type="curve"/>
      <point x="397" y="169" type="line"/>
      <point x="381" y="200"/>
      <point x="367" y="203"/>
      <point x="351" y="241" type="curve" smooth="yes"/>
      <point x="214" y="557" type="line"/>
      <point x="5" y="557" type="line"/>
    </contour>
  </outline>
</glyph>
<glyph name="x" format="2">
  <advance width="800"/>
  <unicode hex="0078"/>
  <anchor x="399" y="0" name="bottom"/>
  <anchor x="399" y="557" name="top"/>
  <anchor x="801" y="557" name="topright"/>
  <outline>
    <contour>
      <point x="5" y="0" type="line"/>
      <point x="234" y="0" type="line"/>
      <point x="396" y="147" type="line"/>
      <point x="565" y="0" type="line"/>
      <point x="793" y="0" type="line"/>
      <point x="527" y="283" type="line"/>
      <point x="781" y="557" type="line"/>
      <point x="554" y="557" type="line"/>
      <point x="398" y="419" type="line"/>
      <point x="245" y="557" type="line"/>
      <point x="18" y="557" type="line"/>
      <point x="267" y="284" type="line"/>
    </contour>
  </outline>
</glyph>
<glyph name="y" format="2">
  <advance width="800"/>
  <unicode hex="0079"/>
  <anchor x="399" y="-245" name="bottom"/>
  <anchor x="399" y="557" name="top"/>
  <anchor x="801" y="557" name="topright"/>
  <outline>
    <contour>
      <point x="155" y="-245" type="curve" smooth="yes"/>
      <point x="338" y="-245"/>
      <point x="422" y="-180"/>
      <point x="486" y="-53" type="curve" smooth="yes"/>
      <point x="793" y="557" type="line"/>
      <point x="590" y="557" type="line"/>
      <point x="459" y="274" type="line" smooth="yes"/>
      <point x="453" y="262"/>
      <point x="433" y="223"/>
      <point x="420" y="191" type="curve"/>
      <point x="416" y="191" type="line"/>
      <point x="402" y="230"/>
      <point x="383" y="249"/>
      <point x="371" y="273" type="curve" smooth="yes"/>
      <point x="214" y="557" type="line"/>
      <point x="5" y="557" type="line"/>
      <point x="327" y="10" type="line"/>
      <point x="302" y="-18" type="line" smooth="yes"/>
      <point x="262" y="-63"/>
      <point x="216" y="-96"/>
      <point x="129" y="-96" type="curve" smooth="yes"/>
      <point x="103" y="-96"/>
      <point x="73" y="-94"/>
      <point x="48" y="-90" type="curve"/>
      <point x="48" y="-237" type="line"/>
      <point x="83" y="-243"/>
      <point x="119" y="-245"/>
    </contour>
  </outline>
</glyph>
<glyph name="z" format="2">
  <advance width="800"/>
  <unicode hex="007A"/>
  <anchor x="412" y="0" name="bottom"/>
  <anchor x="412" y="557" name="top"/>
  <anchor x="801" y="557" name="topright"/>
  <outline>
    <contour>
      <point x="70" y="0" type="line"/>
      <point x="730" y="0" type="line"/>
      <point x="730" y="152" type="line"/>
      <point x="319" y="152" type="line"/>
      <point x="718" y="436" type="line"/>
      <point x="718" y="557" type="line"/>
      <point x="92" y="557" type="line"/>
      <point x="92" y="404" type="line"/>
      <point x="481" y="404" type="line"/>
      <point x="70" y="112" type="line"/>
    </contour>
  </outline>
</glyph>
<glyph name="asciitilde" format="2">
  <advance width="800"/>
  <unicode hex="007E"/>
  <outline>
    <contour>
      <point x="75" y="250" type="line"/>
      <point x="123" y="287"/>
      <point x="181" y="309"/>
      <point x="233" y="309" type="curve" smooth="yes"/>
      <point x="274" y="309"/>
      <point x="314" y="303"/>
      <point x="375" y="283" type="curve" smooth="yes"/>
      <point x="450" y="258"/>
      <point x="497" y="252"/>
      <point x="550" y="252" type="curve" smooth="yes"/>
      <point x="620" y="252"/>
      <point x="678" y="269"/>
      <point x="724" y="304" type="curve"/>
      <point x="724" y="455" type="line"/>
      <point x="677" y="419"/>
      <point x="616" y="396"/>
      <point x="565" y="396" type="curve" smooth="yes"/>
      <point x="525" y="396"/>
      <point x="484" y="403"/>
      <point x="424" y="422" type="curve" smooth="yes"/>
      <point x="350" y="445"/>
      <point x="303" y="453"/>
      <point x="249" y="453" type="curve" smooth="yes"/>
      <point x="178" y="453"/>
      <point x="121" y="435"/>
      <point x="75" y="400" type="curve"/>
    </contour>
  </outline>
</glyph>
<glyph name="cent" format="2">
  <advance width="800"/>
  <unicode hex="00A2"/>
  <outline>
    <contour>
      <point x="391" y="-10" type="line"/>
      <point x="510" y="-10" type="line"/>
      <point x="510" y="78" type="line"/>
      <point x="589" y="85"/>
      <point x="666" y="104"/>
      <point x="715" y="128" type="curve"/>
      <point x="715" y="288" type="line"/>
      <point x="654" y="254"/>
      <point x="565" y="235"/>
      <point x="482" y="235" type="curve" smooth="yes"/>
      <point x="344" y="235"/>
      <point x="264" y="268"/>
      <point x="264" y="362" type="curve" smooth="yes"/>
      <point x="264" y="457"/>
      <point x="346" y="492"/>
      <point x="485" y="492" type="curve" smooth="yes"/>
      <point x="550" y="492"/>
      <point x="625" y="481"/>
      <point x="678" y="458" type="curve"/>
      <point x="734" y="606" type="line"/>
      <point x="681" y="631"/>
      <point x="590" y="646"/>
      <point x="510" y="650" type="curve"/>
      <point x="510" y="724" type="line"/>
      <point x="391" y="724" type="line"/>
      <point x="391" y="645" type="line"/>
      <point x="192" y="626"/>
      <point x="68" y="521"/>
      <point x="67" y="361" type="curve" smooth="yes"/>
      <point x="66" y="198"/>
      <point x="186" y="95"/>
      <point x="391" y="79" type="curve"/>
    </contour>
  </outline>
</glyph>
<glyph name="sterling" format="2">
  <advance width="800"/>
  <unicode hex="00A3"/>
  <outline>
    <contour>
      <point x="82" y="0" type="line"/>
      <point x="742" y="0" type="line"/>
      <point x="742" y="169" type="line"/>
      <point x="299" y="169" type="line"/>
      <point x="357" y="190"/>
      <point x="405" y="217"/>
      <point x="405" y="275" type="curve" smooth="yes"/>
      <point x="405" y="303" type="line"/>
      <point x="635" y="303" type="line"/>
      <point x="635" y="446" type="line"/>
      <point x="405" y="446" type="line"/>
      <point x="405" y="503" type="line" smooth="yes"/>
      <point x="405" y="545"/>
      <point x="448" y="558"/>
      <point x="532" y="558" type="curve" smooth="yes"/>
      <point x="582" y="558"/>
      <point x="623" y="550"/>
      <point x="679" y="532" type="curve"/>
      <point x="737" y="686" type="line"/>
      <point x="669" y="710"/>
      <point x="597" y="725"/>
      <point x="507" y="725" type="curve" smooth="yes"/>
      <point x="327" y="725"/>
      <point x="206" y="655"/>
      <point x="206" y="505" type="curve" smooth="yes"/>
      <point x="206" y="446" type="line"/>
      <point x="92" y="446" type="line"/>
      <point x="92" y="303" type="line"/>
      <point x="206" y="303" type="line"/>
      <point x="206" y="274" type="line" smooth="yes"/>
      <point x="206" y="212"/>
      <point x="161" y="197"/>
      <point x="82" y="163" type="curve"/>
    </contour>
  </outline>
</glyph>
<glyph name="currency" format="2">
  <advance width="800"/>
  <unicode hex="00A4"/>
  <outline>
    <contour>
      <point x="644" y="130" type="line"/>
      <point x="744" y="223" type="line"/>
      <point x="652" y="287" type="line"/>
      <point x="679" y="317"/>
      <point x="694" y="347"/>
      <point x="694" y="383" type="curve" smooth="yes"/>
      <point x="694" y="418"/>
      <point x="678" y="452"/>
      <point x="652" y="480" type="curve"/>
      <point x="747" y="546" type="line"/>
      <point x="644" y="638" type="line"/>
      <point x="549" y="570" type="line"/>
      <point x="503" y="587"/>
      <point x="454" y="594"/>
      <point x="399" y="594" type="curve" smooth="yes"/>
      <point x="346" y="594"/>
      <point x="293" y="587"/>
      <point x="249" y="573" type="curve"/>
      <point x="155" y="638" type="line"/>
      <point x="53" y="542" type="line"/>
      <point x="148" y="479" type="line"/>
      <point x="122" y="447"/>
      <point x="107" y="416"/>
      <point x="107" y="383" type="curve" smooth="yes"/>
      <point x="107" y="349"/>
      <point x="121" y="318"/>
      <point x="148" y="288" type="curve"/>
      <point x="54" y="224" type="line"/>
      <point x="155" y="131" type="line"/>
      <point x="248" y="192" type="line"/>
      <point x="290" y="179"/>
      <point x="343" y="173"/>
      <point x="399" y="173" type="curve" smooth="yes"/>
      <point x="453" y="173"/>
      <point x="504" y="180"/>
      <point x="549" y="195" type="curve"/>
    </contour>
    <contour>
      <point x="399" y="308" type="curve" smooth="yes"/>
      <point x="311" y="308"/>
      <point x="249" y="343"/>
      <point x="249" y="383" type="curve" smooth="yes"/>
      <point x="249" y="423"/>
      <point x="313" y="460"/>
      <point x="399" y="460" type="curve" smooth="yes"/>
      <point x="487" y="460"/>
      <point x="552" y="423"/>
      <point x="552" y="383" type="curve" smooth="yes"/>
      <point x="552" y="343"/>
      <point x="488" y="308"/>
    </contour>
  </outline>
</glyph>
<glyph name="yen" format="2">
  <advance width="800"/>
  <unicode hex="00A5"/>
  <outline>
    <contour>
      <point x="303" y="0" type="line"/>
      <point x="497" y="0" type="line"/>
      <point x="497" y="92" type="line"/>
      <point x="699" y="92" type="line"/>
      <point x="699" y="203" type="line"/>
      <point x="497" y="203" type="line"/>
      <point x="497" y="262" type="line"/>
      <point x="699" y="262" type="line"/>
      <point x="699" y="373" type="line"/>
      <point x="533" y="373" type="line"/>
      <point x="797" y="714" type="line"/>
      <point x="587" y="714" type="line"/>
      <point x="401" y="492" type="line"/>
      <point x="214" y="714" type="line"/>
      <point x="4" y="714" type="line"/>
      <point x="263" y="373" type="line"/>
      <point x="101" y="373" type="line"/>
      <point x="101" y="262" type="line"/>
      <point x="303" y="262" type="line"/>
      <point x="303" y="203" type="line"/>
      <point x="101" y="203" type="line"/>
      <point x="101" y="92" type="line"/>
      <point x="303" y="92" type="line"/>
    </contour>
  </outline>
</glyph>
<glyph name="brokenbar" format="2">
  <advance width="800"/>
  <unicode hex="00A6"/>
  <outline>
    <contour>
      <point x="321" y="351" type="line"/>
      <point x="478" y="351" type="line"/>
      <point x="478" y="759" type="line"/>
      <point x="321" y="759" type="line"/>
    </contour>
    <contour>
      <point x="321" y="-220" type="line"/>
      <point x="478" y="-220" type="line"/>
      <point x="478" y="188" type="line"/>
      <point x="321" y="188" type="line"/>
    </contour>
  </outline>
</glyph>
<glyph name="section" format="2">
  <advance width="800"/>
  <unicode hex="00A7"/>
  <outline>
    <contour>
      <point x="366" y="-10" type="curve" smooth="yes"/>
      <point x="565" y="-10"/>
      <point x="679" y="59"/>
      <point x="679" y="153" type="curve" smooth="yes"/>
      <point x="679" y="199"/>
      <point x="643" y="237"/>
      <point x="581" y="264" type="curve"/>
      <point x="643" y="297"/>
      <point x="691" y="331"/>
      <point x="691" y="387" type="curve" smooth="yes"/>
      <point x="691" y="458"/>
      <point x="613" y="507"/>
      <point x="455" y="550" type="curve" smooth="yes"/>
      <point x="344" y="581"/>
      <point x="306" y="594"/>
      <point x="306" y="616" type="curve" smooth="yes"/>
      <point x="306" y="637"/>
      <point x="339" y="646"/>
      <point x="416" y="646" type="curve" smooth="yes"/>
      <point x="488" y="646"/>
      <point x="554" y="627"/>
      <point x="618" y="601" type="curve"/>
      <point x="674" y="721" type="line"/>
      <point x="600" y="749"/>
      <point x="517" y="765"/>
      <point x="415" y="765" type="curve" smooth="yes"/>
      <point x="233" y="765"/>
      <point x="126" y="706"/>
      <point x="126" y="618" type="curve" smooth="yes"/>
      <point x="126" y="571"/>
      <point x="163" y="532"/>
      <point x="233" y="498" type="curve"/>
      <point x="169" y="470"/>
      <point x="115" y="429"/>
      <point x="115" y="384" type="curve" smooth="yes"/>
      <point x="115" y="296"/>
      <point x="200" y="253"/>
      <point x="354" y="207" type="curve" smooth="yes"/>
      <point x="477" y="171"/>
      <point x="501" y="171"/>
      <point x="501" y="148" type="curve" smooth="yes"/>
      <point x="501" y="122"/>
      <point x="463" y="110"/>
      <point x="365" y="110" type="curve" smooth="yes"/>
      <point x="290" y="110"/>
      <point x="185" y="134"/>
      <point x="114" y="165" type="curve"/>
      <point x="114" y="35" type="line"/>
      <point x="180" y="4"/>
      <point x="264" y="-10"/>
    </contour>
    <contour>
      <point x="466" y="318" type="curve"/>
      <point x="434" y="328" type="line" smooth="yes"/>
      <point x="325" y="361"/>
      <point x="280" y="376"/>
      <point x="280" y="403" type="curve" smooth="yes"/>
      <point x="280" y="424"/>
      <point x="313" y="436"/>
      <point x="350" y="446" type="curve"/>
      <point x="482" y="421"/>
      <point x="524" y="398"/>
      <point x="524" y="361" type="curve" smooth="yes"/>
      <point x="524" y="343"/>
      <point x="494" y="329"/>
    </contour>
  </outline>
</glyph>
<glyph name="dieresis" format="2">
  <advance width="800"/>
  <unicode hex="00A8"/>
  <anchor x="400" y="557" name="_top"/>
  <anchor x="400" y="667" name="top"/>
  <outline>
    <contour>
      <point x="572" y="605" type="curve" smooth="yes"/>
      <point x="630" y="605"/>
      <point x="675" y="636"/>
      <point x="675" y="692" type="curve" smooth="yes"/>
      <point x="675" y="750"/>
      <point x="630" y="782"/>
      <point x="572" y="782" type="curve" smooth="yes"/>
      <point x="513" y="782"/>
      <point x="468" y="751"/>
      <point x="468" y="692" type="curve" smooth="yes"/>
      <point x="468" y="636"/>
      <point x="512" y="605"/>
    </contour>
    <contour>
      <point x="229" y="605" type="curve" smooth="yes"/>
      <point x="287" y="605"/>
      <point x="334" y="636"/>
      <point x="334" y="692" type="curve" smooth="yes"/>
      <point x="334" y="750"/>
      <point x="287" y="782"/>
      <point x="229" y="782" type="curve" smooth="yes"/>
      <point x="171" y="782"/>
      <point x="127" y="751"/>
      <point x="127" y="692" type="curve" smooth="yes"/>
      <point x="127" y="635"/>
      <point x="171" y="605"/>
    </contour>
  </outline>
</glyph>
<glyph name="logicalnot" format="2">
  <advance width="800"/>
  <unicode hex="00AC"/>
  <outline>
    <contour>
      <point x="563" y="113" type="line"/>
      <point x="716" y="113" type="line"/>
      <point x="716" y="425" type="line"/>
      <point x="69" y="425" type="line"/>
      <point x="69" y="280" type="line"/>
      <point x="563" y="280" type="line"/>
    </contour>
  </outline>
</glyph>
<glyph name="degree" format="2">
  <advance width="800"/>
  <unicode hex="00B0"/>
  <outline>
    <contour>
      <point x="401" y="382" type="curve" smooth="yes"/>
      <point x="532" y="382"/>
      <point x="632" y="453"/>
      <point x="632" y="554" type="curve" smooth="yes"/>
      <point x="632" y="654"/>
      <point x="529" y="724"/>
      <point x="401" y="724" type="curve" smooth="yes"/>
      <point x="271" y="724"/>
      <point x="169" y="654"/>
      <point x="169" y="554" type="curve" smooth="yes"/>
      <point x="169" y="452"/>
      <point x="266" y="382"/>
    </contour>
    <contour>
      <point x="402" y="497" type="curve" smooth="yes"/>
      <point x="342" y="497"/>
      <point x="294" y="520"/>
      <point x="294" y="554" type="curve" smooth="yes"/>
      <point x="294" y="590"/>
      <point x="341" y="610"/>
      <point x="402" y="610" type="curve" smooth="yes"/>
      <point x="461" y="610"/>
      <point x="508" y="590"/>
      <point x="508" y="554" type="curve" smooth="yes"/>
      <point x="508" y="525"/>
      <point x="465" y="497"/>
    </contour>
  </outline>
</glyph>
<glyph name="threesuperior" format="2">
  <advance width="800"/>
  <unicode hex="00B3"/>
  <outline>
    <contour>
      <point x="378" y="408" type="curve" smooth="yes"/>
      <point x="529" y="408"/>
      <point x="616" y="451"/>
      <point x="616" y="531" type="curve" smooth="yes"/>
      <point x="616" y="587"/>
      <point x="575" y="619"/>
      <point x="502" y="637" type="curve"/>
      <point x="502" y="641" type="line"/>
      <point x="562" y="664"/>
      <point x="597" y="700"/>
      <point x="597" y="749" type="curve" smooth="yes"/>
      <point x="597" y="814"/>
      <point x="523" y="853"/>
      <point x="398" y="853" type="curve" smooth="yes"/>
      <point x="311" y="853"/>
      <point x="244" y="830"/>
      <point x="185" y="794" type="curve"/>
      <point x="251" y="708" type="line"/>
      <point x="297" y="736"/>
      <point x="339" y="746"/>
      <point x="385" y="746" type="curve" smooth="yes"/>
      <point x="434" y="746"/>
      <point x="460" y="729"/>
      <point x="460" y="713" type="curve" smooth="yes"/>
      <point x="460" y="693"/>
      <point x="430" y="681"/>
      <point x="353" y="681" type="curve" smooth="yes"/>
      <point x="288" y="681" type="line"/>
      <point x="288" y="581" type="line"/>
      <point x="362" y="581" type="line" smooth="yes"/>
      <point x="442" y="581"/>
      <point x="475" y="567"/>
      <point x="475" y="554" type="curve" smooth="yes"/>
      <point x="475" y="528"/>
      <point x="441" y="521"/>
      <point x="371" y="521" type="curve" smooth="yes"/>
      <point x="311" y="521"/>
      <point x="245" y="534"/>
      <point x="188" y="566" type="curve"/>
      <point x="188" y="443" type="line"/>
      <point x="242" y="420"/>
      <point x="305" y="408"/>
    </contour>
  </outline>
</glyph>
<glyph name="cedilla" format="2">
  <advance width="800"/>
  <unicode hex="00B8"/>
  <outline>
    <contour>
      <point x="350" y="-240" type="curve" smooth="yes"/>
      <point x="483" y="-240"/>
      <point x="553" y="-193"/>
      <point x="553" y="-125" type="curve" smooth="yes"/>
      <point x="553" y="-66"/>
      <point x="499" y="-38"/>
      <point x="424" y="-27" type="curve"/>
      <point x="449" y="5" type="line"/>
      <point x="343" y="5" type="line"/>
      <point x="291" y="-74" type="line"/>
      <point x="364" y="-78"/>
      <point x="403" y="-91"/>
      <point x="403" y="-112" type="curve" smooth="yes"/>
      <point x="403" y="-126"/>
      <point x="374" y="-136"/>
      <point x="325" y="-136" type="curve" smooth="yes"/>
      <point x="299" y="-136"/>
      <point x="269" y="-132"/>
      <point x="244" y="-125" type="curve"/>
      <point x="244" y="-225" type="line"/>
      <point x="271" y="-234"/>
      <point x="312" y="-240"/>
    </contour>
  </outline>
</glyph>
<glyph name="Eth" format="2">
  <advance width="800"/>
  <unicode hex="00D0"/>
  <anchor x="400" y="0" name="bottom"/>
  <anchor x="400" y="714" name="top"/>
  <anchor x="805" y="714" name="topright"/>
  <anchor x="383" y="357" name="center"/>
  <outline>
    <contour>
      <point x="-30" y="274" type="line"/>
      <point x="392" y="274" type="line"/>
      <point x="392" y="432" type="line"/>
      <point x="-30" y="432" type="line"/>
    </contour>
    <component base="D" xOffset="-24"/>
  </outline>
</glyph>
<glyph name="Oslash" format="2">
  <advance width="800"/>
  <unicode hex="00D8"/>
  <anchor x="400" y="0" name="bottom"/>
  <anchor x="400" y="714" name="top"/>
  <anchor x="-31" y="714" name="topleft"/>
  <anchor x="365" y="10" name="ogonek"/>
  <anchor x="370" y="357" name="center"/>
  <anchor x="800" y="714" name="topright"/>
  <outline>
    <contour>
      <point x="123" y="-49" type="line"/>
      <point x="795" y="693" type="line"/>
      <point x="678" y="761" type="line"/>
      <point x="5" y="21" type="line"/>
    </contour>
    <component base="O" xOffset="-30"/>
  </outline>
</glyph>
<glyph name="Thorn" format="2">
  <advance width="800"/>
  <unicode hex="00DE"/>
  <anchor x="400" y="0" name="bottom"/>
  <anchor x="400" y="714" name="top"/>
  <outline>
    <contour>
      <point x="77" y="0" type="line"/>
      <point x="268" y="0" type="line"/>
      <point x="268" y="111" type="line"/>
      <point x="407" y="111" type="line" smooth="yes"/>
      <point x="674" y="111"/>
      <point x="772" y="226"/>
      <point x="772" y="364" type="curve" smooth="yes"/>
      <point x="772" y="513"/>
      <point x="658" y="596"/>
      <point x="419" y="596" type="curve" smooth="yes"/>
      <point x="268" y="596" type="line"/>
      <point x="268" y="714" type="line"/>
      <point x="77" y="714" type="line"/>
    </contour>
    <contour>
      <point x="268" y="271" type="line"/>
      <point x="268" y="436" type="line"/>
      <point x="396" y="436" type="line" smooth="yes"/>
      <point x="517" y="436"/>
      <point x="571" y="405"/>
      <point x="571" y="363" type="curve" smooth="yes"/>
      <point x="571" y="304"/>
      <point x="505" y="271"/>
      <point x="385" y="271" type="curve" smooth="yes"/>
    </contour>
  </outline>
</glyph>
<glyph name="eth" format="2">
  <advance width="800"/>
  <unicode hex="00F0"/>
  <anchor x="400" y="0" name="bottom"/>
  <anchor x="400" y="279" name="center"/>
  <anchor x="400" y="767" name="top"/>
  <anchor x="801" y="760" name="topright"/>
  <outline>
    <contour>
      <point x="399" y="-10" type="curve" smooth="yes"/>
      <point x="632" y="-10"/>
      <point x="772" y="102"/>
      <point x="772" y="286" type="curve" smooth="yes"/>
      <point x="772" y="492"/>
      <point x="588" y="675"/>
      <point x="271" y="767" type="curve"/>
      <point x="207" y="673" type="line"/>
      <point x="362" y="625"/>
      <point x="502" y="530"/>
      <point x="559" y="457" type="curve"/>
      <point x="553" y="455" type="line"/>
      <point x="521" y="481"/>
      <point x="458" y="496"/>
      <point x="367" y="496" type="curve" smooth="yes"/>
      <point x="166" y="496"/>
      <point x="28" y="408"/>
      <point x="28" y="249" type="curve" smooth="yes"/>
      <point x="28" y="77"/>
      <point x="184" y="-10"/>
    </contour>
    <contour>
      <point x="403" y="128" type="curve" smooth="yes"/>
      <point x="281" y="128"/>
      <point x="230" y="173"/>
      <point x="230" y="248" type="curve" smooth="yes"/>
      <point x="230" y="318"/>
      <point x="279" y="357"/>
      <point x="400" y="357" type="curve" smooth="yes"/>
      <point x="520" y="357"/>
      <point x="570" y="312"/>
      <point x="570" y="236" type="curve" smooth="yes"/>
      <point x="570" y="174"/>
      <point x="523" y="128"/>
    </contour>
    <contour>
      <point x="259" y="495" type="line"/>
      <point x="678" y="678" type="line"/>
      <point x="611" y="769" type="line"/>
      <point x="191" y="586" type="line"/>
    </contour>
  </outline>
</glyph>
<glyph name="divide" format="2">
  <advance width="800"/>
  <unicode hex="00F7"/>
  <outline>
    <contour>
      <point x="68" y="280" type="line"/>
      <point x="732" y="280" type="line"/>
      <point x="732" y="425" type="line"/>
      <point x="68" y="425" type="line"/>
    </contour>
    <contour>
      <point x="400" y="64" type="curve" smooth="yes"/>
      <point x="455" y="64"/>
      <point x="497" y="95"/>
      <point x="497" y="154" type="curve" smooth="yes"/>
      <point x="497" y="215"/>
      <point x="456" y="243"/>
      <point x="400" y="243" type="curve" smooth="yes"/>
      <point x="342" y="243"/>
      <point x="302" y="215"/>
      <point x="302" y="154" type="curve" smooth="yes"/>
      <point x="302" y="94"/>
      <point x="344" y="64"/>
    </contour>
    <contour>
      <point x="400" y="462" type="curve" smooth="yes"/>
      <point x="455" y="462"/>
      <point x="497" y="493"/>
      <point x="497" y="552" type="curve" smooth="yes"/>
      <point x="497" y="613"/>
      <point x="456" y="642"/>
      <point x="400" y="642" type="curve" smooth="yes"/>
      <point x="342" y="642"/>
      <point x="302" y="613"/>
      <point x="302" y="552" type="curve" smooth="yes"/>
      <point x="302" y="492"/>
      <point x="344" y="462"/>
    </contour>
  </outline>
</glyph>
<glyph name="oslash" format="2">
  <advance width="800"/>
  <unicode hex="00F8"/>
  <anchor x="400" y="0" name="bottom"/>
  <anchor x="400" y="557" name="top"/>
  <anchor x="371" y="10" name="ogonek"/>
  <anchor x="771" y="557" name="topright"/>
  <anchor x="370" y="279" name="center"/>
  <outline>
    <contour>
      <point x="172" y="-44" type="line"/>
      <point x="730" y="546" type="line"/>
      <point x="629" y="601" type="line"/>
      <point x="71" y="10" type="line"/>
    </contour>
    <component base="o" xOffset="-30"/>
  </outline>
</glyph>
<glyph name="dcroat" format="2">
  <advance width="800"/>
  <unicode hex="0111"/>
  <anchor x="400" y="0" name="bottom"/>
  <anchor x="400" y="279" name="center"/>
  <anchor x="400" y="760" name="top"/>
  <anchor x="801" y="760" name="topright"/>
  <outline>
    <contour>
      <point x="323" y="-10" type="curve" smooth="yes"/>
      <point x="421" y="-10"/>
      <point x="497" y="11"/>
      <point x="548" y="70" type="curve"/>
      <point x="557" y="70" type="line"/>
      <point x="592" y="0" type="line"/>
      <point x="744" y="0" type="line"/>
      <point x="744" y="760" type="line"/>
      <point x="548" y="760" type="line"/>
      <point x="548" y="620" type="line" smooth="yes"/>
      <point x="548" y="555"/>
      <point x="551" y="532"/>
      <point x="562" y="459" type="curve"/>
      <point x="555" y="459" type="line"/>
      <point x="507" y="523"/>
      <point x="431" y="543"/>
      <point x="336" y="543" type="curve" smooth="yes"/>
      <point x="123" y="543"/>
      <point x="28" y="408"/>
      <point x="28" y="265" type="curve" smooth="yes"/>
      <point x="28" y="135"/>
      <point x="121" y="-10"/>
    </contour>
    <contour>
      <point x="395" y="145" type="curve" smooth="yes"/>
      <point x="288" y="145"/>
      <point x="230" y="178"/>
      <point x="230" y="262" type="curve" smooth="yes"/>
      <point x="230" y="341"/>
      <point x="291" y="387"/>
      <point x="400" y="387" type="curve" smooth="yes"/>
      <point x="524" y="387"/>
      <point x="560" y="340"/>
      <point x="560" y="263" type="curve" smooth="yes"/>
      <point x="560" y="250" type="line" smooth="yes"/>
      <point x="560" y="189"/>
      <point x="512" y="145"/>
    </contour>
    <contour>
      <point x="342" y="569" type="line"/>
      <point x="830" y="569" type="line"/>
      <point x="830" y="688" type="line"/>
      <point x="342" y="688" type="line"/>
    </contour>
  </outline>
</glyph>
<glyph name="idotless" format="2">
  <advance width="800"/>
  <unicode hex="0131"/>
  <anchor x="399" y="0" name="bottom"/>
  <anchor x="743" y="10" name="ogonek"/>
  <anchor x="399" y="557" name="top"/>
  <outline>
    <contour>
      <point x="51" y="0" type="line"/>
      <point x="760" y="0" type="line"/>
      <point x="760" y="138" type="line"/>
      <point x="520" y="154" type="line"/>
      <point x="520" y="557" type="line"/>
      <point x="96" y="557" type="line"/>
      <point x="96" y="417" type="line"/>
      <point x="321" y="402" type="line"/>
      <point x="321" y="154" type="line"/>
      <point x="51" y="138" type="line"/>
    </contour>
  </outline>
</glyph>
<glyph name="IJ" format="2">
  <advance width="800"/>
  <unicode hex="0132"/>
  <anchor x="400" y="0" name="bottom"/>
  <anchor x="-30" y="0" name="caret_1"/>
  <anchor x="400" y="714" name="top"/>
  <anchor x="-1" y="714" name="topleft"/>
  <outline>
    <contour>
      <point x="350" y="-10" type="curve" smooth="yes"/>
      <point x="603" y="-10"/>
      <point x="708" y="113"/>
      <point x="708" y="327" type="curve" smooth="yes"/>
      <point x="708" y="714" type="line"/>
      <point x="510" y="714" type="line"/>
      <point x="510" y="353" type="line" smooth="yes"/>
      <point x="510" y="193"/>
      <point x="444" y="162"/>
      <point x="306" y="162" type="curve" smooth="yes"/>
      <point x="236" y="162"/>
      <point x="166" y="164"/>
      <point x="93" y="177" type="curve"/>
      <point x="93" y="9" type="line"/>
      <point x="167" y="-5"/>
      <point x="278" y="-10"/>
    </contour>
    <contour>
      <point x="92" y="262" type="line"/>
      <point x="287" y="262" type="line"/>
      <point x="287" y="714" type="line"/>
      <point x="92" y="714" type="line"/>
    </contour>
  </outline>
</glyph>
<glyph name="Eng" format="2">
  <advance width="800"/>
  <unicode hex="014A"/>
  <anchor x="437" y="-236" name="bottom"/>
  <anchor x="437" y="714" name="top"/>
  <anchor x="829" y="714" name="topright"/>
  <outline>
    <contour>
      <point x="441" y="-236" type="curve" smooth="yes"/>
      <point x="632" y="-236"/>
      <point x="754" y="-157"/>
      <point x="754" y="-4" type="curve" smooth="yes"/>
      <point x="754" y="141" type="line"/>
      <point x="587" y="141" type="line"/>
      <point x="587" y="-1" type="line" smooth="yes"/>
      <point x="587" y="-67"/>
      <point x="522" y="-98"/>
      <point x="426" y="-98" type="curve" smooth="yes"/>
      <point x="385" y="-98"/>
      <point x="347" y="-91"/>
      <point x="314" y="-88" type="curve"/>
      <point x="314" y="-226" type="line"/>
      <point x="345" y="-231"/>
      <point x="391" y="-236"/>
    </contour>
    <component base="N"/>
  </outline>
</glyph>
<glyph name="OE" format="2">
  <advance width="800"/>
  <unicode hex="0152"/>
  <anchor x="400" y="0" name="bottom"/>
  <anchor x="400" y="714" name="top"/>
  <outline>
    <contour>
      <point x="321" y="-10" type="curve" smooth="yes"/>
      <point x="359" y="-10"/>
      <point x="394" y="-8"/>
      <point x="432" y="0" type="curve"/>
      <point x="804" y="0" type="line"/>
      <point x="804" y="165" type="line"/>
      <point x="585" y="165" type="line"/>
      <point x="585" y="286" type="line"/>
      <point x="778" y="286" type="line"/>
      <point x="778" y="451" type="line"/>
      <point x="585" y="451" type="line"/>
      <point x="585" y="549" type="line"/>
      <point x="804" y="549" type="line"/>
      <point x="804" y="714" type="line"/>
      <point x="437" y="714" type="line"/>
      <point x="396" y="722"/>
      <point x="355" y="724"/>
      <point x="321" y="724" type="curve" smooth="yes"/>
      <point x="102" y="724"/>
      <point x="11" y="587"/>
      <point x="11" y="359" type="curve" smooth="yes"/>
      <point x="11" y="127"/>
      <point x="99" y="-10"/>
    </contour>
    <contour>
      <point x="345" y="159" type="curve" smooth="yes"/>
      <point x="239" y="159"/>
      <point x="209" y="218"/>
      <point x="209" y="358" type="curve" smooth="yes"/>
      <point x="209" y="496"/>
      <point x="252" y="555"/>
      <point x="348" y="555" type="curve" smooth="yes"/>
      <point x="370" y="555"/>
      <point x="391" y="554"/>
      <point x="406" y="551" type="curve"/>
      <point x="406" y="163" type="line"/>
      <point x="390" y="161"/>
      <point x="371" y="159"/>
    </contour>
  </outline>
</glyph>
<glyph name="oe" format="2">
  <advance width="800"/>
  <unicode hex="0153"/>
  <anchor x="400" y="0" name="bottom"/>
  <anchor x="400" y="557" name="top"/>
  <outline>
    <contour>
      <point x="239" y="-10" type="curve" smooth="yes"/>
      <point x="320" y="-10"/>
      <point x="379" y="11"/>
      <point x="419" y="52" type="curve"/>
      <point x="460" y="13"/>
      <point x="519" y="-10"/>
      <point x="608" y="-10" type="curve" smooth="yes"/>
      <point x="666" y="-10"/>
      <point x="725" y="2"/>
      <point x="780" y="30" type="curve"/>
      <point x="780" y="157" type="line"/>
      <point x="721" y="126"/>
      <point x="672" y="114"/>
      <point x="625" y="114" type="curve" smooth="yes"/>
      <point x="534" y="114"/>
      <point x="489" y="143"/>
      <point x="488" y="226" type="curve"/>
      <point x="814" y="226" type="line"/>
      <point x="814" y="309" type="line" smooth="yes"/>
      <point x="814" y="472"/>
      <point x="738" y="562"/>
      <point x="588" y="562" type="curve" smooth="yes"/>
      <point x="511" y="562"/>
      <point x="458" y="542"/>
      <point x="417" y="503" type="curve"/>
      <point x="377" y="543"/>
      <point x="322" y="563"/>
      <point x="239" y="563" type="curve" smooth="yes"/>
      <point x="70" y="563"/>
      <point x="-13" y="442"/>
      <point x="-13" y="279" type="curve" smooth="yes"/>
      <point x="-13" y="111"/>
      <point x="75" y="-10"/>
    </contour>
    <contour>
      <point x="242" y="120" type="curve" smooth="yes"/>
      <point x="174" y="120"/>
      <point x="140" y="172"/>
      <point x="140" y="277" type="curve" smooth="yes"/>
      <point x="140" y="385"/>
      <point x="172" y="435"/>
      <point x="241" y="435" type="curve" smooth="yes"/>
      <point x="311" y="435"/>
      <point x="339" y="385"/>
      <point x="339" y="278" type="curve" smooth="yes"/>
      <point x="339" y="171"/>
      <point x="311" y="120"/>
    </contour>
    <contour>
      <point x="489" y="338" type="line"/>
      <point x="491" y="422"/>
      <point x="535" y="442"/>
      <point x="585" y="442" type="curve" smooth="yes"/>
      <point x="641" y="442"/>
      <point x="671" y="415"/>
      <point x="671" y="338" type="curve"/>
    </contour>
  </outline>
</glyph>
<glyph name="Tbar" format="2">
  <advance width="800"/>
  <unicode hex="0166"/>
  <anchor x="400" y="0" name="bottom"/>
  <anchor x="400" y="714" name="top"/>
  <anchor x="801" y="714" name="topright"/>
  <anchor x="400" y="357" name="center"/>
  <outline>
    <contour>
      <point x="119" y="265" type="line"/>
      <point x="681" y="265" type="line"/>
      <point x="681" y="427" type="line"/>
      <point x="119" y="427" type="line"/>
    </contour>
    <component base="T"/>
  </outline>
</glyph>
<glyph name="Uogonek" format="2">
  <advance width="800"/>
  <unicode hex="0172"/>
  <anchor x="444" y="-244" name="bottom"/>
  <anchor x="400" y="714" name="top"/>
  <anchor x="743" y="10" name="ogonek"/>
  <anchor x="801" y="714" name="topright"/>
  <outline>
    <contour>
      <point x="454" y="-244" type="curve" smooth="yes"/>
      <point x="498" y="-244"/>
      <point x="530" y="-237"/>
      <point x="558" y="-229" type="curve"/>
      <point x="558" y="-114" type="line"/>
      <point x="541" y="-120"/>
      <point x="515" y="-126"/>
      <point x="493" y="-126" type="curve" smooth="yes"/>
      <point x="451" y="-126"/>
      <point x="429" y="-112"/>
      <point x="429" y="-89" type="curve" smooth="yes"/>
      <point x="429" y="-58"/>
      <point x="474" y="-23"/>
      <point x="585" y="21" type="curve"/>
      <point x="489" y="44" type="line"/>
      <point x="358" y="-13"/>
      <point x="283" y="-60"/>
      <point x="283" y="-125" type="curve" smooth="yes"/>
      <point x="283" y="-206"/>
      <point x="344" y="-244"/>
    </contour>
    <component base="U"/>
  </outline>
</glyph>
<glyph name="longs" format="2">
  <advance width="800"/>
  <unicode hex="017F"/>
  <anchor x="400" y="0" name="bottom"/>
  <anchor x="539" y="765" name="top"/>
  <outline>
    <contour>
      <point x="262" y="0" type="line"/>
      <point x="460" y="0" type="line"/>
      <point x="460" y="553" type="line" smooth="yes"/>
      <point x="460" y="588"/>
      <point x="496" y="610"/>
      <point x="579" y="610" type="curve" smooth="yes"/>
      <point x="623" y="610"/>
      <point x="670" y="606"/>
      <point x="702" y="595" type="curve"/>
      <point x="746" y="739" type="line"/>
      <point x="703" y="752"/>
      <point x="637" y="765"/>
      <point x="549" y="765" type="curve" smooth="yes"/>
      <point x="375" y="765"/>
      <point x="262" y="714"/>
      <point x="262" y="567" type="curve" smooth="yes"/>
    </contour>
  </outline>
</glyph>
<glyph name="uni0180" format="2">
  <advance width="800"/>
  <unicode hex="0180"/>
  <anchor x="400" y="0" name="bottom"/>
  <anchor x="395" y="760" name="top"/>
  <anchor x="772" y="760" name="topright"/>
  <outline>
    <contour>
      <point x="-33" y="595" type="line"/>
      <point x="504" y="595" type="line"/>
      <point x="504" y="719" type="line"/>
      <point x="-33" y="719" type="line"/>
    </contour>
    <component base="b" xOffset="-30"/>
  </outline>
</glyph>
<glyph name="uni0181" format="2">
  <advance width="800"/>
  <unicode hex="0181"/>
  <anchor x="466" y="0" name="bottom"/>
  <anchor x="466" y="714" name="top"/>
  <outline>
    <contour>
      <point x="223" y="0" type="line"/>
      <point x="497" y="0" type="line" smooth="yes"/>
      <point x="687" y="0"/>
      <point x="799" y="79"/>
      <point x="799" y="212" type="curve" smooth="yes"/>
      <point x="799" y="308"/>
      <point x="724" y="355"/>
      <point x="624" y="374" type="curve"/>
      <point x="624" y="379" type="line"/>
      <point x="713" y="396"/>
      <point x="776" y="440"/>
      <point x="776" y="535" type="curve" smooth="yes"/>
      <point x="776" y="649"/>
      <point x="674" y="714"/>
      <point x="458" y="714" type="curve" smooth="yes"/>
      <point x="223" y="714" type="line"/>
    </contour>
    <contour>
      <point x="406" y="151" type="line"/>
      <point x="406" y="299" type="line"/>
      <point x="469" y="299" type="line" smooth="yes"/>
      <point x="581" y="299"/>
      <point x="614" y="266"/>
      <point x="614" y="228" type="curve" smooth="yes"/>
      <point x="614" y="190"/>
      <point x="578" y="151"/>
      <point x="475" y="151" type="curve" smooth="yes"/>
    </contour>
    <contour>
      <point x="-8" y="450" type="curve"/>
      <point x="149" y="450" type="line"/>
      <point x="144" y="461"/>
      <point x="137" y="482"/>
      <point x="137" y="505" type="curve" smooth="yes"/>
      <point x="137" y="535"/>
      <point x="162" y="563"/>
      <point x="208" y="563" type="curve" smooth="yes"/>
      <point x="245" y="563" type="line"/>
      <point x="245" y="714" type="line"/>
      <point x="204" y="714" type="line"/>
      <point x="47" y="714"/>
      <point x="-21" y="622"/>
      <point x="-21" y="517" type="curve" smooth="yes"/>
      <point x="-21" y="487"/>
      <point x="-14" y="458"/>
    </contour>
    <contour>
      <point x="406" y="439" type="line"/>
      <point x="406" y="563" type="line"/>
      <point x="452" y="563" type="line" smooth="yes"/>
      <point x="558" y="563"/>
      <point x="593" y="539"/>
      <point x="593" y="506" type="curve" smooth="yes"/>
      <point x="593" y="473"/>
      <point x="556" y="439"/>
      <point x="464" y="439" type="curve" smooth="yes"/>
    </contour>
  </outline>
</glyph>
<glyph name="uni018B" format="2">
  <advance width="800"/>
  <unicode hex="018B"/>
  <anchor x="400" y="0" name="bottom"/>
  <anchor x="421" y="714" name="top"/>
  <anchor x="0" y="0" name="topright"/>
  <outline>
    <contour>
      <point x="111" y="541" type="line"/>
      <point x="623" y="541" type="line"/>
      <point x="623" y="714" type="line"/>
      <point x="111" y="714" type="line"/>
    </contour>
    <component base="P" xScale="-1" yScale="-1" xOffset="830" yOffset="714"/>
  </outline>
</glyph>
<glyph name="uni018C" format="2">
  <advance width="800"/>
  <unicode hex="018C"/>
  <anchor x="400" y="0" name="bottom"/>
  <anchor x="420" y="760" name="top"/>
  <anchor x="771" y="760" name="topright"/>
  <anchor x="370" y="279" name="center"/>
  <outline>
    <contour>
      <point x="103" y="604" type="line"/>
      <point x="637" y="604" type="line"/>
      <point x="637" y="760" type="line"/>
      <point x="103" y="760" type="line"/>
    </contour>
    <component base="d" xOffset="-30"/>
  </outline>
</glyph>
<glyph name="florin" format="2">
  <advance width="800"/>
  <unicode hex="0192"/>
  <anchor x="377" y="-246" name="bottom"/>
  <anchor x="520" y="750" name="top"/>
  <outline>
    <contour>
      <point x="240" y="-246" type="curve" smooth="yes"/>
      <point x="435" y="-246"/>
      <point x="484" y="-146"/>
      <point x="484" y="6" type="curve" smooth="yes"/>
      <point x="484" y="390" type="line"/>
      <point x="668" y="390" type="line"/>
      <point x="668" y="544" type="line"/>
      <point x="483" y="544" type="line"/>
      <point x="483" y="544" type="line" smooth="yes"/>
      <point x="483" y="581"/>
      <point x="524" y="596"/>
      <point x="599" y="596" type="curve" smooth="yes"/>
      <point x="637" y="596"/>
      <point x="675" y="593"/>
      <point x="705" y="586" type="curve"/>
      <point x="746" y="723" type="line"/>
      <point x="693" y="741"/>
      <point x="634" y="750"/>
      <point x="558" y="750" type="curve" smooth="yes"/>
      <point x="377" y="750"/>
      <point x="289" y="691"/>
      <point x="289" y="544" type="curve" smooth="yes"/>
      <point x="289" y="540" type="line"/>
      <point x="133" y="515" type="line"/>
      <point x="133" y="390" type="line"/>
      <point x="287" y="390" type="line"/>
      <point x="287" y="-32" type="line" smooth="yes"/>
      <point x="287" y="-67"/>
      <point x="258" y="-88"/>
      <point x="186" y="-88" type="curve" smooth="yes"/>
      <point x="154" y="-88"/>
      <point x="125" y="-85"/>
      <point x="97" y="-77" type="curve"/>
      <point x="97" y="-231" type="line"/>
      <point x="128" y="-240"/>
      <point x="169" y="-246"/>
    </contour>
  </outline>
</glyph>
<glyph name="uni0195" format="2">
  <advance width="800"/>
  <unicode hex="0195"/>
  <anchor x="404" y="0" name="bottom"/>
  <anchor x="126" y="760" name="top"/>
  <outline>
    <contour>
      <point x="548" y="-15" type="curve" smooth="yes"/>
      <point x="690" y="-15"/>
      <point x="770" y="55"/>
      <point x="770" y="153" type="curve" smooth="yes"/>
      <point x="770" y="557" type="line"/>
      <point x="604" y="557" type="line"/>
      <point x="604" y="157" type="line" smooth="yes"/>
      <point x="604" y="140"/>
      <point x="582" y="134"/>
      <point x="547" y="134" type="curve" smooth="yes"/>
      <point x="511" y="134"/>
      <point x="491" y="141"/>
      <point x="491" y="155" type="curve" smooth="yes"/>
      <point x="491" y="448" type="line" smooth="yes"/>
      <point x="491" y="531"/>
      <point x="435" y="567"/>
      <point x="341" y="567" type="curve" smooth="yes"/>
      <point x="273" y="567"/>
      <point x="229" y="538"/>
      <point x="204" y="495" type="curve"/>
      <point x="195" y="495" type="line"/>
      <point x="204" y="544"/>
      <point x="206" y="584"/>
      <point x="206" y="634" type="curve" smooth="yes"/>
      <point x="206" y="760" type="line"/>
      <point x="39" y="760" type="line"/>
      <point x="39" y="0" type="line"/>
      <point x="205" y="0" type="line"/>
      <point x="205" y="401" type="line" smooth="yes"/>
      <point x="205" y="414"/>
      <point x="226" y="419"/>
      <point x="271" y="419" type="curve" smooth="yes"/>
      <point x="304" y="419"/>
      <point x="325" y="414"/>
      <point x="325" y="400" type="curve" smooth="yes"/>
      <point x="325" y="150" type="line" smooth="yes"/>
      <point x="325" y="54"/>
      <point x="403" y="-15"/>
    </contour>
  </outline>
</glyph>
<glyph name="uni01A2" format="2">
  <advance width="800"/>
  <unicode hex="01A2"/>
  <anchor x="134" y="0" name="bottom"/>
  <anchor x="137" y="10" name="ogonek"/>
  <anchor x="451" y="714" name="top"/>
  <anchor x="-249" y="714" name="topleft"/>
  <anchor x="1162" y="714" name="topright"/>
  <outline>
    <contour>
      <point x="138" y="-10" type="curve" smooth="yes"/>
      <point x="445" y="-10"/>
      <point x="588" y="133"/>
      <point x="588" y="354" type="curve" smooth="yes"/>
      <point x="588" y="561"/>
      <point x="462" y="725"/>
      <point x="139" y="725" type="curve" smooth="yes"/>
      <point x="-169" y="725"/>
      <point x="-311" y="582"/>
      <point x="-311" y="357" type="curve" smooth="yes"/>
      <point x="-311" y="132"/>
      <point x="-170" y="-10"/>
    </contour>
    <contour>
      <point x="139" y="155" type="curve" smooth="yes"/>
      <point x="-27" y="155"/>
      <point x="-98" y="229"/>
      <point x="-98" y="358" type="curve" smooth="yes"/>
      <point x="-98" y="488"/>
      <point x="-27" y="562"/>
      <point x="140" y="562" type="curve" smooth="yes"/>
      <point x="310" y="562"/>
      <point x="375" y="482"/>
      <point x="375" y="359" type="curve" smooth="yes"/>
      <point x="375" y="229"/>
      <point x="306" y="155"/>
    </contour>
    <contour>
      <point x="908" y="0" type="line"/>
      <point x="1111" y="0" type="line"/>
      <point x="1111" y="466" type="line" smooth="yes"/>
      <point x="1111" y="650"/>
      <point x="981" y="725"/>
      <point x="786" y="725" type="curve" smooth="yes"/>
      <point x="634" y="725"/>
      <point x="519" y="679"/>
      <point x="440" y="630" type="curve"/>
      <point x="512" y="530" type="line"/>
      <point x="552" y="542"/>
      <point x="627" y="562"/>
      <point x="726" y="562" type="curve" smooth="yes"/>
      <point x="850" y="562"/>
      <point x="908" y="525"/>
      <point x="908" y="433" type="curve" smooth="yes"/>
    </contour>
  </outline>
</glyph>
<glyph name="uni01A4" format="2">
  <advance width="800"/>
  <unicode hex="01A4"/>
  <anchor x="437" y="0" name="bottom"/>
  <anchor x="437" y="714" name="top"/>
  <outline>
    <contour>
      <point x="174" y="0" type="line"/>
      <point x="365" y="0" type="line"/>
      <point x="365" y="229" type="line"/>
      <point x="442" y="229" type="line" smooth="yes"/>
      <point x="684" y="229"/>
      <point x="772" y="343"/>
      <point x="772" y="482" type="curve" smooth="yes"/>
      <point x="772" y="631"/>
      <point x="670" y="714"/>
      <point x="454" y="714" type="curve" smooth="yes"/>
      <point x="182" y="714" type="line" smooth="yes"/>
      <point x="36" y="714"/>
      <point x="-38" y="642"/>
      <point x="-38" y="527" type="curve" smooth="yes"/>
      <point x="-38" y="497"/>
      <point x="-31" y="452"/>
      <point x="-25" y="445" type="curve"/>
      <point x="123" y="445" type="line"/>
      <point x="118" y="456"/>
      <point x="112" y="475"/>
      <point x="112" y="498" type="curve" smooth="yes"/>
      <point x="112" y="537"/>
      <point x="133" y="553"/>
      <point x="174" y="554" type="curve"/>
    </contour>
    <contour>
      <point x="365" y="388" type="line"/>
      <point x="365" y="554" type="line"/>
      <point x="431" y="554" type="line" smooth="yes"/>
      <point x="528" y="554"/>
      <point x="571" y="523"/>
      <point x="571" y="480" type="curve" smooth="yes"/>
      <point x="571" y="422"/>
      <point x="518" y="388"/>
      <point x="419" y="388" type="curve" smooth="yes"/>
    </contour>
  </outline>
</glyph>
<glyph name="uni01AA" format="2">
  <advance width="800"/>
  <unicode hex="01AA"/>
  <anchor x="402" y="-240" name="bottom"/>
  <anchor x="402" y="770" name="top"/>
  <outline>
    <contour>
      <point x="559" y="-240" type="curve"/>
      <point x="642" y="-240"/>
      <point x="712" y="-224"/>
      <point x="758" y="-208" type="curve"/>
      <point x="758" y="-50" type="line"/>
      <point x="712" y="-63"/>
      <point x="671" y="-70"/>
      <point x="611" y="-70" type="curve" smooth="yes"/>
      <point x="531" y="-70"/>
      <point x="495" y="-55"/>
      <point x="495" y="-3" type="curve" smooth="yes"/>
      <point x="495" y="563" type="line" smooth="yes"/>
      <point x="495" y="687"/>
      <point x="428" y="774"/>
      <point x="261" y="774" type="curve"/>
      <point x="104" y="774"/>
      <point x="41" y="720"/>
      <point x="41" y="650" type="curve" smooth="yes"/>
      <point x="41" y="578"/>
      <point x="96" y="523"/>
      <point x="252" y="523" type="curve" smooth="yes"/>
      <point x="298" y="523" type="line"/>
      <point x="298" y="-24" type="line" smooth="yes"/>
      <point x="298" y="-198"/>
      <point x="405" y="-240"/>
    </contour>
    <contour>
      <point x="255" y="622" type="line" smooth="yes"/>
      <point x="203" y="622"/>
      <point x="180" y="635"/>
      <point x="180" y="649" type="curve" smooth="yes"/>
      <point x="180" y="660"/>
      <point x="198" y="668"/>
      <point x="235" y="668" type="curve"/>
      <point x="278" y="668"/>
      <point x="298" y="661"/>
      <point x="298" y="647" type="curve" smooth="yes"/>
      <point x="298" y="622" type="line"/>
    </contour>
  </outline>
</glyph>
<glyph name="uni01AB" format="2">
  <advance width="800"/>
  <unicode hex="01AB"/>
  <anchor x="506" y="-240" name="bottom"/>
  <anchor x="400" y="677" name="top"/>
  <anchor x="771" y="677" name="topright"/>
  <anchor x="293" y="279" name="center"/>
  <outline>
    <contour>
      <point x="520" y="-240" type="curve"/>
      <point x="655" y="-240"/>
      <point x="721" y="-186"/>
      <point x="721" y="-39" type="curve"/>
      <point x="721" y="105" type="line"/>
      <point x="546" y="57" type="line"/>
      <point x="546" y="-40" type="line" smooth="yes"/>
      <point x="546" y="-86"/>
      <point x="520" y="-98"/>
      <point x="477" y="-98" type="curve" smooth="yes"/>
      <point x="450" y="-98"/>
      <point x="427" y="-94"/>
      <point x="410" y="-90" type="curve"/>
      <point x="410" y="-226" type="line"/>
      <point x="437" y="-235"/>
      <point x="478" y="-240"/>
    </contour>
    <component base="t" xOffset="-30"/>
  </outline>
</glyph>
<glyph name="uni01AC" format="2">
  <advance width="800"/>
  <unicode hex="01AC"/>
  <anchor x="420" y="0" name="bottom"/>
  <anchor x="420" y="714" name="top"/>
  <outline>
    <contour>
      <point x="324" y="0" type="line"/>
      <point x="523" y="0" type="line"/>
      <point x="523" y="548" type="line"/>
      <point x="792" y="548" type="line"/>
      <point x="792" y="714" type="line"/>
      <point x="234" y="714" type="line" smooth="yes"/>
      <point x="53" y="714"/>
      <point x="-13" y="614"/>
      <point x="-13" y="510" type="curve" smooth="yes"/>
      <point x="-13" y="472"/>
      <point x="-3" y="448"/>
      <point x="4" y="438" type="curve"/>
      <point x="168" y="438" type="line"/>
      <point x="163" y="451"/>
      <point x="154" y="464"/>
      <point x="154" y="489" type="curve" smooth="yes"/>
      <point x="154" y="521"/>
      <point x="182" y="545"/>
      <point x="242" y="545" type="curve" smooth="yes"/>
      <point x="324" y="545" type="line"/>
    </contour>
  </outline>
</glyph>
<glyph name="uni01B3" format="2">
  <advance width="800"/>
  <unicode hex="01B3"/>
  <anchor x="400" y="0" name="bottom"/>
  <anchor x="400" y="714" name="top"/>
  <outline>
    <contour>
      <point x="298" y="0" type="line"/>
      <point x="506" y="0" type="line"/>
      <point x="506" y="279" type="line"/>
      <point x="796" y="714" type="line"/>
      <point x="582" y="714" type="line"/>
      <point x="401" y="476" type="line"/>
      <point x="312" y="562" type="line" smooth="yes"/>
      <point x="235" y="637"/>
      <point x="189" y="724"/>
      <point x="87" y="724" type="curve" smooth="yes"/>
      <point x="35" y="724"/>
      <point x="-7" y="712"/>
      <point x="-31" y="701" type="curve"/>
      <point x="-31" y="546" type="line"/>
      <point x="-16" y="551"/>
      <point x="6" y="556"/>
      <point x="36" y="556" type="curve" smooth="yes"/>
      <point x="65" y="556"/>
      <point x="86" y="540"/>
      <point x="167" y="437" type="curve" smooth="yes"/>
      <point x="298" y="271" type="line"/>
    </contour>
  </outline>
</glyph>
<glyph name="uni01B4" format="2">
  <advance width="800"/>
  <unicode hex="01B4"/>
  <anchor x="400" y="-245" name="bottom"/>
  <anchor x="400" y="557" name="top"/>
  <outline>
    <contour>
      <point x="134" y="-245" type="curve" smooth="yes"/>
      <point x="317" y="-245"/>
      <point x="399" y="-177"/>
      <point x="471" y="-57" type="curve" smooth="yes"/>
      <point x="659" y="280" type="line" smooth="yes"/>
      <point x="710" y="372"/>
      <point x="717" y="398"/>
      <point x="765" y="398" type="curve" smooth="yes"/>
      <point x="785" y="398"/>
      <point x="805" y="395"/>
      <point x="818" y="391" type="curve"/>
      <point x="818" y="551" type="line"/>
      <point x="790" y="561"/>
      <point x="758" y="568"/>
      <point x="714" y="568" type="curve" smooth="yes"/>
      <point x="604" y="568"/>
      <point x="563" y="510"/>
      <point x="522" y="430" type="curve" smooth="yes"/>
      <point x="438" y="274" type="line" smooth="yes"/>
      <point x="431" y="262"/>
      <point x="411" y="223"/>
      <point x="399" y="191" type="curve"/>
      <point x="394" y="191" type="line"/>
      <point x="381" y="230"/>
      <point x="361" y="253"/>
      <point x="351" y="273" type="curve" smooth="yes"/>
      <point x="201" y="557" type="line"/>
      <point x="-8" y="557" type="line"/>
      <point x="305" y="10" type="line"/>
      <point x="281" y="-18" type="line" smooth="yes"/>
      <point x="242" y="-63"/>
      <point x="195" y="-96"/>
      <point x="107" y="-96" type="curve" smooth="yes"/>
      <point x="82" y="-96"/>
      <point x="52" y="-94"/>
      <point x="27" y="-90" type="curve"/>
      <point x="27" y="-237" type="line"/>
      <point x="61" y="-243"/>
      <point x="98" y="-245"/>
    </contour>
  </outline>
</glyph>
<glyph name="uni01BA" format="2">
  <advance width="800"/>
  <unicode hex="01BA"/>
  <anchor x="400" y="-240" name="bottom"/>
  <anchor x="400" y="557" name="top"/>
  <outline>
    <contour>
      <point x="346" y="-240" type="curve"/>
      <point x="478" y="-240"/>
      <point x="596" y="-217"/>
      <point x="667" y="-192" type="curve"/>
      <point x="667" y="-40" type="line"/>
      <point x="601" y="-56"/>
      <point x="499" y="-86"/>
      <point x="370" y="-86" type="curve"/>
      <point x="277" y="-86"/>
      <point x="225" y="-78"/>
      <point x="225" y="-51" type="curve" smooth="yes"/>
      <point x="225" y="-28"/>
      <point x="257" y="-19"/>
      <point x="377" y="-12" type="curve" smooth="yes"/>
      <point x="680" y="6"/>
      <point x="751" y="71"/>
      <point x="751" y="164" type="curve" smooth="yes"/>
      <point x="751" y="290"/>
      <point x="616" y="315"/>
      <point x="441" y="320" type="curve"/>
      <point x="705" y="427" type="line"/>
      <point x="705" y="557" type="line"/>
      <point x="64" y="557" type="line"/>
      <point x="64" y="408" type="line"/>
      <point x="446" y="408" type="line"/>
      <point x="204" y="311" type="line"/>
      <point x="204" y="204" type="line"/>
      <point x="286" y="204" type="line" smooth="yes"/>
      <point x="461" y="204"/>
      <point x="535" y="197"/>
      <point x="535" y="171" type="curve" smooth="yes"/>
      <point x="535" y="141"/>
      <point x="479" y="139"/>
      <point x="324" y="128" type="curve" smooth="yes"/>
      <point x="106" y="112"/>
      <point x="39" y="38"/>
      <point x="39" y="-57" type="curve"/>
      <point x="39" y="-180"/>
      <point x="164" y="-240"/>
    </contour>
  </outline>
</glyph>
<glyph name="uni01BE" format="2">
  <advance width="800"/>
  <unicode hex="01BE"/>
  <anchor x="400" y="0" name="bottom"/>
  <anchor x="348" y="677" name="top"/>
  <outline>
    <contour>
      <point x="366" y="-10" type="curve" smooth="yes"/>
      <point x="613" y="-10"/>
      <point x="722" y="79"/>
      <point x="722" y="180" type="curve" smooth="yes"/>
      <point x="722" y="256"/>
      <point x="651" y="298"/>
      <point x="512" y="332" type="curve" smooth="yes"/>
      <point x="444" y="349"/>
      <point x="426" y="361"/>
      <point x="426" y="391" type="curve" smooth="yes"/>
      <point x="426" y="402" type="line"/>
      <point x="711" y="402" type="line"/>
      <point x="711" y="557" type="line"/>
      <point x="426" y="557" type="line"/>
      <point x="426" y="677" type="line"/>
      <point x="275" y="677" type="line"/>
      <point x="242" y="555" type="line"/>
      <point x="24" y="492" type="line"/>
      <point x="24" y="402" type="line"/>
      <point x="227" y="402" type="line"/>
      <point x="227" y="367" type="line" smooth="yes"/>
      <point x="227" y="274"/>
      <point x="268" y="235"/>
      <point x="381" y="211" type="curve" smooth="yes"/>
      <point x="476" y="191"/>
      <point x="515" y="186"/>
      <point x="515" y="172" type="curve" smooth="yes"/>
      <point x="515" y="153"/>
      <point x="464" y="143"/>
      <point x="360" y="143" type="curve" smooth="yes"/>
      <point x="251" y="143"/>
      <point x="134" y="173"/>
      <point x="75" y="199" type="curve"/>
      <point x="75" y="30" type="line"/>
      <point x="136" y="5"/>
      <point x="251" y="-10"/>
    </contour>
  </outline>
</glyph>
<glyph name="uni01C0" format="2">
  <advance width="800"/>
  <unicode hex="01C0"/>
  <anchor x="400" y="0" name="bottom"/>
  <anchor x="400" y="760" name="top"/>
  <outline>
    <contour>
      <point x="322" y="0" type="line"/>
      <point x="478" y="0" type="line"/>
      <point x="478" y="760" type="line"/>
      <point x="322" y="760" type="line"/>
    </contour>
  </outline>
</glyph>
<glyph name="uni01E4" format="2">
  <advance width="800"/>
  <unicode hex="01E4"/>
  <anchor x="437" y="0" name="bottom"/>
  <anchor x="455" y="714" name="top"/>
  <outline>
    <contour>
      <point x="468" y="-10" type="curve" smooth="yes"/>
      <point x="570" y="-10"/>
      <point x="662" y="1"/>
      <point x="755" y="34" type="curve"/>
      <point x="755" y="462" type="line"/>
      <point x="416" y="462" type="line"/>
      <point x="416" y="338" type="line"/>
      <point x="572" y="338" type="line"/>
      <point x="572" y="159" type="line"/>
      <point x="537" y="154"/>
      <point x="503" y="153"/>
      <point x="464" y="153" type="curve" smooth="yes"/>
      <point x="284" y="153"/>
      <point x="213" y="233"/>
      <point x="213" y="356" type="curve" smooth="yes"/>
      <point x="213" y="491"/>
      <point x="308" y="558"/>
      <point x="489" y="558" type="curve" smooth="yes"/>
      <point x="563" y="558"/>
      <point x="629" y="545"/>
      <point x="686" y="522" type="curve"/>
      <point x="748" y="678" type="line"/>
      <point x="673" y="703"/>
      <point x="583" y="724"/>
      <point x="474" y="724" type="curve" smooth="yes"/>
      <point x="173" y="724"/>
      <point x="14" y="584"/>
      <point x="14" y="351" type="curve" smooth="yes"/>
      <point x="14" y="130"/>
      <point x="161" y="-10"/>
    </contour>
    <contour>
      <point x="416" y="185" type="line"/>
      <point x="829" y="185" type="line"/>
      <point x="829" y="310" type="line"/>
      <point x="416" y="310" type="line"/>
    </contour>
  </outline>
</glyph>
<glyph name="uni01F7" format="2">
  <advance width="800"/>
  <unicode hex="01F7"/>
  <anchor x="450" y="-240" name="bottom"/>
  <anchor x="492" y="714" name="top"/>
  <outline>
    <contour>
      <point x="82" y="-240" type="line"/>
      <point x="277" y="-240" type="line"/>
      <point x="277" y="12" type="line"/>
      <point x="636" y="74"/>
      <point x="773" y="261"/>
      <point x="773" y="451" type="curve" smooth="yes"/>
      <point x="773" y="628"/>
      <point x="666" y="725"/>
      <point x="498" y="725" type="curve" smooth="yes"/>
      <point x="377" y="725"/>
      <point x="305" y="678"/>
      <point x="269" y="629" type="curve"/>
      <point x="263" y="629" type="line"/>
      <point x="232" y="714" type="line"/>
      <point x="82" y="714" type="line"/>
    </contour>
    <contour>
      <point x="277" y="191" type="curve"/>
      <point x="277" y="395" type="line" smooth="yes"/>
      <point x="277" y="528"/>
      <point x="325" y="564"/>
      <point x="439" y="564" type="curve" smooth="yes"/>
      <point x="527" y="564"/>
      <point x="576" y="529"/>
      <point x="576" y="443" type="curve" smooth="yes"/>
      <point x="576" y="303"/>
      <point x="457" y="216"/>
    </contour>
  </outline>
</glyph>
<glyph name="uni0220" format="2">
  <advance width="800"/>
  <unicode hex="0220"/>
  <anchor x="409" y="-240" name="bottom"/>
  <anchor x="400" y="357" name="center"/>
  <anchor x="400" y="714" name="top"/>
  <anchor x="-2" y="714" name="topleft"/>
  <outline>
    <contour>
      <point x="555" y="-240" type="line"/>
      <point x="750" y="-240" type="line"/>
      <point x="750" y="545" type="line" smooth="yes"/>
      <point x="750" y="670"/>
      <point x="639" y="725"/>
      <point x="483" y="725" type="curve" smooth="yes"/>
      <point x="382" y="725"/>
      <point x="307" y="696"/>
      <point x="258" y="645" type="curve"/>
      <point x="252" y="645" type="line"/>
      <point x="228" y="714" type="line"/>
      <point x="64" y="714" type="line"/>
      <point x="64" y="0" type="line"/>
      <point x="259" y="0" type="line"/>
      <point x="259" y="450" type="line" smooth="yes"/>
      <point x="259" y="526"/>
      <point x="307" y="562"/>
      <point x="421" y="562" type="curve" smooth="yes"/>
      <point x="516" y="562"/>
      <point x="555" y="529"/>
      <point x="555" y="480" type="curve" smooth="yes"/>
    </contour>
  </outline>
</glyph>
<glyph name="uni0221" format="2">
  <advance width="800"/>
  <unicode hex="0221"/>
  <anchor x="437" y="-107" name="bottom"/>
  <anchor x="437" y="760" name="top"/>
  <outline>
    <contour>
      <point x="551" y="-107" type="line"/>
      <point x="553" y="-77"/>
      <point x="559" y="-42"/>
      <point x="566" y="-6" type="curve"/>
      <point x="578" y="-7"/>
      <point x="598" y="-7"/>
      <point x="620" y="-7" type="curve" smooth="yes"/>
      <point x="754" y="-7"/>
      <point x="812" y="60"/>
      <point x="812" y="128" type="curve" smooth="yes"/>
      <point x="812" y="199"/>
      <point x="750" y="249"/>
      <point x="659" y="249" type="curve" smooth="yes"/>
      <point x="589" y="249"/>
      <point x="539" y="242"/>
      <point x="506" y="221" type="curve"/>
      <point x="498" y="237"/>
      <point x="498" y="251"/>
      <point x="498" y="260" type="curve"/>
      <point x="498" y="760" type="line"/>
      <point x="335" y="760" type="line"/>
      <point x="335" y="621" type="line" smooth="yes"/>
      <point x="335" y="587"/>
      <point x="336" y="567"/>
      <point x="340" y="511" type="curve"/>
      <point x="334" y="511" type="line"/>
      <point x="309" y="550"/>
      <point x="272" y="567"/>
      <point x="209" y="567" type="curve" smooth="yes"/>
      <point x="80" y="567"/>
      <point x="0" y="477"/>
      <point x="0" y="280" type="curve" smooth="yes"/>
      <point x="0" y="77"/>
      <point x="77" y="-10"/>
      <point x="208" y="-10" type="curve" smooth="yes"/>
      <point x="291" y="-10"/>
      <point x="343" y="26"/>
      <point x="371" y="77" type="curve"/>
      <point x="378" y="77" type="line"/>
      <point x="387" y="62"/>
      <point x="418" y="37"/>
      <point x="447" y="24" type="curve"/>
      <point x="438" y="-16"/>
      <point x="431" y="-56"/>
      <point x="428" y="-102" type="curve"/>
    </contour>
    <contour>
      <point x="251" y="127" type="curve" smooth="yes"/>
      <point x="198" y="127"/>
      <point x="166" y="165"/>
      <point x="166" y="283" type="curve" smooth="yes"/>
      <point x="166" y="396"/>
      <point x="196" y="431"/>
      <point x="251" y="431" type="curve" smooth="yes"/>
      <point x="304" y="431"/>
      <point x="335" y="405"/>
      <point x="335" y="302" type="curve" smooth="yes"/>
      <point x="335" y="270" type="line" smooth="yes"/>
      <point x="335" y="154"/>
      <point x="305" y="127"/>
    </contour>
    <contour>
      <point x="628" y="95" type="curve" smooth="yes"/>
      <point x="611" y="95"/>
      <point x="597" y="96"/>
      <point x="587" y="96" type="curve"/>
      <point x="600" y="128"/>
      <point x="619" y="148"/>
      <point x="650" y="148" type="curve" smooth="yes"/>
      <point x="672" y="148"/>
      <point x="685" y="141"/>
      <point x="685" y="121" type="curve" smooth="yes"/>
      <point x="685" y="103"/>
      <point x="666" y="95"/>
    </contour>
  </outline>
</glyph>
<glyph name="uni0225" format="2">
  <advance width="800"/>
  <unicode hex="0225"/>
  <anchor x="448" y="-240" name="bottom"/>
  <anchor x="400" y="557" name="top"/>
  <anchor x="771" y="557" name="topright"/>
  <outline>
    <contour>
      <point x="505" y="-290" type="curve" smooth="yes"/>
      <point x="681" y="-290"/>
      <point x="750" y="-172"/>
      <point x="750" y="-56" type="curve" smooth="yes"/>
      <point x="750" y="152" type="line"/>
      <point x="557" y="152" type="line"/>
      <point x="557" y="0" type="line"/>
      <point x="572" y="0" type="line"/>
      <point x="572" y="-7" type="line" smooth="yes"/>
      <point x="572" y="-127"/>
      <point x="521" y="-150"/>
      <point x="460" y="-150" type="curve" smooth="yes"/>
      <point x="429" y="-150"/>
      <point x="406" y="-149"/>
      <point x="378" y="-141" type="curve"/>
      <point x="378" y="-278" type="line"/>
      <point x="408" y="-286"/>
      <point x="461" y="-290"/>
    </contour>
    <component base="z" xOffset="-30"/>
  </outline>
</glyph>
<glyph name="jdotless" format="2">
  <advance width="800"/>
  <unicode hex="0237"/>
  <anchor x="400" y="-245" name="bottom"/>
  <anchor x="474" y="557" name="top"/>
  <outline>
    <contour>
      <point x="258" y="-245" type="curve" smooth="yes"/>
      <point x="481" y="-245"/>
      <point x="580" y="-166"/>
      <point x="580" y="-3" type="curve" smooth="yes"/>
      <point x="580" y="557" type="line"/>
      <point x="133" y="557" type="line"/>
      <point x="133" y="415" type="line"/>
      <point x="380" y="402" type="line"/>
      <point x="380" y="42" type="line" smooth="yes"/>
      <point x="380" y="-61"/>
      <point x="342" y="-87"/>
      <point x="222" y="-87" type="curve" smooth="yes"/>
      <point x="171" y="-87"/>
      <point x="97" y="-83"/>
      <point x="31" y="-68" type="curve"/>
      <point x="31" y="-218" type="line"/>
      <point x="102" y="-238"/>
      <point x="188" y="-245"/>
    </contour>
  </outline>
</glyph>
<glyph name="uni0238" format="2">
  <advance width="800"/>
  <unicode hex="0238"/>
  <anchor x="401" y="0" name="bottom"/>
  <anchor x="403" y="760" name="top"/>
  <outline>
    <contour>
      <point x="239" y="-10" type="curve" smooth="yes"/>
      <point x="317" y="-10"/>
      <point x="368" y="14"/>
      <point x="399" y="47" type="curve"/>
      <point x="429" y="14"/>
      <point x="480" y="-10"/>
      <point x="557" y="-10" type="curve" smooth="yes"/>
      <point x="732" y="-10"/>
      <point x="786" y="120"/>
      <point x="786" y="280" type="curve" smooth="yes"/>
      <point x="786" y="477"/>
      <point x="715" y="563"/>
      <point x="596" y="563" type="curve" smooth="yes"/>
      <point x="536" y="563"/>
      <point x="499" y="547"/>
      <point x="476" y="527" type="curve"/>
      <point x="471" y="527" type="line"/>
      <point x="473" y="570"/>
      <point x="474" y="573"/>
      <point x="474" y="594" type="curve" smooth="yes"/>
      <point x="474" y="760" type="line"/>
      <point x="323" y="760" type="line"/>
      <point x="323" y="595" type="line" smooth="yes"/>
      <point x="323" y="574"/>
      <point x="324" y="569"/>
      <point x="328" y="527" type="curve"/>
      <point x="322" y="527" type="line"/>
      <point x="300" y="548"/>
      <point x="263" y="563"/>
      <point x="203" y="563" type="curve" smooth="yes"/>
      <point x="81" y="563"/>
      <point x="11" y="478"/>
      <point x="11" y="280" type="curve" smooth="yes"/>
      <point x="11" y="121"/>
      <point x="64" y="-10"/>
    </contour>
    <contour>
      <point x="241" y="140" type="curve" smooth="yes"/>
      <point x="198" y="140"/>
      <point x="170" y="175"/>
      <point x="170" y="283" type="curve" smooth="yes"/>
      <point x="170" y="377"/>
      <point x="197" y="409"/>
      <point x="241" y="409" type="curve" smooth="yes"/>
      <point x="297" y="409"/>
      <point x="323" y="385"/>
      <point x="323" y="285" type="curve" smooth="yes"/>
      <point x="323" y="172"/>
      <point x="299" y="140"/>
    </contour>
    <contour>
      <point x="557" y="139" type="curve" smooth="yes"/>
      <point x="500" y="139"/>
      <point x="474" y="167"/>
      <point x="474" y="285" type="curve" smooth="yes"/>
      <point x="474" y="390"/>
      <point x="495" y="409"/>
      <point x="556" y="409" type="curve" smooth="yes"/>
      <point x="602" y="409"/>
      <point x="628" y="376"/>
      <point x="628" y="282" type="curve" smooth="yes"/>
      <point x="628" y="176"/>
      <point x="600" y="139"/>
    </contour>
  </outline>
</glyph>
<glyph name="uni023C" format="2">
  <advance width="800"/>
  <unicode hex="023C"/>
  <anchor x="400" y="-208" name="bottom"/>
  <anchor x="429" y="760" name="top"/>
  <anchor x="771" y="557" name="topright"/>
  <outline>
    <contour>
      <point x="120" y="-208" type="line"/>
      <point x="262" y="-208" type="line"/>
      <point x="756" y="760" type="line"/>
      <point x="615" y="760" type="line"/>
    </contour>
    <component base="c" xOffset="-30"/>
  </outline>
</glyph>
<glyph name="uni023E" format="2">
  <advance width="800"/>
  <unicode hex="023E"/>
  <anchor x="400" y="-75" name="bottom"/>
  <anchor x="400" y="760" name="top"/>
  <anchor x="771" y="714" name="topright"/>
  <anchor x="370" y="357" name="center"/>
  <outline>
    <contour>
      <point x="29" y="-75" type="line"/>
      <point x="150" y="-75" type="line"/>
      <point x="774" y="760" type="line"/>
      <point x="653" y="760" type="line"/>
    </contour>
    <component base="T" xOffset="-30"/>
  </outline>
</glyph>
<glyph name="uni023F" format="2">
  <advance width="800"/>
  <unicode hex="023F"/>
  <anchor x="428" y="-240" name="bottom"/>
  <anchor x="400" y="557" name="top"/>
  <anchor x="771" y="557" name="topright"/>
  <outline>
    <contour>
      <point x="529" y="-240" type="curve" smooth="yes"/>
      <point x="585" y="-240"/>
      <point x="625" y="-231"/>
      <point x="653" y="-223" type="curve"/>
      <point x="653" y="-77" type="line"/>
      <point x="631" y="-82"/>
      <point x="599" y="-86"/>
      <point x="561" y="-86" type="curve" smooth="yes"/>
      <point x="497" y="-86"/>
      <point x="464" y="-76"/>
      <point x="430" y="-44" type="curve" smooth="yes"/>
      <point x="410" y="-25"/>
      <point x="391" y="-14"/>
      <point x="367" y="-6" type="curve"/>
      <point x="138" y="13" type="line"/>
      <point x="198" y="-2"/>
      <point x="225" y="-34"/>
      <point x="255" y="-85" type="curve" smooth="yes"/>
      <point x="304" y="-169"/>
      <point x="363" y="-240"/>
    </contour>
    <component base="s" xOffset="-30"/>
  </outline>
</glyph>
<glyph name="uni0241" format="2">
  <advance width="800"/>
  <unicode hex="0241"/>
  <anchor x="367" y="0" name="bottom"/>
  <anchor x="367" y="714" name="top"/>
  <outline>
    <contour>
      <point x="251" y="0" type="line"/>
      <point x="468" y="0" type="line"/>
      <point x="468" y="250" type="line"/>
      <point x="681" y="301"/>
      <point x="756" y="392"/>
      <point x="756" y="494" type="curve" smooth="yes"/>
      <point x="756" y="630"/>
      <point x="625" y="725"/>
      <point x="379" y="725" type="curve" smooth="yes"/>
      <point x="218" y="725"/>
      <point x="102" y="697"/>
      <point x="13" y="655" type="curve"/>
      <point x="90" y="500" type="line"/>
      <point x="141" y="519"/>
      <point x="229" y="554"/>
      <point x="349" y="554" type="curve" smooth="yes"/>
      <point x="482" y="554"/>
      <point x="535" y="528"/>
      <point x="535" y="479" type="curve" smooth="yes"/>
      <point x="535" y="422"/>
      <point x="458" y="381"/>
      <point x="251" y="338" type="curve"/>
    </contour>
  </outline>
</glyph>
<glyph name="uni0242" format="2">
  <advance width="800"/>
  <unicode hex="0242"/>
  <anchor x="350" y="0" name="bottom"/>
  <anchor x="367" y="557" name="top"/>
  <outline>
    <contour>
      <point x="247" y="0" type="line"/>
      <point x="448" y="0" type="line"/>
      <point x="448" y="89" type="line"/>
      <point x="640" y="158"/>
      <point x="709" y="239"/>
      <point x="709" y="335" type="curve" smooth="yes"/>
      <point x="709" y="470"/>
      <point x="590" y="563"/>
      <point x="378" y="563" type="curve" smooth="yes"/>
      <point x="266" y="563"/>
      <point x="168" y="537"/>
      <point x="82" y="497" type="curve"/>
      <point x="153" y="358" type="line"/>
      <point x="206" y="382"/>
      <point x="289" y="407"/>
      <point x="358" y="407" type="curve" smooth="yes"/>
      <point x="452" y="407"/>
      <point x="506" y="375"/>
      <point x="506" y="332" type="curve" smooth="yes"/>
      <point x="506" y="303"/>
      <point x="444" y="225"/>
      <point x="247" y="170" type="curve"/>
    </contour>
  </outline>
</glyph>
<glyph name="uni0246" format="2">
  <advance width="800"/>
  <unicode hex="0246"/>
  <anchor x="400" y="-75" name="bottom"/>
  <anchor x="400" y="760" name="top"/>
  <anchor x="-31" y="714" name="topleft"/>
  <anchor x="604" y="10" name="ogonek"/>
  <anchor x="771" y="714" name="topright"/>
  <outline>
    <contour>
      <point x="259" y="-75" type="line"/>
      <point x="400" y="-75" type="line"/>
      <point x="705" y="760" type="line"/>
      <point x="565" y="760" type="line"/>
    </contour>
    <component base="E" xOffset="-30"/>
  </outline>
</glyph>
<glyph name="uni0249" format="2">
  <advance width="800"/>
  <unicode hex="0249"/>
  <anchor x="400" y="-245" name="bottom"/>
  <anchor x="467" y="781" name="top"/>
  <anchor x="771" y="781" name="topright"/>
  <outline>
    <contour>
      <point x="178" y="196" type="line"/>
      <point x="751" y="196" type="line"/>
      <point x="751" y="330" type="line"/>
      <point x="178" y="330" type="line"/>
    </contour>
    <component base="j" xOffset="-30"/>
  </outline>
</glyph>
<glyph name="uni024A" format="2">
  <advance width="800"/>
  <unicode hex="024A"/>
  <anchor x="400" y="-240" name="bottom"/>
  <anchor x="400" y="714" name="top"/>
  <outline>
    <contour>
      <point x="789" y="-240" type="curve" smooth="yes"/>
      <point x="844" y="-240"/>
      <point x="883" y="-230"/>
      <point x="905" y="-223" type="curve"/>
      <point x="905" y="-77" type="line"/>
      <point x="885" y="-81"/>
      <point x="860" y="-88"/>
      <point x="834" y="-88" type="curve" smooth="yes"/>
      <point x="786" y="-88"/>
      <point x="755" y="-74"/>
      <point x="755" y="-33" type="curve" smooth="yes"/>
      <point x="755" y="122" type="line"/>
      <point x="558" y="80" type="line"/>
      <point x="554" y="46"/>
      <point x="552" y="30"/>
      <point x="552" y="-25" type="curve" smooth="yes"/>
      <point x="552" y="-45" type="line" smooth="yes"/>
      <point x="552" y="-186"/>
      <point x="646" y="-240"/>
    </contour>
    <component base="uni2C6D" xOffset="-30"/>
  </outline>
</glyph>
<glyph name="uni024B" format="2">
  <advance width="800"/>
  <unicode hex="024B"/>
  <anchor x="366" y="-240" name="bottom"/>
  <anchor x="360" y="557" name="top"/>
  <outline>
    <contour>
      <point x="753" y="-240" type="curve" smooth="yes"/>
      <point x="806" y="-240"/>
      <point x="856" y="-237"/>
      <point x="883" y="-222" type="curve"/>
      <point x="883" y="-59" type="line"/>
      <point x="861" y="-66"/>
      <point x="839" y="-69"/>
      <point x="807" y="-69" type="curve" smooth="yes"/>
      <point x="766" y="-69"/>
      <point x="744" y="-52"/>
      <point x="744" y="-44" type="curve" smooth="yes"/>
      <point x="744" y="557" type="line"/>
      <point x="597" y="557" type="line"/>
      <point x="561" y="487" type="line"/>
      <point x="555" y="487" type="line"/>
      <point x="501" y="553"/>
      <point x="423" y="567"/>
      <point x="330" y="567" type="curve" smooth="yes"/>
      <point x="122" y="567"/>
      <point x="28" y="410"/>
      <point x="28" y="278" type="curve" smooth="yes"/>
      <point x="28" y="140"/>
      <point x="124" y="-10"/>
      <point x="324" y="-10" type="curve" smooth="yes"/>
      <point x="422" y="-10"/>
      <point x="503" y="10"/>
      <point x="548" y="70" type="curve"/>
      <point x="555" y="70" type="line"/>
      <point x="549" y="10"/>
      <point x="548" y="5"/>
      <point x="548" y="-11" type="curve" smooth="yes"/>
      <point x="548" y="-46" type="line" smooth="yes"/>
      <point x="548" y="-150"/>
      <point x="614" y="-240"/>
    </contour>
    <contour>
      <point x="391" y="145" type="curve" smooth="yes"/>
      <point x="279" y="145"/>
      <point x="229" y="186"/>
      <point x="229" y="275" type="curve" smooth="yes"/>
      <point x="229" y="368"/>
      <point x="281" y="411"/>
      <point x="392" y="411" type="curve" smooth="yes"/>
      <point x="509" y="411"/>
      <point x="559" y="372"/>
      <point x="559" y="274" type="curve" smooth="yes"/>
      <point x="559" y="258" type="line" smooth="yes"/>
      <point x="559" y="200"/>
      <point x="507" y="145"/>
    </contour>
  </outline>
</glyph>
<glyph name="uni0255" format="2">
  <advance width="800"/>
  <unicode hex="0255"/>
  <anchor x="400" y="0" name="bottom"/>
  <anchor x="400" y="557" name="top"/>
  <outline>
    <contour>
      <point x="169" y="-60" type="line"/>
      <point x="185" y="-28"/>
      <point x="201" y="-3"/>
      <point x="220" y="23" type="curve"/>
      <point x="275" y="5"/>
      <point x="349" y="-10"/>
      <point x="449" y="-10" type="curve" smooth="yes"/>
      <point x="605" y="-10"/>
      <point x="737" y="53"/>
      <point x="737" y="175" type="curve" smooth="yes"/>
      <point x="737" y="260"/>
      <point x="660" y="317"/>
      <point x="502" y="317" type="curve" smooth="yes"/>
      <point x="395" y="317"/>
      <point x="317" y="292"/>
      <point x="275" y="281" type="curve"/>
      <point x="270" y="285"/>
      <point x="267" y="291"/>
      <point x="267" y="294" type="curve" smooth="yes"/>
      <point x="267" y="359"/>
      <point x="332" y="412"/>
      <point x="469" y="412" type="curve" smooth="yes"/>
      <point x="546" y="412"/>
      <point x="607" y="397"/>
      <point x="655" y="382" type="curve"/>
      <point x="715" y="522" type="line"/>
      <point x="661" y="544"/>
      <point x="569" y="567"/>
      <point x="457" y="567" type="curve"/>
      <point x="215" y="567"/>
      <point x="71" y="471"/>
      <point x="71" y="276" type="curve" smooth="yes"/>
      <point x="71" y="193"/>
      <point x="91" y="139"/>
      <point x="126" y="99" type="curve"/>
      <point x="99" y="65"/>
      <point x="75" y="26"/>
      <point x="53" y="-17" type="curve"/>
    </contour>
    <contour>
      <point x="461" y="139" type="curve" smooth="yes"/>
      <point x="385" y="139"/>
      <point x="343" y="156"/>
      <point x="317" y="176" type="curve"/>
      <point x="352" y="187"/>
      <point x="404" y="212"/>
      <point x="478" y="212" type="curve" smooth="yes"/>
      <point x="547" y="212"/>
      <point x="576" y="203"/>
      <point x="576" y="176" type="curve" smooth="yes"/>
      <point x="576" y="151"/>
      <point x="531" y="139"/>
    </contour>
  </outline>
</glyph>
<glyph name="uni0257" format="2">
  <advance width="800"/>
  <unicode hex="0257"/>
  <anchor x="400" y="0" name="bottom"/>
  <anchor x="400" y="771" name="top"/>
  <outline>
    <contour>
      <point x="333" y="-10" type="curve" smooth="yes"/>
      <point x="434" y="-10"/>
      <point x="510" y="11"/>
      <point x="561" y="70" type="curve"/>
      <point x="570" y="70" type="line"/>
      <point x="592" y="0" type="line"/>
      <point x="744" y="0" type="line"/>
      <point x="744" y="557" type="line" smooth="yes"/>
      <point x="744" y="590"/>
      <point x="764" y="605"/>
      <point x="802" y="605" type="curve" smooth="yes"/>
      <point x="820" y="605"/>
      <point x="836" y="602"/>
      <point x="851" y="598" type="curve"/>
      <point x="851" y="759" type="line"/>
      <point x="829" y="763"/>
      <point x="792" y="771"/>
      <point x="753" y="771" type="curve" smooth="yes"/>
      <point x="633" y="771"/>
      <point x="556" y="718"/>
      <point x="556" y="613" type="curve" smooth="yes"/>
      <point x="556" y="619" type="line" smooth="yes"/>
      <point x="556" y="578"/>
      <point x="558" y="555"/>
      <point x="562" y="483" type="curve"/>
      <point x="555" y="483" type="line"/>
      <point x="507" y="546"/>
      <point x="431" y="567"/>
      <point x="336" y="567" type="curve" smooth="yes"/>
      <point x="123" y="567"/>
      <point x="28" y="426"/>
      <point x="28" y="277" type="curve" smooth="yes"/>
      <point x="28" y="141"/>
      <point x="125" y="-10"/>
    </contour>
    <contour>
      <point x="397" y="145" type="curve" smooth="yes"/>
      <point x="287" y="145"/>
      <point x="230" y="181"/>
      <point x="230" y="274" type="curve" smooth="yes"/>
      <point x="230" y="361"/>
      <point x="290" y="411"/>
      <point x="402" y="411" type="curve" smooth="yes"/>
      <point x="524" y="411"/>
      <point x="560" y="355"/>
      <point x="560" y="274" type="curve" smooth="yes"/>
      <point x="560" y="262" type="line" smooth="yes"/>
      <point x="560" y="194"/>
      <point x="511" y="145"/>
    </contour>
  </outline>
</glyph>
<glyph name="schwahook" format="2">
  <advance width="800"/>
  <unicode hex="025A"/>
  <anchor x="290" y="0" name="bottom"/>
  <anchor x="290" y="557" name="top"/>
  <outline>
    <contour>
      <point x="271" y="-10" type="curve" smooth="yes"/>
      <point x="458" y="-10"/>
      <point x="550" y="71"/>
      <point x="554" y="255" type="curve"/>
      <point x="571" y="257" type="line"/>
      <point x="590" y="170"/>
      <point x="640" y="146"/>
      <point x="717" y="146" type="curve" smooth="yes"/>
      <point x="766" y="146"/>
      <point x="806" y="165"/>
      <point x="834" y="192" type="curve"/>
      <point x="795" y="273" type="line"/>
      <point x="779" y="265"/>
      <point x="758" y="254"/>
      <point x="733" y="254" type="curve" smooth="yes"/>
      <point x="698" y="254"/>
      <point x="674" y="265"/>
      <point x="661" y="344" type="curve" smooth="yes"/>
      <point x="650" y="411" type="line"/>
      <point x="544" y="378" type="line"/>
      <point x="522" y="503"/>
      <point x="431" y="566"/>
      <point x="260" y="566" type="curve" smooth="yes"/>
      <point x="172" y="566"/>
      <point x="104" y="547"/>
      <point x="58" y="528" type="curve"/>
      <point x="58" y="397" type="line"/>
      <point x="104" y="414"/>
      <point x="158" y="430"/>
      <point x="222" y="430" type="curve" smooth="yes"/>
      <point x="320" y="430"/>
      <point x="371" y="398"/>
      <point x="379" y="326" type="curve"/>
      <point x="24" y="242" type="line"/>
      <point x="24" y="64"/>
      <point x="100" y="-10"/>
    </contour>
    <contour>
      <point x="275" y="124" type="curve" smooth="yes"/>
      <point x="213" y="124"/>
      <point x="191" y="138"/>
      <point x="190" y="173" type="curve"/>
      <point x="382" y="199" type="line"/>
      <point x="382" y="137"/>
      <point x="354" y="124"/>
    </contour>
  </outline>
</glyph>
<glyph name="eopenreversedhook" format="2">
  <advance width="800"/>
  <unicode hex="025D"/>
  <anchor x="275" y="0" name="bottom"/>
  <anchor x="275" y="557" name="top"/>
  <outline>
    <contour>
      <point x="737" y="236" type="curve" smooth="yes"/>
      <point x="786" y="236"/>
      <point x="826" y="255"/>
      <point x="854" y="282" type="curve"/>
      <point x="815" y="363" type="line"/>
      <point x="799" y="355"/>
      <point x="778" y="344"/>
      <point x="753" y="344" type="curve" smooth="yes"/>
      <point x="718" y="344"/>
      <point x="694" y="355"/>
      <point x="681" y="434" type="curve" smooth="yes"/>
      <point x="670" y="501" type="line"/>
      <point x="542" y="463" type="line"/>
      <point x="552" y="340" type="line"/>
      <point x="593" y="347" type="line"/>
      <point x="617" y="266"/>
      <point x="660" y="236"/>
    </contour>
    <component base="afii10073" xOffset="-131"/>
  </outline>
</glyph>
<glyph name="uni0262" format="2">
  <advance width="800"/>
  <unicode hex="0262"/>
  <anchor x="443" y="0" name="bottom"/>
  <anchor x="443" y="557" name="top"/>
  <outline>
    <contour>
      <point x="434" y="-11" type="curve" smooth="yes"/>
      <point x="545" y="-11"/>
      <point x="631" y="9"/>
      <point x="705" y="30" type="curve"/>
      <point x="705" y="324" type="line"/>
      <point x="402" y="324" type="line"/>
      <point x="402" y="214" type="line"/>
      <point x="553" y="214" type="line"/>
      <point x="553" y="124" type="line"/>
      <point x="511" y="121"/>
      <point x="483" y="120"/>
      <point x="439" y="120" type="curve" smooth="yes"/>
      <point x="290" y="120"/>
      <point x="220" y="185"/>
      <point x="220" y="273" type="curve" smooth="yes"/>
      <point x="220" y="399"/>
      <point x="319" y="437"/>
      <point x="457" y="437" type="curve" smooth="yes"/>
      <point x="525" y="437"/>
      <point x="592" y="417"/>
      <point x="646" y="399" type="curve"/>
      <point x="708" y="510" type="line"/>
      <point x="637" y="544"/>
      <point x="552" y="563"/>
      <point x="447" y="563" type="curve" smooth="yes"/>
      <point x="195" y="563"/>
      <point x="50" y="428"/>
      <point x="50" y="274" type="curve" smooth="yes"/>
      <point x="50" y="112"/>
      <point x="189" y="-11"/>
    </contour>
  </outline>
</glyph>
<glyph name="uni0263" format="2">
  <advance width="800"/>
  <unicode hex="0263"/>
  <anchor x="400" y="-240" name="bottom"/>
  <anchor x="400" y="557" name="top"/>
  <outline>
    <contour>
      <point x="392" y="-240" type="curve"/>
      <point x="530" y="-240"/>
      <point x="613" y="-172"/>
      <point x="613" y="-71" type="curve" smooth="yes"/>
      <point x="613" y="1"/>
      <point x="577" y="55"/>
      <point x="515" y="131" type="curve"/>
      <point x="830" y="557" type="line"/>
      <point x="601" y="557" type="line"/>
      <point x="465" y="353" type="line" smooth="yes"/>
      <point x="442" y="319"/>
      <point x="414" y="312"/>
      <point x="400" y="280" type="curve"/>
      <point x="395" y="280" type="line"/>
      <point x="381" y="311"/>
      <point x="351" y="332"/>
      <point x="335" y="356" type="curve" smooth="yes"/>
      <point x="201" y="557" type="line"/>
      <point x="-28" y="557" type="line"/>
      <point x="273" y="137" type="line"/>
      <point x="215" y="47"/>
      <point x="172" y="3"/>
      <point x="172" y="-68" type="curve" smooth="yes"/>
      <point x="172" y="-178"/>
      <point x="254" y="-240"/>
    </contour>
    <contour>
      <point x="392" y="-106" type="curve"/>
      <point x="361" y="-106"/>
      <point x="344" y="-91"/>
      <point x="344" y="-58" type="curve"/>
      <point x="344" y="-46"/>
      <point x="355" y="-5"/>
      <point x="392" y="32" type="curve"/>
      <point x="431" y="-9"/>
      <point x="442" y="-48"/>
      <point x="442" y="-60" type="curve"/>
      <point x="442" y="-91"/>
      <point x="425" y="-106"/>
    </contour>
  </outline>
</glyph>
<glyph name="uni0264" format="2">
  <advance width="800"/>
  <unicode hex="0264"/>
  <anchor x="400" y="0" name="bottom"/>
  <anchor x="400" y="557" name="top"/>
  <outline>
    <contour>
      <point x="399" y="-15" type="curve" smooth="yes"/>
      <point x="528" y="-15"/>
      <point x="607" y="51"/>
      <point x="607" y="141" type="curve" smooth="yes"/>
      <point x="607" y="204"/>
      <point x="569" y="243"/>
      <point x="512" y="283" type="curve"/>
      <point x="630" y="347" type="line" smooth="yes"/>
      <point x="692" y="381"/>
      <point x="715" y="406"/>
      <point x="756" y="406" type="curve" smooth="yes"/>
      <point x="770" y="406"/>
      <point x="784" y="405"/>
      <point x="797" y="403" type="curve"/>
      <point x="797" y="545" type="line"/>
      <point x="775" y="554"/>
      <point x="742" y="561"/>
      <point x="708" y="561" type="curve" smooth="yes"/>
      <point x="631" y="561"/>
      <point x="587" y="527"/>
      <point x="529" y="493" type="curve" smooth="yes"/>
      <point x="476" y="458" type="line" smooth="yes"/>
      <point x="448" y="439"/>
      <point x="429" y="426"/>
      <point x="404" y="390" type="curve"/>
      <point x="398" y="390" type="line"/>
      <point x="376" y="421"/>
      <point x="357" y="435"/>
      <point x="323" y="455" type="curve" smooth="yes"/>
      <point x="269" y="492" type="line" smooth="yes"/>
      <point x="215" y="529"/>
      <point x="171" y="561"/>
      <point x="92" y="561" type="curve" smooth="yes"/>
      <point x="54" y="561"/>
      <point x="23" y="554"/>
      <point x="2" y="546" type="curve"/>
      <point x="2" y="403" type="line"/>
      <point x="15" y="406"/>
      <point x="29" y="408"/>
      <point x="46" y="408" type="curve" smooth="yes"/>
      <point x="85" y="408"/>
      <point x="104" y="382"/>
      <point x="163" y="348" type="curve" smooth="yes"/>
      <point x="282" y="280" type="line"/>
      <point x="231" y="245"/>
      <point x="194" y="203"/>
      <point x="194" y="142" type="curve" smooth="yes"/>
      <point x="194" y="48"/>
      <point x="272" y="-15"/>
    </contour>
    <contour>
      <point x="402" y="98" type="curve" smooth="yes"/>
      <point x="373" y="98"/>
      <point x="354" y="116"/>
      <point x="354" y="136" type="curve" smooth="yes"/>
      <point x="354" y="153"/>
      <point x="369" y="174"/>
      <point x="401" y="201" type="curve"/>
      <point x="431" y="172"/>
      <point x="450" y="153"/>
      <point x="450" y="135" type="curve" smooth="yes"/>
      <point x="450" y="113"/>
      <point x="430" y="98"/>
    </contour>
  </outline>
</glyph>
<glyph name="uni0267" format="2">
  <advance width="800"/>
  <unicode hex="0267"/>
  <anchor x="400" y="-240" name="bottom"/>
  <anchor x="400" y="280" name="center"/>
  <anchor x="189" y="760" name="top"/>
  <outline>
    <contour>
      <point x="521" y="-240" type="curve" smooth="yes"/>
      <point x="699" y="-240"/>
      <point x="752" y="-132"/>
      <point x="752" y="-22" type="curve" smooth="yes"/>
      <point x="752" y="361" type="line" smooth="yes"/>
      <point x="752" y="483"/>
      <point x="657" y="567"/>
      <point x="484" y="567" type="curve" smooth="yes"/>
      <point x="381" y="567"/>
      <point x="307" y="542"/>
      <point x="257" y="490" type="curve"/>
      <point x="248" y="490" type="line"/>
      <point x="251" y="522"/>
      <point x="256" y="551"/>
      <point x="256" y="570" type="curve" smooth="yes"/>
      <point x="256" y="559" type="line" smooth="yes"/>
      <point x="256" y="595"/>
      <point x="284" y="610"/>
      <point x="325" y="610" type="curve" smooth="yes"/>
      <point x="360" y="610"/>
      <point x="385" y="605"/>
      <point x="397" y="602" type="curve"/>
      <point x="397" y="750" type="line"/>
      <point x="377" y="757"/>
      <point x="330" y="763"/>
      <point x="281" y="763" type="curve" smooth="yes"/>
      <point x="133" y="763"/>
      <point x="56" y="708"/>
      <point x="56" y="560" type="curve" smooth="yes"/>
      <point x="56" y="0" type="line"/>
      <point x="256" y="0" type="line"/>
      <point x="256" y="233" type="line" smooth="yes"/>
      <point x="256" y="377"/>
      <point x="314" y="411"/>
      <point x="417" y="411" type="curve" smooth="yes"/>
      <point x="512" y="411"/>
      <point x="552" y="368"/>
      <point x="552" y="294" type="curve" smooth="yes"/>
      <point x="552" y="23" type="line" smooth="yes"/>
      <point x="552" y="-55"/>
      <point x="520" y="-69"/>
      <point x="478" y="-69" type="curve" smooth="yes"/>
      <point x="445" y="-69"/>
      <point x="421" y="-66"/>
      <point x="399" y="-60" type="curve"/>
      <point x="399" y="-228" type="line"/>
      <point x="428" y="-235"/>
      <point x="479" y="-240"/>
    </contour>
  </outline>
</glyph>
<glyph name="uni0268" format="2">
  <advance width="800"/>
  <unicode hex="0268"/>
  <anchor x="400" y="0" name="bottom"/>
  <anchor x="400" y="781" name="top"/>
  <anchor x="663" y="781" name="topright"/>
  <outline>
    <contour>
      <point x="127" y="207" type="line"/>
      <point x="700" y="207" type="line"/>
      <point x="700" y="342" type="line"/>
      <point x="127" y="342" type="line"/>
    </contour>
    <component base="i" xOffset="-30"/>
  </outline>
</glyph>
<glyph name="uni026A" format="2">
  <advance width="800"/>
  <unicode hex="026A"/>
  <anchor x="400" y="0" name="bottom"/>
  <anchor x="400" y="557" name="top"/>
  <outline>
    <contour>
      <point x="115" y="0" type="line"/>
      <point x="684" y="0" type="line"/>
      <point x="684" y="114" type="line"/>
      <point x="485" y="131" type="line"/>
      <point x="485" y="426" type="line"/>
      <point x="684" y="442" type="line"/>
      <point x="684" y="557" type="line"/>
      <point x="115" y="557" type="line"/>
      <point x="115" y="442" type="line"/>
      <point x="312" y="426" type="line"/>
      <point x="312" y="131" type="line"/>
      <point x="115" y="114" type="line"/>
    </contour>
  </outline>
</glyph>
<glyph name="uni026C" format="2">
  <advance width="800"/>
  <unicode hex="026C"/>
  <anchor x="400" y="0" name="bottom"/>
  <anchor x="419" y="760" name="top"/>
  <anchor x="658" y="760" name="topright"/>
  <anchor x="398" y="391" name="center"/>
  <outline>
    <contour>
      <point x="269" y="276" type="curve"/>
      <point x="668" y="276" type="line"/>
      <point x="668" y="374" type="line"/>
      <point x="523" y="374" type="line"/>
      <point x="324" y="519" type="line"/>
      <point x="303" y="523"/>
      <point x="279" y="528"/>
      <point x="249" y="528" type="curve"/>
      <point x="141" y="528"/>
      <point x="83" y="481"/>
      <point x="83" y="400" type="curve"/>
      <point x="83" y="335"/>
      <point x="136" y="276"/>
    </contour>
    <contour>
      <point x="281" y="374" type="line" smooth="yes"/>
      <point x="248" y="374"/>
      <point x="222" y="379"/>
      <point x="222" y="402" type="curve"/>
      <point x="222" y="422"/>
      <point x="238" y="430"/>
      <point x="270" y="430" type="curve"/>
      <point x="303" y="430"/>
      <point x="324" y="431"/>
      <point x="324" y="395" type="curve"/>
      <point x="324" y="374" type="line"/>
    </contour>
    <component base="l" xOffset="-30"/>
  </outline>
</glyph>
<glyph name="uni0271" format="2">
  <advance width="800"/>
  <unicode hex="0271"/>
  <anchor x="650" y="-240" name="bottom"/>
  <anchor x="401" y="557" name="top"/>
  <outline>
    <contour>
      <point x="573" y="-240" type="curve" smooth="yes"/>
      <point x="745" y="-240"/>
      <point x="784" y="-105"/>
      <point x="784" y="-2" type="curve" smooth="yes"/>
      <point x="784" y="360" type="line" smooth="yes"/>
      <point x="784" y="484"/>
      <point x="759" y="567"/>
      <point x="636" y="567" type="curve" smooth="yes"/>
      <point x="553" y="567"/>
      <point x="512" y="528"/>
      <point x="476" y="469" type="curve"/>
      <point x="470" y="469" type="line"/>
      <point x="454" y="527"/>
      <point x="417" y="567"/>
      <point x="332" y="567" type="curve" smooth="yes"/>
      <point x="261" y="567"/>
      <point x="217" y="536"/>
      <point x="186" y="482" type="curve"/>
      <point x="175" y="482" type="line"/>
      <point x="153" y="557" type="line"/>
      <point x="17" y="557" type="line"/>
      <point x="17" y="0" type="line"/>
      <point x="187" y="0" type="line"/>
      <point x="187" y="374" type="line" smooth="yes"/>
      <point x="187" y="392"/>
      <point x="203" y="412"/>
      <point x="258" y="412" type="curve" smooth="yes"/>
      <point x="305" y="412"/>
      <point x="318" y="402"/>
      <point x="318" y="359" type="curve" smooth="yes"/>
      <point x="318" y="0" type="line"/>
      <point x="484" y="0" type="line"/>
      <point x="484" y="373" type="line" smooth="yes"/>
      <point x="484" y="390"/>
      <point x="504" y="412"/>
      <point x="557" y="412" type="curve" smooth="yes"/>
      <point x="604" y="412"/>
      <point x="614" y="402"/>
      <point x="614" y="359" type="curve" smooth="yes"/>
      <point x="614" y="-7" type="line" smooth="yes"/>
      <point x="614" y="-82"/>
      <point x="579" y="-96"/>
      <point x="534" y="-96" type="curve" smooth="yes"/>
      <point x="504" y="-96"/>
      <point x="487" y="-94"/>
      <point x="467" y="-87" type="curve"/>
      <point x="467" y="-227" type="line"/>
      <point x="493" y="-234"/>
      <point x="529" y="-240"/>
    </contour>
  </outline>
</glyph>
<glyph name="uni0272" format="2">
  <advance width="800"/>
  <unicode hex="0272"/>
  <anchor x="425" y="-240" name="bottom"/>
  <anchor x="411" y="557" name="top"/>
  <outline>
    <contour>
      <point x="35" y="-240" type="curve" smooth="yes"/>
      <point x="192" y="-240"/>
      <point x="255" y="-138"/>
      <point x="255" y="-44" type="curve" smooth="yes"/>
      <point x="255" y="234" type="line" smooth="yes"/>
      <point x="255" y="344"/>
      <point x="297" y="411"/>
      <point x="419" y="411" type="curve" smooth="yes"/>
      <point x="512" y="411"/>
      <point x="552" y="367"/>
      <point x="552" y="292" type="curve" smooth="yes"/>
      <point x="552" y="0" type="line"/>
      <point x="751" y="0" type="line"/>
      <point x="751" y="359" type="line" smooth="yes"/>
      <point x="751" y="488"/>
      <point x="660" y="567"/>
      <point x="488" y="567" type="curve" smooth="yes"/>
      <point x="374" y="567"/>
      <point x="292" y="538"/>
      <point x="245" y="489" type="curve"/>
      <point x="234" y="489" type="line"/>
      <point x="207" y="557" type="line"/>
      <point x="55" y="557" type="line"/>
      <point x="55" y="-48" type="line" smooth="yes"/>
      <point x="55" y="-56"/>
      <point x="32" y="-73"/>
      <point x="-14" y="-73" type="curve" smooth="yes"/>
      <point x="-36" y="-73"/>
      <point x="-58" y="-71"/>
      <point x="-71" y="-67" type="curve"/>
      <point x="-71" y="-226" type="line"/>
      <point x="-52" y="-233"/>
      <point x="-12" y="-240"/>
    </contour>
  </outline>
</glyph>
<glyph name="uni0273" format="2">
  <advance width="800"/>
  <unicode hex="0273"/>
  <anchor x="413" y="-240" name="bottom"/>
  <anchor x="419" y="557" name="top"/>
  <outline>
    <contour>
      <point x="773" y="-240" type="curve" smooth="yes"/>
      <point x="826" y="-240"/>
      <point x="879" y="-229"/>
      <point x="901" y="-222" type="curve"/>
      <point x="901" y="-61" type="line"/>
      <point x="879" y="-67"/>
      <point x="855" y="-69"/>
      <point x="826" y="-69" type="curve" smooth="yes"/>
      <point x="775" y="-69"/>
      <point x="752" y="-52"/>
      <point x="752" y="-39" type="curve" smooth="yes"/>
      <point x="752" y="359" type="line" smooth="yes"/>
      <point x="752" y="488"/>
      <point x="660" y="567"/>
      <point x="489" y="567" type="curve" smooth="yes"/>
      <point x="374" y="567"/>
      <point x="292" y="538"/>
      <point x="246" y="489" type="curve"/>
      <point x="234" y="489" type="line"/>
      <point x="207" y="557" type="line"/>
      <point x="56" y="557" type="line"/>
      <point x="56" y="0" type="line"/>
      <point x="256" y="0" type="line"/>
      <point x="256" y="234" type="line" smooth="yes"/>
      <point x="256" y="344"/>
      <point x="297" y="411"/>
      <point x="419" y="411" type="curve" smooth="yes"/>
      <point x="512" y="411"/>
      <point x="552" y="367"/>
      <point x="552" y="292" type="curve" smooth="yes"/>
      <point x="552" y="-40" type="line" smooth="yes"/>
      <point x="552" y="-153"/>
      <point x="611" y="-240"/>
    </contour>
  </outline>
</glyph>
<glyph name="uni0276" format="2">
  <advance width="800"/>
  <unicode hex="0276"/>
  <anchor x="400" y="0" name="bottom"/>
  <anchor x="400" y="557" name="top"/>
  <outline>
    <contour>
      <point x="272" y="-10" type="curve" smooth="yes"/>
      <point x="342" y="-10"/>
      <point x="393" y="4"/>
      <point x="429" y="33" type="curve"/>
      <point x="429" y="0" type="line"/>
      <point x="781" y="0" type="line"/>
      <point x="781" y="139" type="line"/>
      <point x="565" y="139" type="line"/>
      <point x="565" y="206" type="line"/>
      <point x="763" y="206" type="line"/>
      <point x="763" y="344" type="line"/>
      <point x="565" y="344" type="line"/>
      <point x="565" y="418" type="line"/>
      <point x="781" y="418" type="line"/>
      <point x="781" y="557" type="line"/>
      <point x="429" y="557" type="line"/>
      <point x="429" y="519" type="line"/>
      <point x="391" y="554"/>
      <point x="338" y="567"/>
      <point x="273" y="567" type="curve" smooth="yes"/>
      <point x="90" y="567"/>
      <point x="10" y="449"/>
      <point x="10" y="279" type="curve" smooth="yes"/>
      <point x="10" y="112"/>
      <point x="90" y="-10"/>
    </contour>
    <contour>
      <point x="299" y="139" type="curve" smooth="yes"/>
      <point x="212" y="139"/>
      <point x="180" y="182"/>
      <point x="180" y="277" type="curve" smooth="yes"/>
      <point x="180" y="380"/>
      <point x="213" y="417"/>
      <point x="299" y="417" type="curve" smooth="yes"/>
      <point x="387" y="417"/>
      <point x="414" y="366"/>
      <point x="414" y="280" type="curve" smooth="yes"/>
      <point x="414" y="193"/>
      <point x="387" y="139"/>
    </contour>
  </outline>
</glyph>
<glyph name="omegaclosed" format="2">
  <advance width="800"/>
  <unicode hex="0277"/>
  <anchor x="398" y="0" name="bottom"/>
  <anchor x="400" y="557" name="top"/>
  <outline>
    <contour>
      <point x="222" y="-10" type="curve"/>
      <point x="326" y="-10"/>
      <point x="373" y="42"/>
      <point x="398" y="96" type="curve"/>
      <point x="402" y="96" type="line"/>
      <point x="424" y="47"/>
      <point x="470" y="-10"/>
      <point x="575" y="-10" type="curve"/>
      <point x="723" y="-10"/>
      <point x="801" y="84"/>
      <point x="801" y="240" type="curve"/>
      <point x="801" y="428"/>
      <point x="678" y="564"/>
      <point x="402" y="564" type="curve"/>
      <point x="140" y="564"/>
      <point x="-2" y="432"/>
      <point x="-2" y="240" type="curve"/>
      <point x="-2" y="84"/>
      <point x="80" y="-10"/>
    </contour>
    <contour>
      <point x="251" y="146" type="curve" smooth="yes"/>
      <point x="207" y="146"/>
      <point x="179" y="168"/>
      <point x="179" y="242" type="curve" smooth="yes"/>
      <point x="179" y="333"/>
      <point x="239" y="422"/>
      <point x="399" y="422" type="curve"/>
      <point x="561" y="422"/>
      <point x="621" y="332"/>
      <point x="621" y="239" type="curve" smooth="yes"/>
      <point x="621" y="168"/>
      <point x="592" y="146"/>
      <point x="546" y="146" type="curve" smooth="yes"/>
      <point x="501" y="146"/>
      <point x="481" y="148"/>
      <point x="481" y="184" type="curve" smooth="yes"/>
      <point x="481" y="326" type="line"/>
      <point x="318" y="326" type="line"/>
      <point x="318" y="184" type="line" smooth="yes"/>
      <point x="318" y="147"/>
      <point x="296" y="146"/>
    </contour>
  </outline>
</glyph>
<glyph name="uni027A" format="2">
  <advance width="800"/>
  <unicode hex="027A"/>
  <anchor x="339" y="0" name="bottom"/>
  <anchor x="456" y="760" name="top"/>
  <outline>
    <contour>
      <point x="152" y="-10" type="curve" smooth="yes"/>
      <point x="258" y="-10"/>
      <point x="325" y="34"/>
      <point x="366" y="88" type="curve"/>
      <point x="375" y="88" type="line"/>
      <point x="405" y="0" type="line"/>
      <point x="738" y="0" type="line"/>
      <point x="738" y="140" type="line"/>
      <point x="548" y="154" type="line"/>
      <point x="548" y="760" type="line"/>
      <point x="360" y="760" type="line"/>
      <point x="360" y="316" type="line" smooth="yes"/>
      <point x="360" y="211"/>
      <point x="281" y="175"/>
      <point x="167" y="175" type="curve" smooth="yes"/>
      <point x="130" y="175"/>
      <point x="79" y="178"/>
      <point x="47" y="187" type="curve"/>
      <point x="-2" y="3" type="line"/>
      <point x="59" y="-12"/>
      <point x="110" y="-10"/>
    </contour>
  </outline>
</glyph>
<glyph name="uni027E" format="2">
  <advance width="800"/>
  <unicode hex="027E"/>
  <anchor x="400" y="0" name="bottom"/>
  <anchor x="475" y="557" name="top"/>
  <outline>
    <contour>
      <point x="206" y="0" type="line"/>
      <point x="404" y="0" type="line"/>
      <point x="404" y="273" type="line" smooth="yes"/>
      <point x="404" y="333"/>
      <point x="449" y="398"/>
      <point x="578" y="398" type="curve" smooth="yes"/>
      <point x="629" y="398"/>
      <point x="667" y="395"/>
      <point x="695" y="387" type="curve"/>
      <point x="728" y="549" type="line"/>
      <point x="687" y="561"/>
      <point x="623" y="570"/>
      <point x="541" y="570" type="curve" smooth="yes"/>
      <point x="336" y="570"/>
      <point x="206" y="484"/>
      <point x="206" y="283" type="curve" smooth="yes"/>
    </contour>
  </outline>
</glyph>
<glyph name="uni0280" format="2">
  <advance width="800"/>
  <unicode hex="0280"/>
  <anchor x="425" y="0" name="bottom"/>
  <anchor x="400" y="557" name="top"/>
  <outline>
    <contour>
      <point x="126" y="0" type="line"/>
      <point x="294" y="0" type="line"/>
      <point x="294" y="185" type="line"/>
      <point x="400" y="185" type="line"/>
      <point x="556" y="0" type="line"/>
      <point x="743" y="0" type="line"/>
      <point x="556" y="221" type="line"/>
      <point x="641" y="261"/>
      <point x="697" y="326"/>
      <point x="697" y="382" type="curve" smooth="yes"/>
      <point x="697" y="492"/>
      <point x="596" y="557"/>
      <point x="409" y="557" type="curve" smooth="yes"/>
      <point x="126" y="557" type="line"/>
    </contour>
    <contour>
      <point x="294" y="302" type="line"/>
      <point x="294" y="440" type="line"/>
      <point x="399" y="440" type="line" smooth="yes"/>
      <point x="492" y="440"/>
      <point x="529" y="420"/>
      <point x="529" y="378" type="curve" smooth="yes"/>
      <point x="529" y="327"/>
      <point x="470" y="302"/>
      <point x="378" y="302" type="curve" smooth="yes"/>
    </contour>
  </outline>
</glyph>
<glyph name="uni0282" format="2">
  <advance width="800"/>
  <unicode hex="0282"/>
  <anchor x="414" y="-291" name="bottom"/>
  <anchor x="399" y="557" name="top"/>
  <anchor x="771" y="557" name="topright"/>
  <outline>
    <contour>
      <point x="303" y="-240" type="curve" smooth="yes"/>
      <point x="353" y="-240"/>
      <point x="398" y="-235"/>
      <point x="424" y="-225" type="curve"/>
      <point x="424" y="-80" type="line"/>
      <point x="400" y="-86"/>
      <point x="378" y="-89"/>
      <point x="352" y="-89" type="curve" smooth="yes"/>
      <point x="298" y="-89"/>
      <point x="268" y="-79"/>
      <point x="268" y="-45" type="curve" smooth="yes"/>
      <point x="268" y="25" type="line"/>
      <point x="91" y="148" type="line"/>
      <point x="91" y="-66" type="line" smooth="yes"/>
      <point x="91" y="-169"/>
      <point x="164" y="-240"/>
    </contour>
    <component base="s" xOffset="-30"/>
  </outline>
</glyph>
<glyph name="uni0283" format="2">
  <advance width="800"/>
  <unicode hex="0283"/>
  <anchor x="306" y="-240" name="bottom"/>
  <anchor x="521" y="763" name="top"/>
  <outline>
    <contour>
      <point x="214" y="-240" type="curve" smooth="yes"/>
      <point x="395" y="-240"/>
      <point x="501" y="-128"/>
      <point x="501" y="-3" type="curve" smooth="yes"/>
      <point x="501" y="532" type="line" smooth="yes"/>
      <point x="501" y="574"/>
      <point x="546" y="601"/>
      <point x="625" y="601" type="curve" smooth="yes"/>
      <point x="667" y="601"/>
      <point x="700" y="596"/>
      <point x="718" y="593" type="curve"/>
      <point x="718" y="756" type="line"/>
      <point x="692" y="763"/>
      <point x="649" y="771"/>
      <point x="584" y="771" type="curve"/>
      <point x="409" y="771"/>
      <point x="295" y="678"/>
      <point x="295" y="541" type="curve" smooth="yes"/>
      <point x="295" y="10" type="line" smooth="yes"/>
      <point x="295" y="-42"/>
      <point x="249" y="-62"/>
      <point x="170" y="-62" type="curve" smooth="yes"/>
      <point x="133" y="-62"/>
      <point x="104" y="-60"/>
      <point x="83" y="-54" type="curve"/>
      <point x="83" y="-221" type="line"/>
      <point x="107" y="-229"/>
      <point x="156" y="-240"/>
    </contour>
  </outline>
</glyph>
<glyph name="uni0284" format="2">
  <advance width="800"/>
  <unicode hex="0284"/>
  <anchor x="325" y="-240" name="bottom"/>
  <anchor x="525" y="771" name="top"/>
  <outline>
    <contour>
      <point x="107" y="232" type="line"/>
      <point x="690" y="232" type="line"/>
      <point x="690" y="392" type="line"/>
      <point x="107" y="392" type="line"/>
    </contour>
    <component base="uni0283" xOffset="-30"/>
  </outline>
</glyph>
<glyph name="eshsquatreversed" format="2">
  <advance width="800"/>
  <unicode hex="0285"/>
  <anchor x="515" y="-240" name="bottom"/>
  <anchor x="273" y="557" name="top"/>
  <outline>
    <contour>
      <point x="578" y="-240" type="curve" smooth="yes"/>
      <point x="636" y="-240"/>
      <point x="685" y="-229"/>
      <point x="709" y="-221" type="curve"/>
      <point x="709" y="-54" type="line"/>
      <point x="688" y="-60"/>
      <point x="659" y="-62"/>
      <point x="622" y="-62" type="curve" smooth="yes"/>
      <point x="545" y="-62"/>
      <point x="501" y="-42"/>
      <point x="501" y="10" type="curve" smooth="yes"/>
      <point x="501" y="335" type="line"/>
      <point x="501" y="472"/>
      <point x="391" y="565"/>
      <point x="225" y="565" type="curve"/>
      <point x="159" y="565"/>
      <point x="117" y="556"/>
      <point x="91" y="549" type="curve"/>
      <point x="91" y="386" type="line"/>
      <point x="109" y="390"/>
      <point x="141" y="395"/>
      <point x="183" y="395" type="curve" smooth="yes"/>
      <point x="261" y="395"/>
      <point x="304" y="367"/>
      <point x="304" y="325" type="curve" smooth="yes"/>
      <point x="304" y="-3" type="line" smooth="yes"/>
      <point x="304" y="-128"/>
      <point x="395" y="-240"/>
    </contour>
  </outline>
</glyph>
<glyph name="uni0288" format="2">
  <advance width="800"/>
  <unicode hex="0288"/>
  <anchor x="399" y="-240" name="bottom"/>
  <anchor x="399" y="677" name="top"/>
  <outline>
    <contour>
      <point x="563" y="-240" type="curve" smooth="yes"/>
      <point x="632" y="-240"/>
      <point x="696" y="-232"/>
      <point x="764" y="-210" type="curve"/>
      <point x="764" y="-56" type="line"/>
      <point x="706" y="-75"/>
      <point x="657" y="-79"/>
      <point x="609" y="-79" type="curve" smooth="yes"/>
      <point x="532" y="-79"/>
      <point x="461" y="-82"/>
      <point x="461" y="11" type="curve" smooth="yes"/>
      <point x="461" y="402" type="line"/>
      <point x="754" y="402" type="line"/>
      <point x="754" y="557" type="line"/>
      <point x="461" y="557" type="line"/>
      <point x="461" y="677" type="line"/>
      <point x="318" y="677" type="line"/>
      <point x="285" y="555" type="line"/>
      <point x="67" y="492" type="line"/>
      <point x="67" y="402" type="line"/>
      <point x="270" y="402" type="line"/>
      <point x="270" y="-17" type="line" smooth="yes"/>
      <point x="270" y="-160"/>
      <point x="363" y="-240"/>
    </contour>
  </outline>
</glyph>
<glyph name="uni0290" format="2">
  <advance width="800"/>
  <unicode hex="0290"/>
  <anchor x="414" y="-240" name="bottom"/>
  <anchor x="400" y="557" name="top"/>
  <anchor x="771" y="557" name="topright"/>
  <outline>
    <contour>
      <point x="752" y="-240" type="curve"/>
      <point x="800" y="-240"/>
      <point x="847" y="-235"/>
      <point x="877" y="-226" type="curve"/>
      <point x="877" y="-80" type="line"/>
      <point x="859" y="-84"/>
      <point x="831" y="-87"/>
      <point x="805" y="-87" type="curve" smooth="yes"/>
      <point x="756" y="-87"/>
      <point x="730" y="-74"/>
      <point x="730" y="-44" type="curve" smooth="yes"/>
      <point x="730" y="152" type="line"/>
      <point x="555" y="0" type="line"/>
      <point x="555" y="-57" type="line" smooth="yes"/>
      <point x="555" y="-186"/>
      <point x="633" y="-240"/>
    </contour>
    <component base="z" xOffset="-30"/>
  </outline>
</glyph>
<glyph name="ezhcurl" format="2">
  <advance width="800"/>
  <unicode hex="0293"/>
  <anchor x="384" y="-254" name="bottom"/>
  <anchor x="371" y="557" name="top"/>
  <outline>
    <contour>
      <point x="645" y="-254" type="curve"/>
      <point x="754" y="-193" type="line"/>
      <point x="731" y="-184"/>
      <point x="703" y="-171"/>
      <point x="678" y="-160" type="curve"/>
      <point x="715" y="-135"/>
      <point x="766" y="-62"/>
      <point x="766" y="50" type="curve" smooth="yes"/>
      <point x="766" y="176"/>
      <point x="619" y="264"/>
      <point x="415" y="271" type="curve"/>
      <point x="720" y="434" type="line"/>
      <point x="720" y="557" type="line"/>
      <point x="60" y="557" type="line"/>
      <point x="60" y="411" type="line"/>
      <point x="467" y="411" type="line"/>
      <point x="193" y="280" type="line"/>
      <point x="193" y="149" type="line"/>
      <point x="269" y="149" type="line" smooth="yes"/>
      <point x="475" y="149"/>
      <point x="558" y="91"/>
      <point x="558" y="25" type="curve" smooth="yes"/>
      <point x="558" y="8"/>
      <point x="553" y="-7"/>
      <point x="549" y="-15" type="curve"/>
      <point x="469" y="40"/>
      <point x="374" y="89"/>
      <point x="245" y="89" type="curve" smooth="yes"/>
      <point x="97" y="89"/>
      <point x="1" y="34"/>
      <point x="1" y="-65" type="curve" smooth="yes"/>
      <point x="1" y="-172"/>
      <point x="139" y="-240"/>
      <point x="294" y="-240" type="curve" smooth="yes"/>
      <point x="423" y="-240"/>
      <point x="518" y="-227"/>
      <point x="576" y="-217" type="curve"/>
      <point x="595" y="-222"/>
      <point x="627" y="-249"/>
    </contour>
    <contour>
      <point x="298" y="-99" type="curve"/>
      <point x="218" y="-99"/>
      <point x="162" y="-85"/>
      <point x="162" y="-54" type="curve" smooth="yes"/>
      <point x="162" y="-32"/>
      <point x="191" y="-21"/>
      <point x="255" y="-21" type="curve" smooth="yes"/>
      <point x="328" y="-21"/>
      <point x="397" y="-46"/>
      <point x="463" y="-91" type="curve"/>
      <point x="426" y="-94"/>
      <point x="368" y="-99"/>
    </contour>
  </outline>
</glyph>
<glyph name="uni0294" format="2">
  <advance width="800"/>
  <unicode hex="0294"/>
  <anchor x="351" y="0" name="bottom"/>
  <anchor x="351" y="765" name="top"/>
  <outline>
    <contour>
      <point x="237" y="0" type="line"/>
      <point x="454" y="0" type="line"/>
      <point x="454" y="292" type="line"/>
      <point x="660" y="355"/>
      <point x="728" y="430"/>
      <point x="728" y="539" type="curve" smooth="yes"/>
      <point x="728" y="674"/>
      <point x="597" y="765"/>
      <point x="365" y="765" type="curve" smooth="yes"/>
      <point x="207" y="765"/>
      <point x="107" y="740"/>
      <point x="18" y="699" type="curve"/>
      <point x="98" y="533" type="line"/>
      <point x="143" y="547"/>
      <point x="227" y="586"/>
      <point x="341" y="586" type="curve" smooth="yes"/>
      <point x="452" y="586"/>
      <point x="511" y="557"/>
      <point x="511" y="518" type="curve" smooth="yes"/>
      <point x="511" y="465"/>
      <point x="440" y="429"/>
      <point x="237" y="380" type="curve"/>
    </contour>
  </outline>
</glyph>
<glyph name="uni029B" format="2">
  <advance width="800"/>
  <unicode hex="029B"/>
  <anchor x="439" y="0" name="bottom"/>
  <anchor x="426" y="760" name="top"/>
  <outline>
    <contour>
      <point x="431" y="-11" type="curve" smooth="yes"/>
      <point x="542" y="-11"/>
      <point x="628" y="9"/>
      <point x="702" y="30" type="curve"/>
      <point x="702" y="324" type="line"/>
      <point x="399" y="324" type="line"/>
      <point x="399" y="214" type="line"/>
      <point x="550" y="214" type="line"/>
      <point x="550" y="124" type="line"/>
      <point x="508" y="121"/>
      <point x="480" y="120"/>
      <point x="436" y="120" type="curve" smooth="yes"/>
      <point x="287" y="120"/>
      <point x="223" y="185"/>
      <point x="223" y="273" type="curve" smooth="yes"/>
      <point x="223" y="399"/>
      <point x="316" y="437"/>
      <point x="454" y="437" type="curve" smooth="yes"/>
      <point x="522" y="437"/>
      <point x="589" y="417"/>
      <point x="643" y="399" type="curve"/>
      <point x="705" y="510" type="line"/>
      <point x="705" y="581" type="line" smooth="yes"/>
      <point x="705" y="616"/>
      <point x="728" y="635"/>
      <point x="770" y="635" type="curve" smooth="yes"/>
      <point x="803" y="635"/>
      <point x="833" y="629"/>
      <point x="846" y="625" type="curve"/>
      <point x="846" y="752" type="line"/>
      <point x="826" y="757"/>
      <point x="793" y="764"/>
      <point x="752" y="764" type="curve" smooth="yes"/>
      <point x="625" y="764"/>
      <point x="550" y="716"/>
      <point x="550" y="580" type="curve" smooth="yes"/>
      <point x="550" y="561" type="line"/>
      <point x="517" y="563"/>
      <point x="481" y="563"/>
      <point x="444" y="563" type="curve" smooth="yes"/>
      <point x="192" y="563"/>
      <point x="53" y="428"/>
      <point x="53" y="274" type="curve" smooth="yes"/>
      <point x="53" y="112"/>
      <point x="186" y="-11"/>
    </contour>
  </outline>
</glyph>
<glyph name="qhook" format="2">
  <advance width="800"/>
  <unicode hex="02A0"/>
  <anchor x="400" y="-240" name="bottom"/>
  <anchor x="400" y="771" name="top"/>
  <outline>
    <contour>
      <point x="549" y="-240" type="line"/>
      <point x="745" y="-240" type="line"/>
      <point x="745" y="564" type="line" smooth="yes"/>
      <point x="745" y="586"/>
      <point x="769" y="604"/>
      <point x="815" y="604" type="curve" smooth="yes"/>
      <point x="852" y="604"/>
      <point x="885" y="599"/>
      <point x="900" y="595" type="curve"/>
      <point x="900" y="758" type="line"/>
      <point x="878" y="763"/>
      <point x="824" y="771"/>
      <point x="757" y="771" type="curve" smooth="yes"/>
      <point x="648" y="771"/>
      <point x="549" y="716"/>
      <point x="549" y="598" type="curve" smooth="yes"/>
      <point x="549" y="590" type="line" smooth="yes"/>
      <point x="549" y="554"/>
      <point x="554" y="522"/>
      <point x="559" y="487" type="curve"/>
      <point x="552" y="487" type="line"/>
      <point x="509" y="533"/>
      <point x="441" y="567"/>
      <point x="329" y="567" type="curve" smooth="yes"/>
      <point x="149" y="567"/>
      <point x="29" y="468"/>
      <point x="29" y="278" type="curve" smooth="yes"/>
      <point x="29" y="90"/>
      <point x="148" y="-10"/>
      <point x="323" y="-10" type="curve"/>
      <point x="437" y="-10"/>
      <point x="508" y="26"/>
      <point x="549" y="70" type="curve"/>
      <point x="557" y="70" type="line"/>
      <point x="553" y="41"/>
      <point x="549" y="17"/>
      <point x="549" y="-11" type="curve" smooth="yes"/>
    </contour>
    <contour>
      <point x="391" y="145" type="curve" smooth="yes"/>
      <point x="287" y="145"/>
      <point x="229" y="182"/>
      <point x="229" y="275" type="curve" smooth="yes"/>
      <point x="229" y="371"/>
      <point x="287" y="411"/>
      <point x="388" y="411" type="curve" smooth="yes"/>
      <point x="522" y="411"/>
      <point x="560" y="364"/>
      <point x="560" y="276" type="curve" smooth="yes"/>
      <point x="560" y="266" type="line" smooth="yes"/>
      <point x="560" y="188"/>
      <point x="515" y="145"/>
    </contour>
  </outline>
</glyph>
<glyph name="uni02A1" format="2">
  <advance width="800"/>
  <unicode hex="02A1"/>
  <anchor x="354" y="0" name="bottom"/>
  <anchor x="400" y="765" name="top"/>
  <outline>
    <contour>
      <point x="84" y="126" type="line"/>
      <point x="643" y="126" type="line"/>
      <point x="643" y="259" type="line"/>
      <point x="84" y="259" type="line"/>
    </contour>
    <component base="uni0294" xOffset="-30"/>
  </outline>
</glyph>
<glyph name="dzlig" format="2">
  <advance width="800"/>
  <unicode hex="02A3"/>
  <anchor x="400" y="0" name="bottom"/>
  <anchor x="400" y="760" name="top"/>
  <outline>
    <contour>
      <point x="185" y="-10" type="curve" smooth="yes"/>
      <point x="248" y="-10"/>
      <point x="285" y="10"/>
      <point x="311" y="39" type="curve"/>
      <point x="317" y="39" type="line"/>
      <point x="337" y="0" type="line"/>
      <point x="809" y="0" type="line"/>
      <point x="809" y="128" type="line"/>
      <point x="620" y="128" type="line"/>
      <point x="801" y="462" type="line"/>
      <point x="801" y="557" type="line"/>
      <point x="462" y="557" type="line"/>
      <point x="462" y="760" type="line"/>
      <point x="309" y="760" type="line"/>
      <point x="309" y="597" type="line" smooth="yes"/>
      <point x="309" y="576"/>
      <point x="310" y="551"/>
      <point x="315" y="519" type="curve"/>
      <point x="310" y="519" type="line"/>
      <point x="287" y="545"/>
      <point x="253" y="567"/>
      <point x="186" y="567" type="curve" smooth="yes"/>
      <point x="72" y="567"/>
      <point x="-4" y="490"/>
      <point x="-4" y="280" type="curve" smooth="yes"/>
      <point x="-4" y="59"/>
      <point x="67" y="-10"/>
    </contour>
    <contour>
      <point x="232" y="118" type="curve" smooth="yes"/>
      <point x="181" y="118"/>
      <point x="151" y="143"/>
      <point x="151" y="283" type="curve" smooth="yes"/>
      <point x="151" y="411"/>
      <point x="178" y="434"/>
      <point x="233" y="434" type="curve" smooth="yes"/>
      <point x="290" y="434"/>
      <point x="311" y="414"/>
      <point x="311" y="304" type="curve" smooth="yes"/>
      <point x="311" y="268" type="line" smooth="yes"/>
      <point x="311" y="139"/>
      <point x="287" y="118"/>
    </contour>
    <contour>
      <point x="462" y="117" type="line"/>
      <point x="462" y="429" type="line"/>
      <point x="641" y="429" type="line"/>
    </contour>
  </outline>
</glyph>
<glyph name="uni02A4" format="2">
  <advance width="800"/>
  <unicode hex="02A4"/>
  <anchor x="399" y="-240" name="bottom"/>
  <anchor x="399" y="761" name="top"/>
  <outline>
    <contour>
      <point x="530" y="-240" type="curve" smooth="yes"/>
      <point x="703" y="-240"/>
      <point x="802" y="-135"/>
      <point x="802" y="13" type="curve" smooth="yes"/>
      <point x="802" y="163"/>
      <point x="738" y="230"/>
      <point x="632" y="248" type="curve"/>
      <point x="778" y="446" type="line"/>
      <point x="778" y="549" type="line"/>
      <point x="429" y="549" type="line"/>
      <point x="429" y="761" type="line"/>
      <point x="277" y="761" type="line"/>
      <point x="277" y="593" type="line" smooth="yes"/>
      <point x="277" y="572"/>
      <point x="277" y="551"/>
      <point x="281" y="524" type="curve"/>
      <point x="277" y="524" type="line"/>
      <point x="254" y="546"/>
      <point x="221" y="559"/>
      <point x="173" y="559" type="curve" smooth="yes"/>
      <point x="65" y="559"/>
      <point x="2" y="495"/>
      <point x="2" y="273" type="curve" smooth="yes"/>
      <point x="2" y="37"/>
      <point x="69" y="-10"/>
      <point x="166" y="-10" type="curve" smooth="yes"/>
      <point x="230" y="-10"/>
      <point x="266" y="15"/>
      <point x="285" y="49" type="curve"/>
      <point x="291" y="49" type="line"/>
      <point x="313" y="0" type="line"/>
      <point x="429" y="0" type="line"/>
      <point x="429" y="428" type="line"/>
      <point x="608" y="428" type="line"/>
      <point x="476" y="250" type="line"/>
      <point x="476" y="133" type="line"/>
      <point x="511" y="133" type="line" smooth="yes"/>
      <point x="606" y="133"/>
      <point x="648" y="102"/>
      <point x="648" y="8" type="curve" smooth="yes"/>
      <point x="648" y="-58"/>
      <point x="600" y="-106"/>
      <point x="516" y="-106" type="curve" smooth="yes"/>
      <point x="468" y="-106"/>
      <point x="435" y="-95"/>
      <point x="405" y="-83" type="curve"/>
      <point x="405" y="-217" type="line"/>
      <point x="433" y="-228"/>
      <point x="473" y="-240"/>
    </contour>
    <contour>
      <point x="220" y="117" type="curve" smooth="yes"/>
      <point x="178" y="117"/>
      <point x="154" y="134"/>
      <point x="154" y="270" type="curve" smooth="yes"/>
      <point x="154" y="412"/>
      <point x="174" y="434"/>
      <point x="219" y="434" type="curve" smooth="yes"/>
      <point x="271" y="434"/>
      <point x="287" y="412"/>
      <point x="287" y="270" type="curve" smooth="yes"/>
      <point x="287" y="257" type="line" smooth="yes"/>
      <point x="287" y="129"/>
      <point x="270" y="117"/>
    </contour>
  </outline>
</glyph>
<glyph name="dzligcurl" format="2">
  <advance width="800"/>
  <unicode hex="02A5"/>
  <anchor x="385" y="0" name="bottom"/>
  <anchor x="385" y="760" name="top"/>
  <outline>
    <contour>
      <point x="735" y="-88" type="line"/>
      <point x="748" y="-66"/>
      <point x="766" y="-30"/>
      <point x="782" y="0" type="curve"/>
      <point x="883" y="0" type="line" smooth="yes"/>
      <point x="1039" y="0"/>
      <point x="1159" y="36"/>
      <point x="1159" y="168" type="curve" smooth="yes"/>
      <point x="1159" y="250"/>
      <point x="1101" y="300"/>
      <point x="978" y="300" type="curve" smooth="yes"/>
      <point x="854" y="300"/>
      <point x="776" y="239"/>
      <point x="710" y="155" type="curve"/>
      <point x="609" y="155" type="line"/>
      <point x="984" y="435" type="line"/>
      <point x="984" y="557" type="line"/>
      <point x="385" y="557" type="line"/>
      <point x="385" y="760" type="line"/>
      <point x="176" y="760" type="line"/>
      <point x="176" y="639" type="line" smooth="yes"/>
      <point x="176" y="571"/>
      <point x="183" y="519"/>
      <point x="189" y="485" type="curve"/>
      <point x="181" y="485" type="line"/>
      <point x="139" y="532"/>
      <point x="73" y="567"/>
      <point x="-52" y="567" type="curve" smooth="yes"/>
      <point x="-239" y="567"/>
      <point x="-359" y="468"/>
      <point x="-359" y="278" type="curve" smooth="yes"/>
      <point x="-359" y="90"/>
      <point x="-240" y="-10"/>
      <point x="-59" y="-10" type="curve" smooth="yes"/>
      <point x="69" y="-10"/>
      <point x="137" y="26"/>
      <point x="176" y="70" type="curve"/>
      <point x="184" y="70" type="line"/>
      <point x="223" y="0" type="line"/>
      <point x="648" y="0" type="line"/>
      <point x="639" y="-14"/>
      <point x="628" y="-34"/>
      <point x="618" y="-53" type="curve"/>
    </contour>
    <contour>
      <point x="18" y="145" type="curve" smooth="yes"/>
      <point x="-100" y="145"/>
      <point x="-158" y="182"/>
      <point x="-158" y="275" type="curve" smooth="yes"/>
      <point x="-158" y="371"/>
      <point x="-100" y="410"/>
      <point x="16" y="410" type="curve" smooth="yes"/>
      <point x="151" y="410"/>
      <point x="189" y="371"/>
      <point x="189" y="283" type="curve" smooth="yes"/>
      <point x="189" y="267" type="line" smooth="yes"/>
      <point x="189" y="190"/>
      <point x="145" y="145"/>
    </contour>
    <contour>
      <point x="849" y="155" type="line"/>
      <point x="875" y="177"/>
      <point x="909" y="200"/>
      <point x="960" y="200" type="curve" smooth="yes"/>
      <point x="998" y="200"/>
      <point x="1014" y="195"/>
      <point x="1014" y="183" type="curve" smooth="yes"/>
      <point x="1014" y="168"/>
      <point x="987" y="155"/>
      <point x="934" y="155" type="curve" smooth="yes"/>
    </contour>
    <contour>
      <point x="385" y="146" type="line"/>
      <point x="385" y="401" type="line"/>
      <point x="756" y="401" type="line"/>
    </contour>
  </outline>
</glyph>
<glyph name="uni02A7" format="2">
  <advance width="800"/>
  <unicode hex="02A7"/>
  <anchor x="400" y="-240" name="bottom"/>
  <anchor x="400" y="768" name="top"/>
  <outline>
    <contour>
      <point x="481" y="-240" type="curve"/>
      <point x="650" y="-240"/>
      <point x="711" y="-138"/>
      <point x="711" y="-61" type="curve"/>
      <point x="711" y="582" type="line" smooth="yes"/>
      <point x="711" y="590"/>
      <point x="737" y="598"/>
      <point x="782" y="598" type="curve" smooth="yes"/>
      <point x="808" y="598"/>
      <point x="835" y="590"/>
      <point x="849" y="587" type="curve"/>
      <point x="849" y="749" type="line"/>
      <point x="829" y="755"/>
      <point x="785" y="768"/>
      <point x="729" y="768" type="curve" smooth="yes"/>
      <point x="584" y="768"/>
      <point x="504" y="719"/>
      <point x="504" y="601" type="curve" smooth="yes"/>
      <point x="504" y="558" type="line"/>
      <point x="273" y="558" type="line"/>
      <point x="273" y="665" type="line"/>
      <point x="146" y="665" type="line"/>
      <point x="88" y="553" type="line"/>
      <point x="-17" y="496" type="line"/>
      <point x="-17" y="397" type="line"/>
      <point x="76" y="397" type="line"/>
      <point x="76" y="188" type="line" smooth="yes"/>
      <point x="76" y="26"/>
      <point x="180" y="-10"/>
      <point x="311" y="-10" type="curve"/>
      <point x="388" y="-10"/>
      <point x="459" y="5"/>
      <point x="504" y="24" type="curve"/>
      <point x="504" y="-37" type="line" smooth="yes"/>
      <point x="504" y="-58"/>
      <point x="477" y="-70"/>
      <point x="432" y="-70" type="curve"/>
      <point x="405" y="-70"/>
      <point x="385" y="-66"/>
      <point x="361" y="-59" type="curve"/>
      <point x="361" y="-222" type="line"/>
      <point x="390" y="-237"/>
      <point x="436" y="-240"/>
    </contour>
    <contour>
      <point x="378" y="161" type="curve"/>
      <point x="317" y="161"/>
      <point x="273" y="169"/>
      <point x="273" y="210" type="curve" smooth="yes"/>
      <point x="273" y="397" type="line"/>
      <point x="504" y="397" type="line"/>
      <point x="504" y="183" type="line"/>
      <point x="467" y="170"/>
      <point x="423" y="161"/>
    </contour>
  </outline>
</glyph>
<glyph name="tcligcurl" format="2">
  <advance width="800"/>
  <unicode hex="02A8"/>
  <anchor x="435" y="0" name="bottom"/>
  <anchor x="435" y="677" name="top"/>
  <outline>
    <contour>
      <point x="193" y="-10" type="curve" smooth="yes"/>
      <point x="585" y="-10"/>
      <point x="687" y="199"/>
      <point x="875" y="199" type="curve" smooth="yes"/>
      <point x="932" y="199"/>
      <point x="959" y="185"/>
      <point x="959" y="168" type="curve" smooth="yes"/>
      <point x="959" y="139"/>
      <point x="918" y="135"/>
      <point x="852" y="135" type="curve" smooth="yes"/>
      <point x="721" y="135"/>
      <point x="634" y="195"/>
      <point x="634" y="285" type="curve" smooth="yes"/>
      <point x="634" y="368"/>
      <point x="710" y="412"/>
      <point x="863" y="412" type="curve" smooth="yes"/>
      <point x="918" y="412"/>
      <point x="977" y="407"/>
      <point x="1044" y="382" type="curve"/>
      <point x="1103" y="522" type="line"/>
      <point x="1027" y="553"/>
      <point x="941" y="567"/>
      <point x="845" y="567" type="curve" smooth="yes"/>
      <point x="592" y="567"/>
      <point x="445" y="459"/>
      <point x="445" y="277" type="curve" smooth="yes"/>
      <point x="445" y="83"/>
      <point x="589" y="-10"/>
      <point x="834" y="-10" type="curve" smooth="yes"/>
      <point x="1031" y="-10"/>
      <point x="1128" y="57"/>
      <point x="1128" y="169" type="curve" smooth="yes"/>
      <point x="1128" y="278"/>
      <point x="1045" y="335"/>
      <point x="891" y="335" type="curve" smooth="yes"/>
      <point x="601" y="335"/>
      <point x="489" y="139"/>
      <point x="232" y="139" type="curve" smooth="yes"/>
      <point x="136" y="139"/>
      <point x="63" y="156"/>
      <point x="63" y="254" type="curve" smooth="yes"/>
      <point x="63" y="402" type="line"/>
      <point x="333" y="402" type="line"/>
      <point x="333" y="557" type="line"/>
      <point x="63" y="557" type="line"/>
      <point x="63" y="677" type="line"/>
      <point x="-87" y="677" type="line"/>
      <point x="-120" y="555" type="line"/>
      <point x="-328" y="492" type="line"/>
      <point x="-328" y="402" type="line"/>
      <point x="-136" y="402" type="line"/>
      <point x="-136" y="208" type="line" smooth="yes"/>
      <point x="-136" y="74"/>
      <point x="-33" y="-10"/>
    </contour>
  </outline>
</glyph>
<glyph name="uni02A9" format="2">
  <advance width="800"/>
  <unicode hex="02A9"/>
  <anchor x="400" y="-240" name="bottom"/>
  <anchor x="400" y="766" name="top"/>
  <outline>
    <contour>
      <point x="598" y="-240" type="curve" smooth="yes"/>
      <point x="737" y="-240"/>
      <point x="783" y="-154"/>
      <point x="783" y="-54" type="curve" smooth="yes"/>
      <point x="783" y="429" type="line" smooth="yes"/>
      <point x="783" y="511"/>
      <point x="714" y="559"/>
      <point x="605" y="559" type="curve" smooth="yes"/>
      <point x="532" y="559"/>
      <point x="476" y="539"/>
      <point x="450" y="497" type="curve"/>
      <point x="440" y="497" type="line"/>
      <point x="425" y="549" type="line"/>
      <point x="193" y="549" type="line"/>
      <point x="193" y="588" type="line" smooth="yes"/>
      <point x="193" y="623"/>
      <point x="219" y="644"/>
      <point x="271" y="644" type="curve" smooth="yes"/>
      <point x="298" y="644"/>
      <point x="321" y="640"/>
      <point x="340" y="635" type="curve"/>
      <point x="382" y="745" type="line"/>
      <point x="355" y="754"/>
      <point x="315" y="766"/>
      <point x="253" y="766" type="curve" smooth="yes"/>
      <point x="118" y="766"/>
      <point x="29" y="698"/>
      <point x="29" y="599" type="curve" smooth="yes"/>
      <point x="29" y="549" type="line"/>
      <point x="-36" y="519" type="line"/>
      <point x="-36" y="432" type="line"/>
      <point x="29" y="432" type="line"/>
      <point x="29" y="0" type="line"/>
      <point x="193" y="0" type="line"/>
      <point x="193" y="432" type="line"/>
      <point x="300" y="432" type="line"/>
      <point x="300" y="0" type="line"/>
      <point x="463" y="0" type="line"/>
      <point x="463" y="348" type="line" smooth="yes"/>
      <point x="463" y="384"/>
      <point x="477" y="435"/>
      <point x="551" y="435" type="curve" smooth="yes"/>
      <point x="600" y="435"/>
      <point x="619" y="419"/>
      <point x="619" y="398" type="curve" smooth="yes"/>
      <point x="619" y="-39" type="line" smooth="yes"/>
      <point x="619" y="-105"/>
      <point x="594" y="-122"/>
      <point x="560" y="-122" type="curve" smooth="yes"/>
      <point x="539" y="-122"/>
      <point x="524" y="-120"/>
      <point x="509" y="-116" type="curve"/>
      <point x="509" y="-228" type="line"/>
      <point x="528" y="-233"/>
      <point x="561" y="-240"/>
    </contour>
  </outline>
</glyph>
<glyph name="uni02AB" format="2">
  <advance width="800"/>
  <unicode hex="02AB"/>
  <anchor x="400" y="0" name="bottom"/>
  <anchor x="400" y="760" name="top"/>
  <outline>
    <contour>
      <point x="64" y="0" type="line"/>
      <point x="773" y="0" type="line"/>
      <point x="773" y="153" type="line"/>
      <point x="458" y="153" type="line"/>
      <point x="761" y="437" type="line"/>
      <point x="761" y="557" type="line"/>
      <point x="252" y="557" type="line"/>
      <point x="252" y="760" type="line"/>
      <point x="64" y="760" type="line"/>
    </contour>
    <contour>
      <point x="252" y="147" type="line"/>
      <point x="252" y="403" type="line"/>
      <point x="554" y="403" type="line"/>
    </contour>
  </outline>
</glyph>
<glyph name="uni02AF" format="2">
  <advance width="800"/>
  <unicode hex="02AF"/>
  <anchor x="394" y="-240" name="bottom"/>
  <anchor x="394" y="557" name="top"/>
  <outline>
    <contour>
      <point x="773" y="-240" type="curve" smooth="yes"/>
      <point x="820" y="-240"/>
      <point x="868" y="-239"/>
      <point x="898" y="-226" type="curve"/>
      <point x="898" y="-64" type="line"/>
      <point x="883" y="-68"/>
      <point x="864" y="-73"/>
      <point x="831" y="-73" type="curve" smooth="yes"/>
      <point x="779" y="-73"/>
      <point x="752" y="-50"/>
      <point x="752" y="-26" type="curve" smooth="yes"/>
      <point x="752" y="548" type="line"/>
      <point x="553" y="548" type="line"/>
      <point x="553" y="315" type="line" smooth="yes"/>
      <point x="553" y="172"/>
      <point x="494" y="137"/>
      <point x="392" y="137" type="curve" smooth="yes"/>
      <point x="296" y="137"/>
      <point x="256" y="180"/>
      <point x="256" y="254" type="curve" smooth="yes"/>
      <point x="256" y="365" type="line" smooth="yes"/>
      <point x="256" y="498"/>
      <point x="189" y="566"/>
      <point x="46" y="566" type="curve" smooth="yes"/>
      <point x="-1" y="566"/>
      <point x="-39" y="556"/>
      <point x="-59" y="552" type="curve"/>
      <point x="-59" y="394" type="line"/>
      <point x="-45" y="397"/>
      <point x="-30" y="400"/>
      <point x="-7" y="400" type="curve" smooth="yes"/>
      <point x="34" y="400"/>
      <point x="56" y="382"/>
      <point x="56" y="349" type="curve" smooth="yes"/>
      <point x="56" y="187" type="line" smooth="yes"/>
      <point x="56" y="65"/>
      <point x="151" y="-19"/>
      <point x="324" y="-19" type="curve" smooth="yes"/>
      <point x="428" y="-19"/>
      <point x="502" y="7"/>
      <point x="551" y="58" type="curve"/>
      <point x="563" y="58" type="line"/>
      <point x="558" y="22"/>
      <point x="553" y="-33"/>
      <point x="553" y="-70" type="curve" smooth="yes"/>
      <point x="553" y="-79" type="line" smooth="yes"/>
      <point x="553" y="-155"/>
      <point x="614" y="-240"/>
    </contour>
  </outline>
</glyph>
<glyph name="ring" format="2">
  <advance width="800"/>
  <unicode hex="02DA"/>
  <outline>
    <contour>
      <point x="398" y="604" type="curve" smooth="yes"/>
      <point x="498" y="604"/>
      <point x="571" y="657"/>
      <point x="571" y="731" type="curve" smooth="yes"/>
      <point x="571" y="806"/>
      <point x="497" y="858"/>
      <point x="398" y="858" type="curve" smooth="yes"/>
      <point x="296" y="858"/>
      <point x="227" y="807"/>
      <point x="227" y="730" type="curve" smooth="yes"/>
      <point x="227" y="656"/>
      <point x="296" y="604"/>
    </contour>
    <contour>
      <point x="398" y="693" type="curve" smooth="yes"/>
      <point x="357" y="693"/>
      <point x="332" y="710"/>
      <point x="332" y="732" type="curve" smooth="yes"/>
      <point x="332" y="753"/>
      <point x="361" y="770"/>
      <point x="398" y="770" type="curve" smooth="yes"/>
      <point x="436" y="770"/>
      <point x="465" y="753"/>
      <point x="465" y="732" type="curve" smooth="yes"/>
      <point x="465" y="710"/>
      <point x="437" y="693"/>
    </contour>
  </outline>
</glyph>
<glyph name="ogonek" format="2">
  <advance width="800"/>
  <unicode hex="02DB"/>
  <outline>
    <contour>
      <point x="441" y="-244" type="curve" smooth="yes"/>
      <point x="485" y="-244"/>
      <point x="517" y="-237"/>
      <point x="545" y="-229" type="curve"/>
      <point x="545" y="-114" type="line"/>
      <point x="528" y="-120"/>
      <point x="502" y="-126"/>
      <point x="479" y="-126" type="curve" smooth="yes"/>
      <point x="438" y="-126"/>
      <point x="416" y="-111"/>
      <point x="416" y="-91" type="curve" smooth="yes"/>
      <point x="416" y="-64"/>
      <point x="442" y="-44"/>
      <point x="505" y="0" type="curve"/>
      <point x="410" y="22" type="line"/>
      <point x="320" y="-37"/>
      <point x="270" y="-87"/>
      <point x="270" y="-127" type="curve" smooth="yes"/>
      <point x="270" y="-201"/>
      <point x="332" y="-244"/>
    </contour>
  </outline>
</glyph>
<glyph name="uni02F1" format="2">
  <advance width="800"/>
  <unicode hex="02F1"/>
  <outline>
    <contour>
      <point x="580" y="-240" type="line"/>
      <point x="580" y="-171" type="line"/>
      <point x="346" y="-108" type="line"/>
      <point x="580" y="-46" type="line"/>
      <point x="580" y="23" type="line"/>
      <point x="220" y="-84" type="line"/>
      <point x="220" y="-133" type="line"/>
    </contour>
  </outline>
</glyph>
<glyph name="uni02F2" format="2">
  <advance width="800"/>
  <unicode hex="02F2"/>
  <outline>
    <contour>
      <point x="220" y="-240" type="line"/>
      <point x="580" y="-133" type="line"/>
      <point x="580" y="-84" type="line"/>
      <point x="220" y="23" type="line"/>
      <point x="220" y="-46" type="line"/>
      <point x="454" y="-109" type="line"/>
      <point x="220" y="-171" type="line"/>
    </contour>
  </outline>
</glyph>
<glyph name="candraBinducomb" format="2">
  <unicode hex="0310"/>
  <anchor x="0" y="557" name="_top"/>
  <anchor x="0" y="862" name="top"/>
  <outline>
    <contour>
      <point x="-3" y="606" type="curve"/>
      <point x="155" y="606"/>
      <point x="243" y="688"/>
      <point x="253" y="802" type="curve"/>
      <point x="146" y="802" type="line"/>
      <point x="138" y="750"/>
      <point x="78" y="699"/>
      <point x="-2" y="699" type="curve"/>
      <point x="-83" y="699"/>
      <point x="-142" y="745"/>
      <point x="-149" y="802" type="curve"/>
      <point x="-253" y="802" type="line"/>
      <point x="-246" y="684"/>
      <point x="-167" y="606"/>
    </contour>
    <contour>
      <point x="-3" y="732" type="curve"/>
      <point x="51" y="732"/>
      <point x="88" y="756"/>
      <point x="88" y="797" type="curve"/>
      <point x="88" y="839"/>
      <point x="51" y="862"/>
      <point x="-3" y="862" type="curve"/>
      <point x="-57" y="862"/>
      <point x="-93" y="839"/>
      <point x="-93" y="797" type="curve"/>
      <point x="-93" y="756"/>
      <point x="-57" y="732"/>
    </contour>
  </outline>
</glyph>
<glyph name="righttackbelowcomb" format="2">
  <unicode hex="0319"/>
  <anchor x="0" y="0" name="_bottom"/>
  <anchor x="0" y="-218" name="bottom"/>
  <outline>
    <contour>
      <point x="-126" y="-218" type="line"/>
      <point x="-31" y="-218" type="line"/>
      <point x="-31" y="-153" type="line"/>
      <point x="126" y="-153" type="line"/>
      <point x="126" y="-93" type="line"/>
      <point x="-31" y="-93" type="line"/>
      <point x="-31" y="-28" type="line"/>
      <point x="-126" y="-28" type="line"/>
    </contour>
  </outline>
</glyph>
<glyph name="horncomb" format="2">
  <unicode hex="031B"/>
  <outline>
    <contour>
      <point x="-63" y="443" type="line"/>
      <point x="49" y="493"/>
      <point x="122" y="542"/>
      <point x="122" y="658" type="curve" smooth="yes"/>
      <point x="122" y="694"/>
      <point x="115" y="738"/>
      <point x="91" y="787" type="curve"/>
      <point x="75" y="793" type="line"/>
      <point x="-78" y="727" type="line"/>
      <point x="-48" y="689"/>
      <point x="-38" y="663"/>
      <point x="-38" y="629" type="curve" smooth="yes"/>
      <point x="-38" y="590"/>
      <point x="-67" y="577"/>
      <point x="-124" y="551" type="curve"/>
    </contour>
  </outline>
</glyph>
<glyph name="ringhalfleftbelowcomb" format="2">
  <unicode hex="031C"/>
  <anchor x="0" y="0" name="_bottom"/>
  <anchor x="0" y="-256" name="bottom"/>
  <outline>
    <contour>
      <point x="86" y="-256" type="curve"/>
      <point x="86" y="-168" type="line"/>
      <point x="41" y="-168"/>
      <point x="17" y="-154"/>
      <point x="17" y="-135" type="curve"/>
      <point x="17" y="-116"/>
      <point x="47" y="-102"/>
      <point x="86" y="-102" type="curve"/>
      <point x="86" y="-14" type="line"/>
      <point x="-17" y="-14"/>
      <point x="-87" y="-62"/>
      <point x="-87" y="-135" type="curve"/>
      <point x="-87" y="-208"/>
      <point x="-17" y="-256"/>
    </contour>
  </outline>
</glyph>
<glyph name="plusbelowcomb" format="2">
  <unicode hex="031F"/>
  <anchor x="0" y="0" name="_bottom"/>
  <anchor x="0" y="-228" name="bottom"/>
  <outline>
    <contour>
      <point x="-47" y="-228" type="line"/>
      <point x="48" y="-228" type="line"/>
      <point x="48" y="-158" type="line"/>
      <point x="151" y="-158" type="line"/>
      <point x="151" y="-98" type="line"/>
      <point x="48" y="-98" type="line"/>
      <point x="48" y="-28" type="line"/>
      <point x="-47" y="-28" type="line"/>
      <point x="-47" y="-98" type="line"/>
      <point x="-150" y="-98" type="line"/>
      <point x="-150" y="-158" type="line"/>
      <point x="-47" y="-158" type="line"/>
    </contour>
  </outline>
</glyph>
<glyph name="ringhalfrightbelowcomb" format="2">
  <unicode hex="0339"/>
  <anchor x="0" y="0" name="_bottom"/>
  <anchor x="0" y="-256" name="bottom"/>
  <outline>
    <contour>
      <point x="-87" y="-256" type="line"/>
      <point x="17" y="-256"/>
      <point x="87" y="-208"/>
      <point x="87" y="-135" type="curve"/>
      <point x="87" y="-62"/>
      <point x="17" y="-14"/>
      <point x="-87" y="-14" type="curve"/>
      <point x="-87" y="-102" type="line"/>
      <point x="-47" y="-102"/>
      <point x="-18" y="-115"/>
      <point x="-18" y="-135" type="curve"/>
      <point x="-18" y="-153"/>
      <point x="-42" y="-166"/>
      <point x="-87" y="-166" type="curve"/>
    </contour>
  </outline>
</glyph>
<glyph name="nottildeabovecomb" format="2">
  <unicode hex="034A"/>
  <anchor x="0" y="557" name="_top"/>
  <anchor x="0" y="772" name="top"/>
  <outline>
    <contour>
      <point x="-43" y="565" type="line"/>
      <point x="9" y="624" type="line"/>
      <point x="39" y="614"/>
      <point x="73" y="607"/>
      <point x="107" y="607" type="curve"/>
      <point x="207" y="607"/>
      <point x="253" y="669"/>
      <point x="263" y="735" type="curve"/>
      <point x="176" y="735" type="line"/>
      <point x="166" y="702"/>
      <point x="149" y="681"/>
      <point x="108" y="681" type="curve"/>
      <point x="92" y="681"/>
      <point x="76" y="682"/>
      <point x="60" y="687" type="curve"/>
      <point x="109" y="741" type="line"/>
      <point x="39" y="772" type="line"/>
      <point x="-10" y="717" type="line"/>
      <point x="-37" y="727"/>
      <point x="-68" y="734"/>
      <point x="-105" y="734" type="curve"/>
      <point x="-202" y="734"/>
      <point x="-254" y="670"/>
      <point x="-263" y="606" type="curve"/>
      <point x="-177" y="606" type="line"/>
      <point x="-164" y="645"/>
      <point x="-147" y="660"/>
      <point x="-105" y="660" type="curve"/>
      <point x="-91" y="660"/>
      <point x="-77" y="658"/>
      <point x="-61" y="653" type="curve"/>
      <point x="-112" y="596" type="line"/>
    </contour>
  </outline>
</glyph>
<glyph name="homotheticabovecomb" format="2">
  <unicode hex="034B"/>
  <anchor x="0" y="471" name="_top"/>
  <anchor x="0" y="967" name="top"/>
  <outline>
    <contour>
      <point x="-266" y="675" type="curve"/>
      <point x="-169" y="675" type="line"/>
      <point x="-158" y="714"/>
      <point x="-138" y="715"/>
      <point x="-109" y="715" type="curve"/>
      <point x="-46" y="715"/>
      <point x="32" y="676"/>
      <point x="110" y="676" type="curve" smooth="yes"/>
      <point x="196" y="676"/>
      <point x="254" y="716"/>
      <point x="266" y="825" type="curve"/>
      <point x="169" y="825" type="line"/>
      <point x="157" y="787"/>
      <point x="137" y="785"/>
      <point x="109" y="785" type="curve" smooth="yes"/>
      <point x="46" y="785"/>
      <point x="-34" y="824"/>
      <point x="-107" y="824" type="curve" smooth="yes"/>
      <point x="-199" y="824"/>
      <point x="-255" y="785"/>
    </contour>
    <contour>
      <point x="4" y="534" type="curve" smooth="yes"/>
      <point x="54" y="534"/>
      <point x="93" y="560"/>
      <point x="93" y="606" type="curve" smooth="yes"/>
      <point x="93" y="655"/>
      <point x="54" y="680"/>
      <point x="4" y="680" type="curve" smooth="yes"/>
      <point x="-48" y="680"/>
      <point x="-84" y="655"/>
      <point x="-84" y="606" type="curve" smooth="yes"/>
      <point x="-84" y="560"/>
      <point x="-48" y="534"/>
    </contour>
    <contour>
      <point x="4" y="821" type="curve" smooth="yes"/>
      <point x="54" y="821"/>
      <point x="93" y="847"/>
      <point x="93" y="893" type="curve" smooth="yes"/>
      <point x="93" y="942"/>
      <point x="54" y="967"/>
      <point x="4" y="967" type="curve" smooth="yes"/>
      <point x="-47" y="967"/>
      <point x="-83" y="942"/>
      <point x="-83" y="893" type="curve" smooth="yes"/>
      <point x="-83" y="847"/>
      <point x="-47" y="821"/>
    </contour>
  </outline>
</glyph>
<glyph name="almostequaltoabovecomb" format="2">
  <unicode hex="034C"/>
  <anchor x="0" y="557" name="_top"/>
  <anchor x="0" y="861" name="top"/>
  <outline>
    <contour>
      <point x="99" y="744" type="curve"/>
      <point x="194" y="744"/>
      <point x="238" y="800"/>
      <point x="248" y="860" type="curve"/>
      <point x="162" y="860" type="line"/>
      <point x="153" y="834"/>
      <point x="137" y="823"/>
      <point x="100" y="823" type="curve" smooth="yes"/>
      <point x="45" y="823"/>
      <point x="-11" y="861"/>
      <point x="-100" y="861" type="curve" smooth="yes"/>
      <point x="-191" y="861"/>
      <point x="-240" y="805"/>
      <point x="-248" y="745" type="curve"/>
      <point x="-162" y="745" type="line"/>
      <point x="-150" y="775"/>
      <point x="-136" y="782"/>
      <point x="-97" y="782" type="curve" smooth="yes"/>
      <point x="-45" y="782"/>
      <point x="18" y="744"/>
    </contour>
    <contour>
      <point x="99" y="604" type="curve"/>
      <point x="194" y="604"/>
      <point x="238" y="660"/>
      <point x="248" y="720" type="curve"/>
      <point x="162" y="720" type="line"/>
      <point x="153" y="694"/>
      <point x="137" y="683"/>
      <point x="100" y="683" type="curve" smooth="yes"/>
      <point x="45" y="683"/>
      <point x="-11" y="721"/>
      <point x="-100" y="721" type="curve" smooth="yes"/>
      <point x="-191" y="721"/>
      <point x="-240" y="665"/>
      <point x="-248" y="605" type="curve"/>
      <point x="-162" y="605" type="line"/>
      <point x="-150" y="635"/>
      <point x="-136" y="642"/>
      <point x="-97" y="642" type="curve" smooth="yes"/>
      <point x="-45" y="642"/>
      <point x="18" y="604"/>
    </contour>
  </outline>
</glyph>
<glyph name="arrowheadrightabovecomb" format="2">
  <unicode hex="0350"/>
  <anchor x="0" y="557" name="_top"/>
  <anchor x="0" y="790" name="top"/>
  <outline>
    <contour>
      <point x="-118" y="590" type="line"/>
      <point x="-102" y="590" type="line"/>
      <point x="-46" y="611"/>
      <point x="51" y="643"/>
      <point x="118" y="655" type="curve"/>
      <point x="118" y="723" type="line"/>
      <point x="51" y="737"/>
      <point x="-46" y="770"/>
      <point x="-102" y="790" type="curve"/>
      <point x="-118" y="790" type="line"/>
      <point x="-118" y="740" type="line"/>
      <point x="-79" y="723"/>
      <point x="-39" y="708"/>
      <point x="15" y="690" type="curve"/>
      <point x="-39" y="672"/>
      <point x="-84" y="657"/>
      <point x="-118" y="641" type="curve"/>
    </contour>
  </outline>
</glyph>
